<svg xmlns="http://www.w3.org/2000/svg" xmlns:xlink="http://www.w3.org/1999/xlink" width="1080" zoomAndPan="magnify" viewBox="0 0 810 809.999993" height="1080" preserveAspectRatio="xMidYMid meet" version="1.0"><defs><clipPath id="7ca6145242"><path d="M 372 710 L 411 710 L 411 791.542969 L 372 791.542969 Z M 372 710 " clip-rule="nonzero"/></clipPath><clipPath id="65ad6062b8"><path d="M 371 709 L 411 709 L 411 791.542969 L 371 791.542969 Z M 371 709 " clip-rule="nonzero"/></clipPath><clipPath id="4f1ef04128"><path d="M 165 118 L 248 118 L 248 209 L 165 209 Z M 165 118 " clip-rule="nonzero"/></clipPath><clipPath id="7f1eb9d9ba"><path d="M 184.535156 208.796875 C 184.535156 208.796875 207.886719 204.882812 220.636719 206.953125 C 220.636719 206.953125 243.542969 194.058594 254.78125 161.75 C 266.023438 129.4375 250.625 107.855469 221.335938 106.824219 C 192.039062 105.796875 107.097656 165.042969 184.535156 208.796875 Z M 184.535156 208.796875 " clip-rule="nonzero"/></clipPath><clipPath id="5eddf52335"><path d="M 164 117 L 248 117 L 248 209 L 164 209 Z M 164 117 " clip-rule="nonzero"/></clipPath><clipPath id="b873ea7dfb"><path d="M 184.535156 208.796875 C 184.535156 208.796875 207.886719 204.882812 220.636719 206.953125 C 220.636719 206.953125 243.542969 194.058594 254.78125 161.75 C 266.023438 129.4375 250.625 107.855469 221.335938 106.824219 C 192.039062 105.796875 107.097656 165.042969 184.535156 208.796875 Z M 184.535156 208.796875 " clip-rule="nonzero"/></clipPath><clipPath id="4a312d1e2e"><path d="M 165 128 L 248 128 L 248 209 L 165 209 Z M 165 128 " clip-rule="nonzero"/></clipPath><clipPath id="5caf702408"><path d="M 184.535156 208.796875 C 184.535156 208.796875 207.886719 204.882812 220.636719 206.953125 C 220.636719 206.953125 243.542969 194.058594 254.78125 161.75 C 266.023438 129.4375 250.625 107.855469 221.335938 106.824219 C 192.039062 105.796875 107.097656 165.042969 184.535156 208.796875 Z M 184.535156 208.796875 " clip-rule="nonzero"/></clipPath><clipPath id="0e9be13c13"><path d="M 184 148 L 228 148 L 228 199 L 184 199 Z M 184 148 " clip-rule="nonzero"/></clipPath><clipPath id="44aad602b4"><path d="M 184.535156 208.796875 C 184.535156 208.796875 207.886719 204.882812 220.636719 206.953125 C 220.636719 206.953125 243.542969 194.058594 254.78125 161.75 C 266.023438 129.4375 250.625 107.855469 221.335938 106.824219 C 192.039062 105.796875 107.097656 165.042969 184.535156 208.796875 Z M 184.535156 208.796875 " clip-rule="nonzero"/></clipPath><clipPath id="1246800845"><path d="M 210 158 L 227 158 L 227 184 L 210 184 Z M 210 158 " clip-rule="nonzero"/></clipPath><clipPath id="4af7765c34"><path d="M 184.535156 208.796875 C 184.535156 208.796875 207.886719 204.882812 220.636719 206.953125 C 220.636719 206.953125 243.542969 194.058594 254.78125 161.75 C 266.023438 129.4375 250.625 107.855469 221.335938 106.824219 C 192.039062 105.796875 107.097656 165.042969 184.535156 208.796875 Z M 184.535156 208.796875 " clip-rule="nonzero"/></clipPath></defs><path fill="#000000" d="M 392.589844 681.792969 C 387.898438 679.082031 383.78125 675.71875 380.648438 671.550781 C 362.074219 646.882812 420.914062 596.050781 427.675781 590.339844 C 428.890625 589.308594 430.988281 589.523438 432.339844 590.828125 C 433.695312 592.125 433.8125 594.011719 432.597656 595.035156 C 415.214844 609.710938 372.945312 651.574219 385.90625 668.792969 C 401.839844 689.957031 452.355469 686.726562 452.867188 686.703125 C 454.640625 686.570312 456.433594 687.816406 456.867188 689.460938 C 457.308594 691.109375 456.238281 692.550781 454.472656 692.671875 C 452.601562 692.804688 415.667969 695.160156 392.589844 681.792969 Z M 392.589844 681.792969 " fill-opacity="1" fill-rule="nonzero"/><path stroke-linecap="round" transform="matrix(2.831957, 0, 0, 2.83207, -82.93637, -38.240621)" fill-opacity="1" fill="#a87a9a" fill-rule="nonzero" stroke-linejoin="round" d="M 190.847372 254.063522 C 190.847372 254.063522 180.400201 263.599942 179.74777 275.053576 C 179.09258 286.511349 189.138361 276.453557 193.355024 267.352993 C 197.570307 258.25105 196.985464 249.539446 190.847372 254.063522 Z M 190.847372 254.063522 " stroke="#832f0a" stroke-width="0.565" stroke-opacity="1" stroke-miterlimit="4"/><path fill="#000000" d="M 156.640625 414.6875 C 155.609375 414.089844 154.855469 413.066406 154.761719 411.957031 C 154.617188 410.3125 155.976562 409.097656 157.796875 409.25 C 255.355469 417.449219 295.535156 353.71875 295.925781 353.0625 C 296.734375 351.753906 298.679688 351.457031 300.296875 352.390625 C 300.316406 352.40625 300.339844 352.417969 300.355469 352.433594 C 301.984375 353.410156 302.652344 355.285156 301.839844 356.617188 C 301.429688 357.289062 259.707031 423.738281 158.316406 415.222656 C 157.71875 415.167969 157.136719 414.976562 156.640625 414.6875 Z M 156.640625 414.6875 " fill-opacity="1" fill-rule="nonzero"/><path fill="#000000" d="M 217.308594 476.785156 C 216.601562 476.378906 216.007812 475.761719 215.683594 475.019531 C 214.972656 473.40625 215.765625 471.792969 217.445312 471.421875 C 254.253906 463.238281 310.347656 427.894531 310.910156 427.542969 C 312.273438 426.667969 314.363281 427.105469 315.566406 428.523438 C 316.78125 429.933594 316.644531 431.777344 315.277344 432.648438 C 312.949219 434.117188 257.808594 468.859375 220.007812 477.265625 C 219.101562 477.460938 218.132812 477.261719 217.308594 476.785156 Z M 217.308594 476.785156 " fill-opacity="1" fill-rule="nonzero"/><path stroke-linecap="round" transform="matrix(2.831957, 0, 0, 2.83207, -82.93637, -38.240621)" fill-opacity="1" fill="#a69bac" fill-rule="nonzero" stroke-linejoin="round" d="M 79.401686 147.386375 C 82.625219 150.914602 85.985307 157.395892 85.942548 159.118627 C 85.839097 163.245467 77.062314 168.984698 73.194627 167.466098 C 69.32556 165.946119 75.72021 161.279976 75.72021 161.279976 C 75.72021 161.279976 68.281394 162.886851 66.98067 159.971029 C 65.678567 157.052449 73.408425 156.766935 73.408425 156.766935 C 73.408425 156.766935 66.522727 154.077317 67.053776 151.644248 C 67.583445 149.208419 78.157516 154.034559 78.157516 154.034559 C 78.157516 154.034559 72.873239 147.365686 74.844325 145.477436 C 75.946423 144.426416 77.652675 145.471919 79.401686 147.386375 Z M 79.401686 147.386375 " stroke="#832f0a" stroke-width="0.565" stroke-opacity="1" stroke-miterlimit="4"/><path stroke-linecap="round" transform="matrix(2.831957, 0, 0, 2.83207, -82.93637, -38.240621)" fill-opacity="1" fill="#a69bac" fill-rule="nonzero" stroke-linejoin="round" d="M 107.585875 182.188653 C 107.585875 182.188653 105.984453 177.365271 102.816094 175.238404 C 99.646356 173.118434 98.596673 175.53909 102.068488 179.569379 C 93.688958 177.027345 91.371656 177.99147 92.138572 180.312817 C 92.905489 182.632785 98.530464 184.156902 98.530464 184.156902 C 98.530464 184.156902 91.29855 186.31963 92.986871 189.173384 C 94.67657 192.028517 100.88363 187.686508 100.88363 187.686508 C 100.88363 187.686508 99.661529 194.050558 102.733333 194.818823 C 105.806518 195.585709 109.792829 187.792713 107.585875 182.188653 Z M 107.585875 182.188653 " stroke="#832f0a" stroke-width="0.565" stroke-opacity="1" stroke-miterlimit="4"/><path stroke-linecap="round" transform="matrix(2.831957, 0, 0, 2.83207, -82.93637, -38.240621)" fill-opacity="1" fill="#ededed" fill-rule="nonzero" stroke-linejoin="round" d="M 169.990272 143.481602 C 169.990272 143.481602 170.370972 90.981638 211.121008 37.620996 C 243.695656 -1.62122 240.408673 37.26376 224.660674 69.318489 C 208.912674 101.373218 169.23439 156.125565 169.990272 143.481602 Z M 169.990272 143.481602 " stroke="#832f0a" stroke-width="0.565" stroke-opacity="1" stroke-miterlimit="4"/><path fill="#ededed" d="M 553.292969 158.074219 C 584.542969 94.46875 598.457031 21.378906 572.261719 21.542969 C 576.523438 41.207031 572.363281 87.398438 517.25 192.78125 C 459.734375 302.78125 419.34375 345.769531 398.691406 362.246094 C 398.480469 366.054688 398.46875 368.109375 398.46875 368.109375 C 396.328125 403.917969 508.695312 248.855469 553.292969 158.074219 Z M 553.292969 158.074219 " fill-opacity="1" fill-rule="nonzero"/><path stroke-linecap="round" transform="matrix(2.831957, 0, 0, 2.83207, -82.93637, -38.240621)" fill-opacity="1" fill="#a69bac" fill-rule="nonzero" stroke-linejoin="round" d="M 202.494574 159.040007 C 197.465477 160.627572 193.021222 162.397202 189.165948 164.19304 C 198.338603 171.827417 223.678579 197.833954 192.977083 231.959 C 203.533222 235.044474 215.166631 235.742396 226.834524 234.652755 C 260.737483 185.93205 215.643885 164.143385 202.494574 159.040007 Z M 202.494574 159.040007 " stroke="#832f0a" stroke-width="0.565" stroke-opacity="1" stroke-miterlimit="4"/><path stroke-linecap="round" transform="matrix(2.831957, 0, 0, 2.83207, -82.93637, -38.240621)" fill-opacity="1" fill="#a69bac" fill-rule="nonzero" stroke-linejoin="round" d="M 182.906474 167.386099 C 173.760026 172.481201 169.353014 176.973553 169.353014 176.973553 C 169.353014 176.973553 163.997011 187.438236 156.351293 200.036682 C 159.704485 207.822781 164.249432 214.109591 169.661988 219.104005 C 191.69567 193.963663 186.669331 175.081165 182.906474 167.386099 Z M 182.906474 167.386099 " stroke="#832f0a" stroke-width="0.565" stroke-opacity="1" stroke-miterlimit="4"/><path stroke-linecap="round" transform="matrix(2.831957, 0, 0, 2.83207, -82.93637, -38.240621)" fill-opacity="1" fill="#a87a9a" fill-rule="nonzero" stroke-linejoin="round" d="M 189.165948 164.19304 C 186.874854 165.260611 184.790661 166.336458 182.906474 167.38472 C 186.669331 175.079786 191.69567 193.962283 169.661988 219.102626 C 176.311818 225.241851 184.277544 229.412828 192.977083 231.95762 C 223.678579 197.833954 198.338603 171.827417 189.165948 164.19304 Z M 189.165948 164.19304 " stroke="#832f0a" stroke-width="0.565" stroke-opacity="1" stroke-miterlimit="4"/><path stroke-linecap="round" transform="matrix(2.831957, 0, 0, 2.83207, -82.93637, -38.240621)" fill-opacity="1" fill="#a87a9a" fill-rule="nonzero" stroke-linejoin="round" d="M 220.125382 154.885582 C 213.595555 155.946257 207.725056 157.393134 202.494574 159.040007 C 215.642506 164.142006 260.737483 185.93205 226.835903 234.652755 C 241.633533 233.273464 256.483578 229.034902 269.257707 223.18119 C 281.605617 177.118378 237.223762 159.771032 220.125382 154.885582 Z M 220.125382 154.885582 " stroke="#832f0a" stroke-width="0.565" stroke-opacity="1" stroke-miterlimit="4"/><path stroke-linecap="round" transform="matrix(2.831957, 0, 0, 2.83207, -82.93637, -38.240621)" fill-opacity="1" fill="#a87a9a" fill-rule="nonzero" stroke-linejoin="round" d="M 262.835469 154.05249 C 261.687853 153.929733 260.558168 153.820769 259.434001 153.72146 C 274.816474 158.812424 300.615772 172.212239 297.703971 204.391105 C 322.482553 181.555558 318.043816 160.328265 262.835469 154.05249 Z M 262.835469 154.05249 " stroke="#832f0a" stroke-width="0.565" stroke-opacity="1" stroke-miterlimit="4"/><path stroke-linecap="round" transform="matrix(2.831957, 0, 0, 2.83207, -82.93637, -38.240621)" fill-opacity="1" fill="#a69bac" fill-rule="nonzero" stroke-linejoin="round" d="M 259.434001 153.72146 C 244.357743 152.376651 231.281537 153.069055 220.125382 154.885582 C 237.223762 159.772411 281.605617 177.118378 269.257707 223.182569 C 276.379273 219.915028 282.858064 216.150942 288.321656 212.099964 C 291.79623 209.523448 294.928726 206.948311 297.703971 204.391105 C 300.614392 172.212239 274.815094 158.812424 259.434001 153.72146 Z M 259.434001 153.72146 " stroke="#832f0a" stroke-width="0.565" stroke-opacity="1" stroke-miterlimit="4"/><path stroke-linecap="round" transform="matrix(2.831957, 0, 0, 2.83207, -82.93637, -38.240621)" fill-opacity="1" fill="#a87a9a" fill-rule="nonzero" stroke-linejoin="round" d="M 166.205345 130.182475 C 162.770772 123.505326 159.336199 118.1454 156.847858 114.570277 C 154.912635 122.17431 148.691782 138.986492 132.196176 135.032063 C 132.727225 137.709268 133.430691 141.194737 134.266575 145.175371 C 157.053381 155.920051 164.192879 138.244433 166.205345 130.182475 Z M 166.205345 130.182475 " stroke="#832f0a" stroke-width="0.565" stroke-opacity="1" stroke-miterlimit="4"/><path stroke-linecap="round" transform="matrix(2.831957, 0, 0, 2.83207, -82.93637, -38.240621)" fill-opacity="1" fill="#a69bac" fill-rule="nonzero" stroke-linejoin="round" d="M 173.903478 148.434637 C 171.671696 141.667834 168.943348 135.510677 166.205345 130.182475 C 164.192879 138.244433 157.053381 155.920051 134.266575 145.173992 C 135.160392 149.448416 136.204557 154.278694 137.341139 159.262073 C 160.457608 171.41363 170.408214 156.513146 173.903478 148.434637 Z M 173.903478 148.434637 " stroke="#832f0a" stroke-width="0.565" stroke-opacity="1" stroke-miterlimit="4"/><path stroke-linecap="round" transform="matrix(2.831957, 0, 0, 2.83207, -82.93637, -38.240621)" fill-opacity="1" fill="#a69bac" fill-rule="nonzero" stroke-linejoin="round" d="M 156.847858 114.568898 C 154.617455 111.364804 153.151209 109.581381 153.151209 109.581381 L 131.103734 129.428003 C 131.103734 129.428003 131.506503 131.552112 132.196176 135.032063 C 148.690403 138.985112 154.912635 122.172931 156.847858 114.568898 Z M 156.847858 114.568898 " stroke="#832f0a" stroke-width="0.565" stroke-opacity="1" stroke-miterlimit="4"/><path stroke-linecap="round" transform="matrix(2.831957, 0, 0, 2.83207, -82.93637, -38.240621)" fill-opacity="1" fill="#a87a9a" fill-rule="nonzero" stroke-linejoin="round" d="M 147.625547 195.243645 C 152.170494 204.51662 163.501826 204.363519 171.169614 196.046392 C 165.318425 198.707045 155.76645 201.275286 147.625547 195.243645 Z M 147.625547 195.243645 " stroke="#832f0a" stroke-width="0.565" stroke-opacity="1" stroke-miterlimit="4"/><path stroke-linecap="round" transform="matrix(2.831957, 0, 0, 2.83207, -82.93637, -38.240621)" fill-opacity="1" fill="#a87a9a" fill-rule="nonzero" stroke-linejoin="round" d="M 178.564291 169.859168 C 178.557394 169.770894 178.556014 169.689515 178.547738 169.599861 C 177.771166 162.124103 176.069053 154.997305 173.903478 148.433257 C 170.406835 156.511767 160.456229 171.41363 137.33976 159.260694 C 138.623931 164.910271 140.025347 170.737777 141.459868 176.162529 C 164.722548 190.81612 174.917298 177.475615 178.564291 169.859168 Z M 178.564291 169.859168 " stroke="#832f0a" stroke-width="0.565" stroke-opacity="1" stroke-miterlimit="4"/><path stroke-linecap="round" transform="matrix(2.831957, 0, 0, 2.83207, -82.93637, -38.240621)" fill-opacity="1" fill="#a69bac" fill-rule="nonzero" stroke-linejoin="round" d="M 171.169614 196.046392 C 176.147675 190.642329 179.572593 181.803831 178.564291 169.860548 C 174.917298 177.475615 164.722548 190.817499 141.459868 176.165288 C 143.403367 183.519669 145.40204 190.127854 147.254503 194.479518 C 147.368989 194.748479 147.501406 194.989855 147.625547 195.243645 C 155.76645 201.275286 165.318425 198.707045 171.169614 196.046392 Z M 171.169614 196.046392 " stroke="#832f0a" stroke-width="0.565" stroke-opacity="1" stroke-miterlimit="4"/><path fill="#000000" d="M 296.203125 514.308594 C 295.652344 513.988281 295.167969 513.546875 294.828125 512.996094 C 293.855469 511.472656 294.3125 509.71875 295.859375 509.089844 C 367.886719 479.601562 367.714844 370.25 367.703125 369.152344 C 367.6875 367.519531 369.15625 366.410156 370.984375 366.683594 C 372.808594 366.945312 374.296875 368.492188 374.3125 370.125 C 374.355469 374.753906 374.5 483.886719 299.382812 514.625 C 298.386719 515.035156 297.1875 514.878906 296.203125 514.308594 Z M 296.203125 514.308594 " fill-opacity="1" fill-rule="nonzero"/><path fill="#000000" d="M 307.945312 578.324219 C 307.285156 577.9375 306.722656 577.375 306.378906 576.679688 C 305.601562 575.082031 306.300781 573.4375 307.949219 572.984375 C 358.148438 559.421875 386.070312 500.332031 386.351562 499.730469 C 387.007812 498.316406 388.914062 497.851562 390.617188 498.699219 C 392.34375 499.554688 393.167969 501.402344 392.507812 502.816406 C 391.34375 505.332031 363.332031 564.5625 310.785156 578.761719 C 309.851562 579.011719 308.816406 578.828125 307.945312 578.324219 Z M 307.945312 578.324219 " fill-opacity="1" fill-rule="nonzero"/><path stroke-linecap="round" transform="matrix(2.831957, 0, 0, 2.83207, -82.93637, -38.240621)" fill-opacity="1" fill="#a69bac" fill-rule="nonzero" stroke-linejoin="round" d="M 134.04588 193.901595 C 134.04588 193.901595 129.658179 192.370581 124.99047 190.101647 C 120.32414 187.829954 119.278596 190.545779 126.63603 193.938835 C 129.852666 195.37054 126.204295 194.988476 123.234562 195.864326 C 120.264828 196.744314 117.386132 201.7139 127.865028 199.413243 C 123.488361 204.238003 126.888451 208.084847 131.252703 202.673887 C 132.363077 208.654494 137.78253 206.887622 136.561808 201.707004 C 135.342466 196.526386 134.836246 194.360899 134.04588 193.901595 Z M 134.04588 193.901595 " stroke="#832f0a" stroke-width="0.565" stroke-opacity="1" stroke-miterlimit="4"/><path stroke-linecap="round" transform="matrix(2.831957, 0, 0, 2.83207, -82.93637, -38.240621)" fill-opacity="1" fill="#a69bac" fill-rule="nonzero" stroke-linejoin="round" d="M 139.422573 216.207493 C 139.422573 216.207493 134.894178 214.30683 131.801683 212.659956 C 128.710567 211.014461 128.66367 214.738548 133.248618 216.239217 C 127.827786 218.007468 126.819483 219.441931 128.477458 220.835015 C 130.132674 222.22672 135.542471 219.876408 135.542471 219.876408 C 135.542471 219.876408 133.189306 225.150818 136.073519 226.244596 C 138.957733 227.338374 139.57568 222.931538 139.57568 222.931538 C 139.57568 222.931538 142.244716 228.952145 145.603425 228.010089 C 148.962134 227.069412 145.436524 223.440497 143.108187 221.080529 C 140.77985 218.7247 140.608811 216.893001 139.422573 216.207493 Z M 139.422573 216.207493 " stroke="#832f0a" stroke-width="0.565" stroke-opacity="1" stroke-miterlimit="4"/><path fill="#000000" d="M 408.765625 772.386719 C 408.277344 772.105469 407.84375 771.71875 407.503906 771.246094 C 406.441406 769.761719 406.769531 767.96875 408.261719 767.246094 C 505.171875 719.832031 570.644531 614.929688 571.289062 613.878906 C 572.101562 612.558594 574.046875 612.273438 575.660156 613.210938 C 575.6875 613.226562 575.707031 613.238281 575.730469 613.25 C 577.363281 614.238281 578.019531 616.117188 577.199219 617.441406 C 576.542969 618.511719 510.332031 724.589844 412.113281 772.636719 C 411.105469 773.128906 409.820312 772.996094 408.765625 772.386719 Z M 408.765625 772.386719 " fill-opacity="1" fill-rule="nonzero"/><path stroke-linecap="round" transform="matrix(2.831957, 0, 0, 2.83207, -82.93637, -38.240621)" fill-opacity="1" fill="#a69bac" fill-rule="nonzero" stroke-linejoin="round" d="M 160.733477 265.624741 C 158.850669 268.198499 158.090649 274.300483 159.327923 280.550052 C 160.246568 285.180333 162.893534 290.156816 165.90051 292.045066 C 168.34747 280.059024 163.314235 269.855028 160.733477 265.624741 Z M 160.733477 265.624741 " stroke="#832f0a" stroke-width="0.565" stroke-opacity="1" stroke-miterlimit="4"/><g clip-path="url(#7ca6145242)"><path fill="#a87a9a" d="M 406.328125 745.632812 C 397.996094 718.738281 387.121094 709.996094 377.925781 710.390625 C 375.777344 710.480469 373.871094 711.808594 372.257812 714.027344 C 379.5625 726.007812 393.816406 754.90625 386.890625 788.851562 C 393.371094 792.921875 400.433594 791.941406 406.398438 781.636719 C 406.398438 781.636719 414.664062 772.53125 406.328125 745.632812 Z M 406.328125 745.632812 " fill-opacity="1" fill-rule="nonzero"/></g><g clip-path="url(#65ad6062b8)"><path stroke-linecap="round" transform="matrix(2.831957, 0, 0, 2.83207, -82.93637, -38.240621)" fill="none" stroke-linejoin="round" d="M 172.765518 276.784587 C 169.823371 267.288166 165.98327 264.201313 162.736289 264.340621 C 161.977648 264.372345 161.304527 264.841304 160.734857 265.624741 C 163.314235 269.855028 168.34747 280.059024 165.901889 292.045066 C 168.190225 293.482287 170.684084 293.136085 172.790346 289.497515 C 172.790346 289.497515 175.709043 286.282387 172.765518 276.784587 Z M 172.765518 276.784587 " stroke="#832f0a" stroke-width="0.565" stroke-opacity="1" stroke-miterlimit="4"/></g><path stroke-linecap="round" transform="matrix(2.831957, 0, 0, 2.83207, -82.93637, -38.240621)" fill-opacity="1" fill="#ededed" fill-rule="nonzero" stroke-linejoin="round" d="M 171.289617 155.00558 C 171.289617 155.00558 203.671157 91.796799 277.165501 68.554362 C 305.541418 58.435881 302.153743 70.700539 296.957745 85.406542 C 286.691268 114.476485 246.039166 149.041525 171.289617 155.00558 Z M 171.289617 155.00558 " stroke="#832f0a" stroke-width="0.565" stroke-opacity="1" stroke-miterlimit="4"/><path fill="#ededed" d="M 758.035156 203.636719 C 767.457031 176.960938 774.742188 153.167969 757.691406 147 C 753.6875 171.996094 737.320312 214.15625 679.941406 267.386719 C 598.335938 343.113281 478.222656 390.007812 406.457031 392.992188 C 403.566406 397.976562 402.148438 400.746094 402.148438 400.746094 C 613.835938 383.855469 728.960938 285.964844 758.035156 203.636719 Z M 758.035156 203.636719 " fill-opacity="1" fill-rule="nonzero"/><path fill="#a69bac" d="M 797.816406 456.167969 C 808.34375 504.164062 723.722656 559.210938 610.058594 587.628906 C 490.460938 617.546875 400.292969 536.988281 409.921875 506.601562 C 402.355469 519.660156 356.695312 541.160156 357.492188 489.320312 C 360.390625 399.457031 296.027344 331.671875 322.859375 324.328125 C 344.210938 318.011719 355.996094 299.601562 361.761719 286.972656 C 361.59375 286.738281 361.410156 286.457031 361.246094 286.222656 C 354.929688 277.148438 350.773438 272.101562 350.773438 272.101562 L 288.339844 328.304688 C 288.339844 328.304688 289.476562 334.320312 291.429688 344.175781 C 292.933594 351.757812 294.929688 361.628906 297.292969 372.902344 C 299.828125 385.007812 302.785156 398.683594 306 412.800781 C 309.636719 428.800781 313.609375 445.304688 317.667969 460.667969 C 323.171875 481.5 328.832031 500.210938 334.082031 512.539062 C 334.402344 513.300781 334.78125 513.980469 335.128906 514.703125 C 341.125 526.941406 351.296875 533.375 362.648438 534.378906 C 371.820312 553.625 383.664062 569.46875 397.535156 582.273438 C 416.367188 599.660156 438.921875 611.472656 463.558594 618.679688 C 493.453125 627.421875 526.398438 629.394531 559.445312 626.308594 C 601.347656 622.402344 643.402344 610.398438 679.582031 593.820312 C 699.75 584.570312 718.097656 573.910156 733.566406 562.4375 C 743.410156 555.136719 752.28125 547.84375 760.140625 540.601562 C 793.21875 510.128906 807.890625 480.671875 797.816406 456.167969 Z M 797.816406 456.167969 " fill-opacity="0.5" fill-rule="nonzero"/><path stroke-linecap="round" transform="matrix(2.831957, 0, 0, 2.83207, -82.93637, -38.240621)" fill-opacity="1" fill="#a69bac" fill-rule="nonzero" stroke-linejoin="round" d="M 94.447599 87.228586 C 94.447599 87.228586 53.247896 93.577464 30.564542 137.19893 C 30.564542 137.19893 61.179139 111.059981 87.745354 105.279371 C 86.041861 114.298557 98.43529 129.749378 114.168117 131.739695 C 129.899564 133.731392 151.240814 126.850108 158.952741 99.763585 C 166.666047 72.675684 154.693319 52.85113 135.790753 48.637395 C 116.889567 44.426419 93.09308 46.231911 94.447599 87.228586 Z M 94.447599 87.228586 " stroke="#832f0a" stroke-width="0.565" stroke-opacity="1" stroke-miterlimit="4"/><path fill="#832f0a" d="M 256.878906 270.734375 C 249.175781 266.273438 248.90625 259.0625 248.902344 258.972656 C 248.894531 258.558594 249.253906 258.285156 249.714844 258.34375 C 250.171875 258.402344 250.542969 258.785156 250.554688 259.191406 C 250.570312 259.621094 251 269.570312 265.039062 272.101562 C 265.492188 272.195312 265.851562 272.585938 265.832031 272.988281 C 265.824219 273.398438 265.441406 273.65625 264.984375 273.574219 C 261.632812 272.96875 258.984375 271.953125 256.878906 270.734375 Z M 256.878906 270.734375 " fill-opacity="1" fill-rule="nonzero"/><g clip-path="url(#4f1ef04128)"><g clip-path="url(#7f1eb9d9ba)"><path fill="#fffde9" d="M 235.375 186.785156 C 219.542969 208.34375 193.585938 215.53125 177.410156 202.839844 C 161.230469 190.15625 160.9375 162.382812 176.757812 140.828125 C 192.597656 119.269531 218.546875 112.085938 234.738281 124.777344 C 250.929688 137.464844 251.207031 165.226562 235.375 186.785156 Z M 235.375 186.785156 " fill-opacity="1" fill-rule="nonzero"/></g></g><g clip-path="url(#5eddf52335)"><g clip-path="url(#b873ea7dfb)"><path stroke-linecap="round" transform="matrix(2.831957, 0, 0, 2.83207, -82.93637, -38.240621)" fill="none" stroke-linejoin="round" d="M 112.399794 79.45628 C 106.809303 87.068588 97.643545 89.606484 91.931671 85.125167 C 86.218417 80.646608 86.114966 70.839847 91.70132 63.228918 C 97.29457 55.616609 106.457569 53.080093 112.174961 57.56141 C 117.892352 62.041348 117.990286 71.843971 112.399794 79.45628 Z M 112.399794 79.45628 " stroke="#832f0a" stroke-width="0.565" stroke-opacity="1" stroke-miterlimit="4"/></g></g><g clip-path="url(#4a312d1e2e)"><g clip-path="url(#5caf702408)"><path fill="#f2efda" d="M 238.195312 128.023438 C 247.339844 141.421875 245.675781 162.882812 232.984375 180.144531 C 218.066406 200.460938 193.625 207.230469 178.382812 195.277344 C 167.878906 187.046875 164.476562 172.066406 168.265625 156.898438 C 161.992188 174.691406 165.050781 193.160156 177.410156 202.839844 C 193.589844 215.53125 219.546875 208.34375 235.378906 186.785156 C 249.984375 166.910156 250.835938 141.765625 238.195312 128.023438 Z M 238.195312 128.023438 " fill-opacity="1" fill-rule="nonzero"/></g></g><g clip-path="url(#0e9be13c13)"><g clip-path="url(#44aad602b4)"><path fill="#3a1600" d="M 187.410156 165.964844 C 181.59375 179.226562 185.179688 193.375 195.40625 197.550781 C 205.621094 201.722656 218.632812 194.351562 224.445312 181.085938 C 230.261719 167.820312 226.675781 153.671875 216.453125 149.503906 C 206.230469 145.324219 193.230469 152.699219 187.410156 165.964844 Z M 187.410156 165.964844 " fill-opacity="1" fill-rule="nonzero"/></g></g><g clip-path="url(#1246800845)"><g clip-path="url(#4af7765c34)"><path fill="#ffffff" d="M 210.9375 168.964844 C 209.203125 175.65625 211.195312 182.125 215.375 183.402344 C 219.566406 184.6875 224.367188 180.296875 226.097656 173.609375 C 227.832031 166.925781 225.828125 160.453125 221.65625 159.183594 C 217.460938 157.890625 212.664062 162.28125 210.9375 168.964844 Z M 210.9375 168.964844 " fill-opacity="1" fill-rule="nonzero"/></g></g><path fill="#a69bac" d="M 322.804688 211.546875 C 304.816406 236.046875 275.332031 244.203125 256.953125 229.792969 C 238.566406 215.375 238.246094 183.828125 256.214844 159.332031 C 274.203125 134.839844 303.6875 126.679688 322.082031 141.09375 C 340.476562 155.511719 340.796875 187.0625 322.804688 211.546875 Z M 322.804688 211.546875 " fill-opacity="0.4" fill-rule="nonzero"/><path stroke-linecap="round" transform="matrix(2.831957, 0, 0, 2.83207, -82.93637, -38.240621)" fill-opacity="1" fill="#fffde9" fill-rule="nonzero" stroke-linejoin="round" d="M 143.971658 84.563795 C 137.621146 93.213331 127.208459 96.094671 120.718633 91.005086 C 114.227428 85.912742 114.111563 74.774965 120.459316 66.126809 C 126.811207 57.480032 137.221136 54.598692 143.716479 59.686898 C 150.209063 64.779241 150.32217 75.915639 143.971658 84.563795 Z M 143.971658 84.563795 " stroke="#832f0a" stroke-width="0.565" stroke-opacity="1" stroke-miterlimit="4"/><path fill="#f2efda" d="M 327.980469 134.496094 C 338.375 149.714844 336.480469 174.097656 322.066406 193.710938 C 305.121094 216.789062 277.355469 224.476562 260.03125 210.894531 C 248.097656 201.542969 244.238281 184.519531 248.539062 167.300781 C 241.410156 187.507812 244.894531 208.488281 258.933594 219.492188 C 277.3125 233.90625 306.800781 225.746094 324.785156 201.25 C 341.382812 178.667969 342.351562 150.101562 327.980469 134.496094 Z M 327.980469 134.496094 " fill-opacity="1" fill-rule="nonzero"/><path fill="#3a1600" d="M 270.292969 177.589844 C 263.683594 192.660156 267.757812 208.734375 279.375 213.476562 C 290.980469 218.21875 305.757812 209.84375 312.363281 194.773438 C 318.972656 179.707031 314.898438 163.628906 303.28125 158.886719 C 291.671875 154.140625 276.902344 162.523438 270.292969 177.589844 Z M 270.292969 177.589844 " fill-opacity="1" fill-rule="nonzero"/><path fill="#ffffff" d="M 297.023438 181.011719 C 295.054688 188.617188 297.316406 195.953125 302.066406 197.402344 C 306.824219 198.867188 312.273438 193.871094 314.246094 186.277344 C 316.214844 178.683594 313.941406 171.332031 309.195312 169.894531 C 304.429688 168.425781 298.976562 173.40625 297.023438 181.011719 Z M 297.023438 181.011719 " fill-opacity="1" fill-rule="nonzero"/><path fill="#832f0a" d="M 186.222656 291.15625 C 180.957031 288.101562 177.3125 284.265625 176.253906 280.257812 C 174.933594 275.226562 175.589844 271.351562 178.226562 268.734375 C 183.226562 263.75 193.480469 265.195312 193.910156 265.257812 C 194.371094 265.328125 194.742188 265.707031 194.742188 266.117188 C 194.75 266.527344 194.382812 266.800781 193.925781 266.734375 C 193.824219 266.726562 184.03125 265.355469 179.519531 269.847656 C 177.21875 272.144531 176.660156 275.605469 177.859375 280.15625 C 179.609375 286.820312 190.09375 293.25 202.800781 295.433594 C 221.515625 298.660156 244.609375 292.960938 253.296875 267.285156 C 253.421875 266.910156 253.882812 266.753906 254.316406 266.9375 C 254.746094 267.109375 255.007812 267.5625 254.878906 267.9375 C 245.933594 294.378906 222.09375 300.238281 202.769531 296.90625 C 196.464844 295.8125 190.75 293.773438 186.222656 291.15625 Z M 186.222656 291.15625 " fill-opacity="1" fill-rule="nonzero"/><path fill="#832f0a" d="M 207.480469 306.8125 C 207.164062 306.628906 206.960938 306.292969 207.015625 305.976562 C 207.074219 305.578125 207.496094 305.363281 207.941406 305.480469 C 208.066406 305.519531 220.382812 308.878906 227.144531 307.066406 C 227.5625 306.953125 228.050781 307.191406 228.246094 307.582031 C 228.441406 307.984375 228.269531 308.398438 227.855469 308.503906 C 220.640625 310.441406 208.246094 307.058594 207.722656 306.914062 C 207.632812 306.890625 207.554688 306.855469 207.480469 306.8125 Z M 207.480469 306.8125 " fill-opacity="1" fill-rule="nonzero"/><path fill="#832f0a" d="M 165.203125 260.53125 C 165.050781 260.445312 164.917969 260.324219 164.835938 260.167969 C 164.617188 259.777344 164.753906 259.359375 165.15625 259.21875 C 166.203125 258.847656 191.011719 250.386719 206.523438 252.007812 C 206.976562 252.058594 207.371094 252.425781 207.394531 252.835938 C 207.421875 253.25 207.070312 253.542969 206.617188 253.492188 C 191.480469 251.910156 166.214844 260.546875 165.960938 260.628906 C 165.71875 260.710938 165.4375 260.671875 165.203125 260.53125 Z M 165.203125 260.53125 " fill-opacity="1" fill-rule="nonzero"/><path fill="#832f0a" d="M 184.183594 209.410156 C 183.992188 209.300781 183.835938 209.125 183.761719 208.929688 C 183.605469 208.519531 183.824219 208.128906 184.257812 208.054688 C 185.214844 207.894531 207.894531 204.148438 220.644531 206.21875 C 221.109375 206.28125 221.46875 206.683594 221.460938 207.085938 C 221.460938 207.5 221.085938 207.765625 220.632812 207.691406 C 208.183594 205.667969 185.050781 209.5 184.820312 209.535156 C 184.601562 209.570312 184.375 209.519531 184.183594 209.410156 Z M 184.183594 209.410156 " fill-opacity="1" fill-rule="nonzero"/><path fill="#a69bac" d="M 367.210938 244.300781 C 388.375 169.984375 357.21875 114.972656 306.582031 100.757812 C 306.785156 100.96875 306.976562 101.183594 307.175781 101.371094 C 348.304688 112.925781 379.113281 173.273438 348.445312 250.316406 C 317.777344 327.371094 237.886719 344.039062 200.363281 312.5 C 162.835938 280.960938 172.085938 258.117188 172.085938 258.117188 C 172.085938 258.117188 189.816406 252.445312 203.820312 253.203125 C 217.824219 253.957031 226.054688 243.195312 210.214844 243.015625 C 115.726562 238.5625 35.023438 314.546875 6.359375 345.335938 C 5.449219 347 4.515625 348.609375 3.625 350.320312 C 3.625 350.320312 90.324219 276.292969 165.558594 259.921875 C 160.734375 285.464844 195.832031 329.222656 240.386719 334.859375 C 284.933594 340.496094 345.371094 321.011719 367.210938 244.300781 Z M 367.210938 244.300781 " fill-opacity="0.4" fill-rule="nonzero"/></svg>