<?xml version="1.0" encoding="utf-8"?>
<!-- Generator: Adobe Illustrator 27.5.0, SVG Export Plug-In . SVG Version: 6.00 Build 0)  -->
<svg version="1.1" id="Capa_2" xmlns="http://www.w3.org/2000/svg" xmlns:xlink="http://www.w3.org/1999/xlink" x="0px" y="0px"
	 viewBox="0 0 2122 2122" style="enable-background:new 0 0 2122 2122;" xml:space="preserve">
<path style="fill:#83B729;" d="M1890.896,1125.904c-0.71-74.316-66.034-141.407-167.385-121.766
	c-14.159,2.744-27.853,7.459-40.687,13.603c-21.177,10.139-39.233,22.754-55.29,37.041c-24.618,21.905-44.535,47.738-63.793,74.593
	c-15.2,21.195-29.804,42.753-43.828,64.674c-8.076-39.303-21.525-77.62-39.674-113.54l-0.24-0.475
	c-0.515-1.017-1.032-2.032-1.555-3.044c-4.841-9.381-7.236-19.332-7.418-29.176c-0.019-1.036-0.014-2.071,0.016-3.104
	c0.03-1.033,0.083-2.064,0.162-3.093c0.039-0.514,0.084-1.027,0.135-1.54c0.101-1.025,0.228-2.047,0.377-3.065
	c0.149-1.018,0.322-2.032,0.518-3.042c0.196-1.009,0.416-2.014,0.658-3.013c0.607-2.498,1.357-4.961,2.246-7.377
	c0.356-0.966,0.734-1.925,1.135-2.876c0.2-0.475,0.406-0.948,0.616-1.419c5.491-12.248,14.688-23.023,26.994-30.591
	c26.666-16.398,50.741-37.085,70.976-60.885c0.88-1.035,1.752-2.075,2.617-3.122c7.786-9.418,14.978-19.305,21.497-29.59
	c0.724-1.143,1.441-2.29,2.148-3.443c2.477-4.034,4.851-8.127,7.118-12.274c0.324-0.593,0.646-1.186,0.965-1.781
	c0.958-1.784,1.897-3.579,2.815-5.382c0.613-1.203,1.216-2.41,1.81-3.621c0.594-1.211,1.18-2.427,1.756-3.646
	c0.288-0.61,0.574-1.22,0.858-1.832c0.566-1.223,1.125-2.451,1.672-3.682c0.275-0.616,0.547-1.232,0.816-1.85
	c0.54-1.235,1.07-2.474,1.589-3.718c0.52-1.243,1.03-2.49,1.532-3.74c1.504-3.752,2.921-7.537,4.25-11.353
	c0.222-0.636,0.441-1.273,0.657-1.911c1.516-4.464,2.91-8.969,4.177-13.511c0.544-1.947,1.064-3.9,1.561-5.86
	c0.466-1.837,0.909-3.68,1.333-5.528l0.167-0.732c0.27-1.196,0.533-2.393,0.787-3.593c0.139-0.661,0.275-1.322,0.409-1.983
	c0.159-0.787,0.313-1.575,0.466-2.364c0.723-3.768,1.36-7.556,1.907-11.362l0.077-0.536c0.45-3.189,0.839-6.389,1.163-9.601
	l0.041-0.405c0.128-1.286,0.246-2.574,0.353-3.865c0.288-3.484,0.503-6.971,0.648-10.46l0.009-0.217
	c0.141-3.494,0.212-6.99,0.212-10.484v-0.013c0-3.531-0.072-7.06-0.215-10.588c-0.036-0.882-0.076-1.763-0.121-2.645
	c-0.266-5.288-0.689-10.568-1.267-15.832c-0.193-1.755-0.402-3.508-0.628-5.259c-0.453-3.502-0.972-6.997-1.559-10.48
	c-0.879-5.227-1.906-10.43-3.078-15.602c-0.44-1.941-0.902-3.876-1.382-5.808c-0.316-1.277-0.643-2.552-0.978-3.825l-0.323-1.215
	c-0.408-1.527-0.828-3.052-1.261-4.572c-0.299-1.047-0.605-2.092-0.915-3.136c-0.638-2.143-1.3-4.279-1.986-6.407
	c-0.88-2.731-1.799-5.45-2.759-8.155c-0.592-1.668-1.198-3.332-1.821-4.99c-1.243-3.316-2.547-6.609-3.907-9.879
	c-0.34-0.817-0.685-1.633-1.031-2.448c-1.39-3.257-2.837-6.49-4.34-9.696c-0.376-0.801-0.755-1.601-1.139-2.399
	c-3.063-6.384-6.349-12.658-9.849-18.805c-0.458-0.806-0.922-1.609-1.388-2.409l-0.358-0.613c-0.348-0.595-0.698-1.189-1.049-1.782
	l-0.443-0.745c-0.357-0.599-0.717-1.195-1.078-1.79l-0.353-0.585c-0.454-0.744-0.911-1.486-1.37-2.226l-0.532-0.851
	c-0.295-0.471-0.59-0.941-0.886-1.409l-0.662-1.041l-0.759-1.182l-0.731-1.133l-0.59-0.898c-0.562-0.857-1.129-1.711-1.698-2.562
	l-0.381-0.568c-0.362-0.538-0.727-1.076-1.093-1.612l-0.241-0.353c-39.354-57.544-96.664-100.484-161.321-129.397
	c21.779-26.54,34.853-60.496,34.853-97.508c0-84.95-68.865-153.815-153.815-153.815c-84.949,0-153.814,68.865-153.814,153.815
	c0,17.318,2.862,33.968,8.14,49.502c-14.076-0.21-28.151-0.302-42.21-0.394c-8.856-0.058-17.719-0.116-26.582-0.144
	c5.161-15.38,7.958-31.845,7.958-48.963c0-84.95-68.865-153.815-153.815-153.815c-84.95,0-153.814,68.865-153.814,153.815
	c0,32.581,10.13,62.796,27.413,87.668c-53.31,20.644-102.591,50.467-142.913,90.836c-71.612,71.697-110.644,179.644-85.156,277.721
	c18.025,69.361,66.569,127.602,127.738,165.772c30.142,18.809,40.68,57.205,23.457,88.281
	c-36.439,65.754-49.196,145.094-43.701,220.856c0.095,1.301,0.199,2.593,0.308,3.879c-47.183-58.293-98.235-112.69-153.32-163.322
	c-24.283-22.319-48.974-43.533-77.32-60.096c-18.486-10.803-38.527-19.628-61.02-25.491c-13.632-3.554-27.777-5.571-41.941-5.605
	c-101.383-0.24-149.417,76.427-133.969,148.145c13.307,61.777,68.095,108.763,123.644,140.754
	c62.012,35.714,129.651,61.287,190.713,99.123c75.596,46.841,144.794,101.87,208.627,161.717
	c-6.148-0.495-12.384-0.427-18.224-0.031c-43.309,2.932-87.154,12.558-127.159,27.13c-11.405,4.154-37.1,15.556-49.355,27.005
	c-5.507-6.796-14.291-11.193-24.186-11.193c-16.676,0-30.195,12.49-30.195,27.898c0,15.408,13.519,27.899,30.195,27.899
	c14.588,0,26.759-9.558,29.579-22.266c2.797,0.973,6.132,1.863,10.064,2.655c37.775,7.609,76.79,9.058,114.691,4.45
	c-14.815,8.792-29.009,18.354-42.346,28.5c-9.184,6.987-28.894,24.301-37.216,38.463c-4.422-2.347-9.549-3.688-15.015-3.688
	c-16.676,0-30.196,12.49-30.196,27.898c0,15.408,13.519,27.898,30.196,27.898c16.676,0,30.195-12.49,30.195-27.898
	c0-1.07-0.067-2.125-0.195-3.163c2.215-0.019,4.653-0.146,7.331-0.391c43.434-3.973,85.749-15.866,123.779-34.568
	c-4.698,6.418-9.179,12.927-13.425,19.502c-6.555,10.152-20.209,35.337-21.426,51.287c-3.489-1.301-7.299-2.019-11.293-2.019
	c-16.676,0-30.195,12.49-30.195,27.898c0,15.408,13.519,27.898,30.195,27.898c16.676,0,30.195-12.491,30.195-27.898
	c0-4.471-1.141-8.696-3.164-12.442c3.646-0.71,8.024-2.14,13.243-4.426c53.182-23.295,99.195-59.514,131.715-103.677
	c3.428-3.998,6.301-8.188,8.679-12.529c7.521,9.147,15.242,18.355,23.17,27.664c-1.284,0.796-2.529,1.618-3.725,2.45
	c-23.631,16.437-45.118,37.188-62.609,59.695c-4.856,6.249-14.931,21.32-18.043,32.454c-4.155-2.275-9.191-2.935-14.076-1.43
	c-9.591,2.953-14.971,13.123-12.017,22.713c2.953,9.59,13.123,14.971,22.714,12.017c8.752-2.695,13.996-11.399,12.602-20.19
	c2.345-0.26,5.154-0.91,8.495-2.017c30.992-10.27,59.477-27.393,82.758-49.59c-1.001,20.314,0.164,40.85,3.297,60.545
	c1.181,7.423,4.955,23.719,10.472,33.804c-1.762,0.807-3.423,1.911-4.911,3.316c-7.295,6.89-7.624,18.39-0.734,25.685
	c6.89,7.296,18.391,7.624,25.686,0.734c7.296-6.89,7.624-18.391,0.734-25.685c-0.817-0.865-1.7-1.631-2.632-2.3
	c0.97-1.552,1.955-3.392,2.954-5.556c12.906-27.965,19.835-58.467,20.331-88.835c14.076,18.098,30.529,34.649,48.116,48.72
	c6.454,5.163,22.447,16.152,33.647,18.892c-3.785,7.581-1.839,17.026,5.102,22.433c7.917,6.166,19.333,4.748,25.5-3.169
	c6.167-7.917,4.748-19.333-3.169-25.5c-4.607-3.59-10.4-4.608-15.654-3.273c-0.234-2.332-0.842-5.124-1.889-8.443
	c-11.747-37.202-33.326-70.963-61.771-96.64c-6.75-6.093-14.163-11.885-22.879-14.047l-0.947-0.215
	c-17.621-37.144-31.928-67.368-44.48-94.344c33.295-6.499,66.258-14.481,98.738-23.919c3.023-0.878,6.048-1.77,9.078-2.654
	c3.637-1.06,7.282-2.107,10.94-3.103c3.657-0.996,7.326-1.94,11.013-2.794c2.457-0.569,4.922-1.098,7.395-1.575
	c0.618-0.119,1.237-0.235,1.857-0.348c1.857-0.338,3.721-0.645,5.59-0.917c4.36-0.633,8.75-1.072,13.177-1.255
	c4.214-0.174,8.392-0.124,12.538,0.12c2.961,0.174,5.906,0.447,8.835,0.806c1.758,0.216,3.51,0.463,5.256,0.739
	c2.329,0.368,4.649,0.788,6.96,1.253c0.578,0.116,1.155,0.235,1.732,0.357c3.46,0.731,6.901,1.562,10.325,2.472
	c0.571,0.152,1.141,0.306,1.711,0.461c1.14,0.312,2.277,0.633,3.413,0.961c0.569,0.164,1.136,0.33,1.703,0.498
	c2.836,0.84,5.661,1.726,8.477,2.646c1.689,0.552,3.376,1.117,5.059,1.692c5.611,1.916,11.187,3.944,16.74,5.992
	c0.556,0.205,1.111,0.41,1.666,0.615c2.219,0.821,4.435,1.643,6.648,2.461c0.553,0.205,1.106,0.409,1.659,0.613
	c5.529,2.039,11.041,4.045,16.546,5.924c1.713,0.585,3.419,1.154,5.121,1.704c2.268,0.735,4.527,1.439,6.778,2.109
	c1.125,0.334,2.249,0.661,3.37,0.978c8.41,2.38,16.712,4.254,24.967,5.442c5.479,0.788,10.937,1.274,16.391,1.406
	c-12.889,25.7-25.881,53.786-39.974,87.434c-8.099,1.984-15.279,6.987-21.898,12.287c-29.913,23.952-53.45,56.378-67.374,92.821
	c-1.242,3.251-2.013,6.002-2.384,8.317c-5.165-1.643-11.008-0.968-15.82,2.342c-8.267,5.688-10.357,17.001-4.669,25.268
	c5.688,8.267,17.001,10.358,25.268,4.67c7.249-4.988,9.749-14.301,6.419-22.093c11.343-2.073,27.957-12.098,34.704-16.871
	c18.389-13.007,35.791-28.558,50.911-45.792c-1.299,30.345,3.815,61.203,15.046,89.881c0.869,2.218,1.744,4.114,2.62,5.72
	c-0.969,0.613-1.896,1.325-2.762,2.14c-7.309,6.875-7.662,18.375-0.786,25.684c6.876,7.309,18.375,7.661,25.685,0.785
	c7.309-6.876,7.661-18.375,0.785-25.684c-1.401-1.49-2.995-2.69-4.706-3.6c6.104-9.742,10.834-25.786,12.451-33.126
	c4.292-19.476,6.669-39.906,6.87-60.245c21.929,23.534,49.351,42.311,79.683,54.394c3.27,1.303,6.036,2.117,8.362,2.516
	c-1.911,8.692,2.809,17.691,11.387,20.899c9.398,3.515,19.868-1.255,23.383-10.654c3.515-9.399-1.254-19.868-10.653-23.384
	c-4.788-1.791-9.854-1.43-14.136,0.596c-2.45-11.299-11.615-26.938-16.094-33.463c-16.13-23.501-36.354-45.485-58.972-63.29
	c-3.664-2.884-7.831-5.698-12.202-7.889c6.459-9.136,12.886-17.742,19.271-25.901c0.883,14.575,3.945,29.005,10.406,41.952
	c1.491,3.321,3.381,6.474,5.555,9.488c4.515,6.626,10.137,12.709,17.071,18.028c40.983,36.39,92.863,63.016,148.951,76.522
	c-2.889,5.483-3.961,11.966-2.599,18.507c3.112,14.948,17.752,24.543,32.7,21.431c14.948-3.112,24.542-17.752,21.431-32.7
	c-2.094-10.059-9.409-17.694-18.526-20.664c-4.985-15.621-24.101-37.805-32.88-46.588c-5.728-5.73-11.678-11.349-17.823-16.835
	c42.254,11.331,87.26,15.066,131.598,10.707c5.25-0.516,9.522-1.295,12.933-2.293c-0.336,2.871-0.199,5.839,0.475,8.818
	c3.472,15.331,19.809,25.171,36.489,21.98c16.68-3.192,27.387-18.206,23.914-33.537c-3.472-15.33-19.808-25.171-36.489-21.98
	c-6.068,1.161-11.343,3.887-15.435,7.623c-8.496-13.788-37.766-30.622-50.114-36.583c-15.627-7.544-31.978-14.341-48.779-20.254
	c38.949-2.669,77.645-11.576,113.715-26.377c5.578-2.289,9.792-4.542,12.839-6.745l0.212,1.045
	c3.472,15.331,19.81,25.172,36.489,21.98c16.679-3.192,27.387-18.207,23.914-33.537c-3.472-15.331-19.808-25.172-36.489-21.98
	c-9.81,1.877-17.553,7.845-21.562,15.562c-11.766-11.213-46.871-19.337-61.028-21.575c-43.298-6.843-89.322-8.031-133.302-2.659
	c-5.932,0.724-12.185,1.85-18.222,3.519c50.361-71.765,107.173-139.76,172.23-200.834c52.549-49.332,114.44-87.722,168.417-135.125
	C1847.297,1247.154,1891.508,1189.918,1890.896,1125.904z M1430.6,1674.497l0.718,0.941l-0.988,0.17L1430.6,1674.497z
	 M793.401,1638.208l0.498,1.02l-0.983,0.018L793.401,1638.208z"/>
<path style="fill:#F3F0A5;" d="M1394.101,1238.537c3.656-50.777,9.677-107.406,19.366-141.156
	c-23.91-36.751-54.689-69.443-91.905-95.161c-49.352-34.105-108.404-54.865-169.618-59.206
	c-62.525-4.434-125.436,8.412-181.058,35.261c-52.083,25.139-96.563,61.938-132.296,105.108
	c12.675,36.898,23.556,99.657,24.216,151.363c0.622,48.767,3.936,201.535,3.936,201.535
	c31.688,78.767,51.744,124.933,82.012,189.986c33.294-6.499,66.257-14.481,98.738-23.919c19.342-5.62,38.816-11.809,59.051-12.645
	c38.533-1.593,74.036,15.581,109.27,27.61c19.38,6.617,38.02,11.19,56.625,11.641c31.156-62.122,61.72-110.313,105.826-189.466
	C1378.263,1439.488,1390.599,1287.182,1394.101,1238.537z"/>
<path style="fill:#78AA2C;" d="M1890.897,1125.904c-0.71-74.316-66.034-141.407-167.386-121.765
	c-14.159,2.744-27.853,7.459-40.687,13.603c-21.177,10.139-39.233,22.754-55.29,37.041c-24.618,21.905-44.535,47.738-63.793,74.593
	c-15.2,21.195-29.804,42.753-43.828,64.674c9.502,46.244,11.565,93.852,5.093,140.526c2.495,27.934,3.714,58.553,2.651,91.049
	c-48.223,131.521-123.097,162.683-204.806,267.095c0.884,14.58,3.946,29.014,10.412,41.964c1.489,3.314,3.375,6.461,5.545,9.47
	c4.515,6.629,10.139,12.714,17.075,18.034c40.984,36.39,92.864,63.016,148.952,76.522c-2.889,5.483-3.961,11.966-2.599,18.507
	c3.112,14.948,17.752,24.543,32.7,21.431c14.948-3.112,24.542-17.752,21.431-32.7c-2.094-10.059-9.409-17.694-18.526-20.664
	c-4.985-15.621-24.101-37.806-32.88-46.588c-5.728-5.73-11.678-11.349-17.823-16.835c42.254,11.331,87.26,15.066,131.598,10.707
	c5.25-0.516,9.522-1.295,12.933-2.294c-0.336,2.872-0.199,5.839,0.475,8.819c3.473,15.331,19.809,25.171,36.489,21.98
	c16.68-3.192,27.387-18.207,23.914-33.537c-3.472-15.33-19.808-25.171-36.489-21.98c-6.068,1.161-11.343,3.888-15.434,7.623
	c-8.496-13.788-37.767-30.622-50.115-36.583c-15.626-7.544-31.977-14.341-48.778-20.254c38.948-2.669,77.646-11.576,113.714-26.377
	c5.578-2.289,9.792-4.542,12.839-6.745l0.212,1.045c3.473,15.331,19.809,25.172,36.489,21.98s27.387-18.207,23.914-33.537
	c-3.472-15.33-19.808-25.171-36.489-21.979c-9.81,1.877-17.553,7.845-21.562,15.561c-11.766-11.212-46.871-19.337-61.027-21.574
	c-43.298-6.843-89.323-8.031-133.302-2.66c-5.932,0.724-12.185,1.85-18.222,3.519c50.361-71.764,107.173-139.76,172.23-200.833
	c52.549-49.332,114.44-87.722,168.417-135.125C1847.297,1247.154,1891.509,1189.918,1890.897,1125.904z M1430.6,1674.497
	l0.718,0.941l-0.987,0.17L1430.6,1674.497z"/>
<path style="fill:#78AA2C;" d="M851.454,1643.892c-57.595-77.251-101.146-155.943-133.025-261.879
	c-0.244-1.724-0.481-3.43-0.714-5.128c-8.374-22.984-14.475-47.636-16.89-75.925c-47.182-58.293-98.235-112.69-153.319-163.322
	c-24.283-22.319-48.975-43.533-77.32-60.096c-18.486-10.803-38.527-19.627-61.02-25.49c-13.631-3.554-27.777-5.571-41.94-5.605
	c-101.383-0.24-149.417,76.427-133.969,148.145c13.308,61.777,68.096,108.763,123.644,140.754
	c62.012,35.713,129.651,61.287,190.714,99.123c75.597,46.841,144.794,101.87,208.627,161.718
	c-6.146-0.495-12.384-0.427-18.224-0.032c-43.309,2.932-87.154,12.558-127.159,27.13c-11.405,4.154-37.099,15.556-49.354,27.005
	c-5.507-6.795-14.291-11.193-24.186-11.193c-16.676,0-30.195,12.49-30.195,27.898c0,15.408,13.519,27.899,30.195,27.899
	c14.588,0,26.759-9.558,29.579-22.266c2.797,0.973,6.132,1.863,10.064,2.655c37.775,7.609,76.79,9.058,114.691,4.45
	c-14.816,8.792-29.01,18.354-42.346,28.5c-9.184,6.987-28.895,24.301-37.216,38.463c-4.422-2.347-9.549-3.688-15.015-3.688
	c-16.676,0-30.195,12.49-30.195,27.898c0,15.408,13.519,27.898,30.195,27.898c16.676,0,30.196-12.49,30.196-27.898
	c0-1.07-0.068-2.125-0.195-3.163c2.215-0.019,4.653-0.146,7.33-0.391c43.434-3.973,85.749-15.866,123.78-34.568
	c-4.698,6.417-9.18,12.927-13.425,19.502c-6.555,10.152-20.209,35.337-21.426,51.287c-3.488-1.301-7.299-2.019-11.292-2.019
	c-16.677,0-30.196,12.49-30.196,27.898c0,15.408,13.519,27.898,30.196,27.898c16.676,0,30.195-12.491,30.195-27.898
	c0-4.471-1.141-8.696-3.165-12.442c3.647-0.71,8.025-2.14,13.244-4.426c53.182-23.295,99.195-59.514,131.715-103.677
	c3.429-3.997,6.301-8.188,8.68-12.528l-0.179-0.217C878.109,1678.615,864.425,1661.289,851.454,1643.892z M793.401,1638.208
	l0.499,1.02l-0.982,0.018L793.401,1638.208z"/>
<ellipse transform="matrix(0.9742 -0.2259 0.2259 0.9742 -48.9633 222.4438)" style="fill:#FCF5B9;" cx="947.493" cy="325.169" rx="89.723" ry="89.723"/>
<ellipse transform="matrix(0.5071 -0.8619 0.8619 0.5071 364.3326 1287.4352)" style="fill:#FCF5B9;" cx="1307.816" cy="325.169" rx="89.723" ry="89.723"/>
<path style="fill:#55852F;" d="M1553.111,1254.874c-2.446,1.813-2.828,5.106-0.855,7.353c1.974,2.248,5.556,2.599,8.001,0.785
	c2.445-1.813,2.828-5.106,0.854-7.353C1559.137,1253.412,1555.556,1253.06,1553.111,1254.874z"/>
<path style="fill:#55852F;" d="M1753.543,1074.448c-6.822-2.063-14.172,1.348-16.417,7.618c-2.244,6.27,1.467,13.026,8.289,15.089
	c6.823,2.063,14.173-1.347,16.417-7.618C1764.077,1083.266,1760.366,1076.511,1753.543,1074.448z"/>
<path style="fill:#55852F;" d="M1626.127,1242.385c-6.823-2.063-14.173,1.348-16.417,7.618c-2.245,6.27,1.466,13.026,8.289,15.089
	c6.822,2.063,14.172-1.348,16.417-7.618C1636.66,1251.204,1632.949,1244.448,1626.127,1242.385z"/>
<path style="fill:#55852F;" d="M1671.681,1178.867c-6.822-2.063-14.173,1.348-16.417,7.618c-2.245,6.27,1.466,13.026,8.289,15.089
	c6.822,2.063,14.172-1.348,16.417-7.618C1682.215,1187.685,1678.504,1180.93,1671.681,1178.867z"/>
<path style="fill:#55852F;" d="M1574.855,1210.184c-7.124-2.154-14.799,1.407-17.143,7.954c-2.344,6.548,1.531,13.602,8.655,15.756
	c7.124,2.154,14.799-1.407,17.143-7.955S1581.979,1212.338,1574.855,1210.184z"/>
<path style="fill:#55852F;" d="M1669.601,1140.254c12.465,3.769,25.893-2.462,29.994-13.918
	c4.102-11.456-2.679-23.799-15.144-27.568c-12.464-3.77-25.893,2.462-29.994,13.918
	C1650.356,1124.142,1657.136,1136.485,1669.601,1140.254z"/>
<path style="fill:#55852F;" d="M1603.348,1275.501c-8.942-2.704-18.575,1.766-21.517,9.984c-2.942,8.219,1.922,17.072,10.863,19.776
	c8.941,2.703,18.575-1.767,21.516-9.985C1617.153,1287.058,1612.289,1278.205,1603.348,1275.501z"/>
<path style="fill:#55852F;" d="M1600.122,1211.067c12.12,3.665,25.178-2.394,29.165-13.534c3.988-11.139-2.605-23.141-14.725-26.806
	c-12.12-3.665-25.178,2.394-29.166,13.534C1581.409,1195.4,1588.001,1207.401,1600.122,1211.067z"/>
<path style="fill:#55852F;" d="M1804.506,1087.067c-12.12-3.666-25.178,2.394-29.166,13.534s2.605,23.141,14.725,26.806
	c12.12,3.665,25.178-2.394,29.166-13.533C1823.219,1102.733,1816.626,1090.732,1804.506,1087.067z"/>
<path style="fill:#55852F;" d="M1674.482,1231.112c-8.942-2.704-18.575,1.766-21.517,9.984c-2.942,8.218,1.921,17.072,10.863,19.776
	c8.941,2.704,18.575-1.766,21.516-9.984C1688.287,1242.669,1683.424,1233.816,1674.482,1231.112z"/>
<path style="fill:#55852F;" d="M1702.955,1197.782c-4.729-1.43-9.824,0.934-11.38,5.281c-1.556,4.346,1.016,9.029,5.745,10.459
	c4.729,1.43,9.824-0.934,11.38-5.28C1710.257,1203.895,1707.684,1199.212,1702.955,1197.782z"/>
<path style="fill:#55852F;" d="M1588.983,1258.261c-0.717,2.003,0.469,4.161,2.648,4.82c2.18,0.659,4.528-0.431,5.244-2.434
	c0.717-2.003-0.468-4.161-2.647-4.82C1592.049,1255.168,1589.701,1256.258,1588.983,1258.261z"/>
<path style="fill:#55852F;" d="M1648.084,1218.711c-3.411-1.031-7.086,0.674-8.209,3.809c-1.122,3.136,0.733,6.513,4.144,7.544
	c3.411,1.032,7.086-0.674,8.209-3.809C1653.351,1223.12,1651.495,1219.743,1648.084,1218.711z"/>
<path style="fill:#55852F;" d="M1754.457,1128.226c1.122-3.135-0.733-6.513-4.144-7.544c-3.411-1.031-7.086,0.674-8.208,3.809
	c-1.122,3.135,0.733,6.513,4.144,7.544C1749.659,1133.067,1753.334,1131.362,1754.457,1128.226z"/>
<path style="fill:#55852F;" d="M1824.769,1034.131c-7.4-2.238-15.372,1.462-17.806,8.262c-2.435,6.802,1.59,14.129,8.99,16.367
	c7.4,2.238,15.372-1.462,17.807-8.263C1836.194,1043.696,1832.169,1036.369,1824.769,1034.131z"/>
<path style="fill:#55852F;" d="M1720.745,1066.24c1.123-3.135-0.733-6.513-4.144-7.544c-3.411-1.032-7.086,0.674-8.208,3.809
	c-1.122,3.135,0.733,6.513,4.144,7.544C1715.947,1071.081,1719.623,1069.375,1720.745,1066.24z"/>
<path style="fill:#55852F;" d="M1754.364,1160.453c-5.427-1.641-11.274,1.072-13.059,6.06c-1.786,4.988,1.166,10.362,6.593,12.003
	c5.427,1.641,11.273-1.072,13.059-6.06C1762.743,1167.467,1759.791,1162.093,1754.364,1160.453z"/>
<path style="fill:#55852F;" d="M1698.028,1165.831c1.123-3.135-0.733-6.513-4.144-7.544c-3.411-1.031-7.085,0.674-8.208,3.809
	c-1.122,3.135,0.733,6.513,4.144,7.544C1693.231,1170.672,1696.906,1168.966,1698.028,1165.831z"/>
<path style="fill:#55852F;" d="M1724.814,1108.001c1.122-3.135-0.733-6.513-4.144-7.545c-3.411-1.031-7.086,0.674-8.208,3.809
	c-1.123,3.136,0.733,6.513,4.144,7.544C1720.017,1112.841,1723.692,1111.136,1724.814,1108.001z"/>
<path style="fill:#55852F;" d="M1782.656,1065.312c3.411,1.032,7.087-0.673,8.209-3.809c1.123-3.135-0.733-6.513-4.144-7.544
	c-3.411-1.032-7.086,0.673-8.208,3.809C1777.39,1060.902,1779.245,1064.28,1782.656,1065.312z"/>
<path style="fill:#55852F;" d="M1643.465,1163.431c4.755,1.438,9.878-0.939,11.443-5.309c1.564-4.37-1.022-9.079-5.777-10.517
	c-4.755-1.438-9.877,0.939-11.442,5.31C1636.124,1157.285,1638.71,1161.993,1643.465,1163.431z"/>
<path style="fill:#55852F;" d="M1723.243,1134.107c-3.411-1.031-7.086,0.673-8.208,3.809c-1.122,3.135,0.733,6.513,4.144,7.544
	c3.411,1.032,7.086-0.674,8.208-3.809C1728.51,1138.516,1726.654,1135.139,1723.243,1134.107z"/>
<path style="fill:#55852F;" d="M1721.062,1173.71c-1.706-0.516-3.543,0.337-4.104,1.904c-0.562,1.568,0.366,3.257,2.072,3.772
	c1.706,0.516,3.543-0.337,4.104-1.904C1723.696,1175.915,1722.768,1174.226,1721.062,1173.71z"/>
<path style="fill:#55852F;" d="M1746.162,1040.931c1.705,0.515,3.543-0.337,4.104-1.905c0.561-1.568-0.367-3.256-2.072-3.772
	c-1.706-0.516-3.543,0.337-4.104,1.904C1743.528,1038.726,1744.456,1040.415,1746.162,1040.931z"/>
<path style="fill:#55852F;" d="M1697.112,1095.464c1.706,0.516,3.543-0.337,4.104-1.905c0.561-1.568-0.367-3.256-2.072-3.772
	c-1.706-0.516-3.543,0.337-4.104,1.905C1694.478,1093.26,1695.406,1094.949,1697.112,1095.464z"/>
<path style="fill:#55852F;" d="M1556.745,1291.244c-1.706-0.515-3.543,0.337-4.104,1.905c-0.561,1.568,0.367,3.256,2.073,3.772
	c1.705,0.516,3.543-0.337,4.104-1.904C1559.379,1293.449,1558.45,1291.76,1556.745,1291.244z"/>
<path style="fill:#55852F;" d="M1597.771,1223.96c-0.794,2.217,0.518,4.605,2.93,5.334c2.412,0.729,5.01-0.476,5.804-2.693
	c0.794-2.217-0.518-4.605-2.93-5.335C1601.163,1220.538,1598.564,1221.744,1597.771,1223.96z"/>
<path style="fill:#55852F;" d="M1625.716,1128.512c2.464,0.745,5.118-0.487,5.928-2.751c0.811-2.265-0.529-4.704-2.992-5.449
	c-2.464-0.745-5.118,0.486-5.929,2.751S1623.252,1127.767,1625.716,1128.512z"/>
<path style="fill:#55852F;" d="M1615.755,1157.4c3.411,1.031,7.086-0.674,8.208-3.809c1.123-3.135-0.733-6.513-4.144-7.544
	c-3.411-1.032-7.086,0.673-8.208,3.809C1610.488,1152.991,1612.344,1156.369,1615.755,1157.4z"/>
<path style="fill:#55852F;" d="M611.055,1251.545c-2.737-1.296-6.093-0.297-7.495,2.231c-1.403,2.528-0.322,5.629,2.414,6.926
	c2.737,1.297,6.094,0.298,7.497-2.231C614.874,1255.943,613.792,1252.842,611.055,1251.545z"/>
<path style="fill:#55852F;" d="M397.217,1118.997c-3.512-5.627-11.296-7.557-17.386-4.313c-6.089,3.245-8.179,10.436-4.667,16.063
	c3.511,5.627,11.295,7.557,17.385,4.313C398.638,1131.815,400.728,1124.624,397.217,1118.997z"/>
<path style="fill:#55852F;" d="M538.378,1252.973c-6.09,3.244-8.18,10.436-4.668,16.063c3.512,5.627,11.296,7.557,17.385,4.313
	c6.089-3.245,8.18-10.436,4.667-16.063C552.251,1251.659,544.467,1249.728,538.378,1252.973z"/>
<path style="fill:#55852F;" d="M493.657,1220.557c6.09-3.245,8.179-10.437,4.668-16.063c-3.512-5.627-11.296-7.557-17.386-4.313
	c-6.09,3.244-8.179,10.436-4.667,16.063C479.784,1221.872,487.566,1223.802,493.657,1220.557z"/>
<path style="fill:#55852F;" d="M580.519,1212.504c-6.359,3.388-8.541,10.897-4.874,16.773c3.667,5.875,11.795,7.891,18.154,4.503
	c6.358-3.388,8.541-10.897,4.874-16.773C595.006,1211.132,586.878,1209.115,580.519,1212.504z"/>
<path style="fill:#55852F;" d="M483.08,1133.257c-6.416-10.28-20.637-13.807-31.763-7.879c-11.126,5.928-14.944,19.067-8.528,29.346
	c6.416,10.28,20.637,13.808,31.763,7.879C485.678,1156.675,489.496,1143.537,483.08,1133.257z"/>
<path style="fill:#55852F;" d="M567.393,1280.674c-7.981,4.253-10.72,13.678-6.118,21.052c4.603,7.374,14.804,9.904,22.785,5.652
	c7.981-4.252,10.72-13.677,6.118-21.052C585.576,1278.952,575.374,1276.421,567.393,1280.674z"/>
<path style="fill:#55852F;" d="M556.499,1218.011c10.819-5.764,14.531-18.54,8.292-28.535c-6.239-9.996-20.066-13.426-30.885-7.662
	c-10.819,5.764-14.531,18.54-8.293,28.536C531.853,1220.345,545.68,1223.775,556.499,1218.011z"/>
<path style="fill:#55852F;" d="M333.736,1136.233c-10.819,5.764-14.531,18.54-8.292,28.536c6.238,9.995,20.067,13.426,30.885,7.661
	c10.818-5.764,14.531-18.54,8.292-28.536C358.382,1133.899,344.554,1130.469,333.736,1136.233z"/>
<path style="fill:#55852F;" d="M489.594,1251.025c-7.981,4.253-10.72,13.678-6.117,21.052c4.602,7.374,14.804,9.905,22.785,5.652
	c7.981-4.253,10.72-13.677,6.117-21.052C507.777,1249.303,497.576,1246.773,489.594,1251.025z"/>
<path style="fill:#55852F;" d="M455.076,1224.167c-4.221,2.249-5.67,7.234-3.235,11.135c2.434,3.9,7.83,5.239,12.051,2.989
	c4.222-2.25,5.67-7.234,3.236-11.135C464.693,1223.256,459.298,1221.918,455.076,1224.167z"/>
<path style="fill:#55852F;" d="M575.924,1266.551c1.946-1.036,2.614-3.334,1.492-5.131c-1.122-1.798-3.609-2.414-5.554-1.377
	c-1.945,1.037-2.613,3.334-1.491,5.131C571.492,1266.97,573.979,1267.588,575.924,1266.551z"/>
<path style="fill:#55852F;" d="M512.199,1234.214c-3.045,1.622-4.09,5.218-2.334,8.031c1.756,2.813,5.648,3.779,8.692,2.156
	c3.045-1.622,4.09-5.218,2.334-8.031C519.136,1233.557,515.244,1232.592,512.199,1234.214z"/>
<path style="fill:#55852F;" d="M399.322,1168.814c3.045-1.622,4.09-5.218,2.333-8.031c-1.756-2.813-5.648-3.779-8.692-2.156
	c-3.045,1.622-4.09,5.218-2.334,8.031C392.385,1169.471,396.276,1170.436,399.322,1168.814z"/>
<path style="fill:#55852F;" d="M321.686,1093.653c-3.809-6.103-12.251-8.197-18.856-4.678c-6.605,3.52-8.872,11.32-5.063,17.423
	c3.809,6.103,12.251,8.196,18.856,4.677C323.229,1107.556,325.495,1099.756,321.686,1093.653z"/>
<path style="fill:#55852F;" d="M418.172,1102.89c3.045-1.622,4.09-5.218,2.334-8.031c-1.756-2.813-5.647-3.779-8.692-2.156
	c-3.045,1.622-4.09,5.218-2.334,8.031C411.235,1103.547,415.127,1104.512,418.172,1102.89z"/>
<path style="fill:#55852F;" d="M397.712,1197.683c-4.844,2.581-6.507,8.302-3.713,12.777c2.793,4.476,8.985,6.011,13.829,3.43
	c4.844-2.581,6.507-8.301,3.713-12.777C408.748,1196.638,402.556,1195.102,397.712,1197.683z"/>
<path style="fill:#55852F;" d="M461.556,1194.637c3.044-1.623,4.09-5.218,2.334-8.031c-1.756-2.813-5.648-3.779-8.692-2.156
	c-3.045,1.622-4.09,5.218-2.334,8.031C454.619,1195.294,458.51,1196.26,461.556,1194.637z"/>
<path style="fill:#55852F;" d="M423.337,1143.867c3.044-1.622,4.089-5.218,2.333-8.031c-1.756-2.813-5.648-3.779-8.693-2.156
	c-3.044,1.622-4.09,5.218-2.334,8.031C416.4,1144.524,420.291,1145.489,423.337,1143.867z"/>
<path style="fill:#55852F;" d="M349.951,1111.25c3.044-1.622,4.09-5.218,2.334-8.031c-1.757-2.813-5.648-3.779-8.693-2.156
	c-3.044,1.622-4.09,5.218-2.333,8.031C343.014,1111.907,346.906,1112.872,349.951,1111.25z"/>
<path style="fill:#55852F;" d="M504.626,1180.113c4.245-2.261,5.701-7.273,3.253-11.195c-2.448-3.922-7.873-5.267-12.117-3.005
	c-4.244,2.261-5.701,7.274-3.253,11.195S500.382,1182.374,504.626,1180.113z"/>
<path style="fill:#55852F;" d="M430.508,1168.725c-1.757-2.813-5.648-3.779-8.693-2.156c-3.044,1.622-4.09,5.218-2.334,8.031
	c1.757,2.813,5.648,3.779,8.693,2.156C431.219,1175.134,432.264,1171.539,430.508,1168.725z"/>
<path style="fill:#55852F;" d="M432.5,1204.316c-1.522,0.811-2.045,2.609-1.167,4.016c0.878,1.407,2.824,1.889,4.346,1.078
	c1.522-0.811,2.044-2.609,1.167-4.016C435.968,1203.987,434.023,1203.504,432.5,1204.316z"/>
<path style="fill:#55852F;" d="M379.631,1081.038c1.523-0.811,2.045-2.609,1.167-4.016c-0.878-1.406-2.824-1.889-4.346-1.078
	c-1.523,0.811-2.045,2.609-1.167,4.016C376.162,1081.366,378.108,1081.849,379.631,1081.038z"/>
<path style="fill:#55852F;" d="M439.635,1120.513c-0.878-1.406-2.824-1.889-4.346-1.078c-1.523,0.811-2.045,2.609-1.167,4.016
	c0.878,1.406,2.824,1.889,4.346,1.078C439.991,1123.718,440.513,1121.92,439.635,1120.513z"/>
<path style="fill:#55852F;" d="M615.467,1287.25c-1.523,0.811-2.046,2.609-1.167,4.016c0.878,1.406,2.824,1.889,4.346,1.078
	c1.522-0.811,2.044-2.609,1.167-4.016C618.935,1286.922,616.989,1286.439,615.467,1287.25z"/>
<path style="fill:#55852F;" d="M561.551,1229.998c-1.242-1.989-3.993-2.672-6.146-1.525c-2.153,1.147-2.892,3.689-1.65,5.678
	c1.242,1.99,3.993,2.672,6.146,1.525C562.054,1234.53,562.793,1231.987,561.551,1229.998z"/>
<path style="fill:#55852F;" d="M514.056,1143.204c2.199-1.172,2.953-3.769,1.685-5.801s-4.079-2.729-6.278-1.557
	c-2.199,1.171-2.954,3.768-1.686,5.8C509.046,1143.679,511.857,1144.376,514.056,1143.204z"/>
<path style="fill:#55852F;" d="M529.871,1169.196c3.045-1.622,4.09-5.218,2.334-8.031c-1.756-2.813-5.648-3.778-8.692-2.156
	c-3.045,1.622-4.09,5.218-2.334,8.032C522.934,1169.853,526.826,1170.818,529.871,1169.196z"/>
<path style="fill:#7CAE2A;" d="M1503.118,507.067c11.434,10.692,22.028,22.382,31.532,35.242
	c34.188,46.258,54.048,102.586,55.958,160.094c0.024,0.729,0.043,1.457,0.061,2.185c7.336,9.71,11.701,21.719,12.28,34.218
	c0.106,2.294-0.095,7.845-2.764,9.059c-2.751,1.251-3.531-3.768-3.609-5.448c-0.032-0.686-0.068-1.372-0.125-2.057l-0.139-1.284
	c-0.149-1.01-0.325-2.015-0.535-3.014c-0.45-2.139-0.988-3.91-1.914-6.336c-0.93-2.437-2.076-4.78-3.396-7.024
	c-2.476,52.785-21.413,103.313-54.11,145.302c-34.317,44.07-81.497,74.488-135.652,86.069c16.261,11.008,26.313,31.46,35.965,47.838
	c16.864,28.613,33.265,57.592,46.854,87.931c13.026,29.083,23.505,59.43,32.627,89.944c0.908,3.037,1.714,6.099,2.585,9.144
	c-7.919-36.344-20.345-71.804-36.898-105.227l-0.042-0.086c-0.506-1.021-1.017-2.041-1.531-3.059l-0.301-0.595
	c-0.503-0.993-1.009-1.984-1.52-2.974c-6.115-11.85-8.327-24.609-7.104-36.912c0.102-1.025,0.228-2.047,0.377-3.065
	c0.896-6.108,2.64-12.074,5.174-17.727c0.423-0.942,0.867-1.876,1.333-2.8c0.466-0.924,0.954-1.839,1.463-2.742
	c3.149-5.594,7.117-10.794,11.841-15.414c0.525-0.513,1.059-1.019,1.601-1.518c0.543-0.499,1.097-0.99,1.658-1.473l0.849-0.719
	c2.568-2.141,5.32-4.124,8.249-5.924c2.905-1.786,5.778-3.622,8.62-5.508c0.946-0.629,1.89-1.263,2.83-1.902
	c1.88-1.279,3.745-2.58,5.595-3.902c1.849-1.322,3.684-2.666,5.503-4.03c2.425-1.82,4.823-3.675,7.193-5.567
	c1.496-1.195,2.98-2.404,4.454-3.627c0.982-0.816,1.959-1.637,2.93-2.466c1.943-1.656,3.864-3.336,5.764-5.041
	c0.949-0.853,1.894-1.711,2.833-2.575c0.939-0.865,1.871-1.735,2.799-2.611c1.484-1.401,2.953-2.818,4.408-4.25
	c1.454-1.431,2.895-2.878,4.319-4.338c0.475-0.487,0.948-0.975,1.42-1.465c2.829-2.94,5.597-5.936,8.301-8.987
	c0.901-1.017,1.796-2.04,2.683-3.069c1.331-1.544,2.645-3.1,3.942-4.67c0.866-1.046,1.723-2.098,2.573-3.156
	c1.276-1.587,2.535-3.187,3.776-4.799c1.242-1.612,2.467-3.237,3.674-4.874c1.207-1.637,2.396-3.285,3.567-4.946
	c0.782-1.107,1.555-2.22,2.32-3.338c4.974-7.264,9.608-14.747,13.875-22.42c1.97-3.542,3.861-7.124,5.672-10.745
	c0.301-0.603,0.6-1.208,0.897-1.813c13.968-28.461,22.936-59.237,25.571-91.071c1.896-22.909,0.652-45.976-3.371-68.589
	c-0.155-0.87-0.313-1.739-0.476-2.607c-1.955-10.42-4.499-20.738-7.597-30.895c-0.258-0.847-0.52-1.692-0.786-2.536
	c-6.379-20.257-14.96-39.847-25.46-58.287c-0.466-0.818-0.937-1.632-1.409-2.445l-0.298-0.51c-0.371-0.636-0.745-1.27-1.12-1.902
	l-0.387-0.651c-0.389-0.651-0.781-1.301-1.174-1.949l-0.264-0.438c-0.466-0.764-0.935-1.526-1.407-2.285l-0.46-0.735
	c-0.321-0.514-0.644-1.027-0.967-1.539l-0.604-0.951l-0.841-1.309l-0.661-1.023l-0.76-1.159c-0.512-0.779-1.027-1.556-1.545-2.329
	l-0.381-0.568c-0.358-0.532-0.717-1.063-1.079-1.592l-0.278-0.407c-0.684-1.001-1.376-1.997-2.071-2.988l-0.402-0.57
	c-0.585-0.829-1.172-1.656-1.764-2.479l-0.36-0.498c-0.624-0.864-1.251-1.724-1.882-2.581l-0.248-0.335
	c-0.669-0.905-1.343-1.805-2.02-2.703l-0.188-0.246c-0.63-0.831-1.263-1.661-1.901-2.486l-0.108-0.138
	c-0.648-0.838-1.301-1.673-1.957-2.505l-0.125-0.158C1554.518,549.156,1530.154,526.494,1503.118,507.067z"/>
<path style="fill:#E5E58A;" d="M1008.981,1494.635c19.928-15.05,41.885-28.088,68.44-27.672
	c32.855,0.513,63.755,12.536,95.82,17.736c27.325,4.431,54.041,1.712,79.676-8.112c20.141-7.718,38.383-19.584,53.52-34.174
	c31.028-29.905,49.671-69.322,60.447-109.309c10.911-40.49,14.544-82.613,11.68-124.25c-3.9-56.691-15.917-113.91-40.841-165.951
	c-7.919-16.533-17.246-33.452-28.554-48.792c3.584,2.245,7.14,4.534,10.637,6.907l-0.683-0.468l-0.132-0.088
	c-12.282-8.312-25.162-15.784-38.499-22.416c2.081,3.836,4.108,7.693,6.035,11.584c26.97,54.434,41.617,115.634,41.875,175.627
	c0.131,30.281-3.877,60.717-13.368,89.72c-7.216,22.05-18.623,42.831-31.921,62.201c-23.506,34.236-62.624,76.226-111.437,65.842
	c-20.638-4.391-36.076-18.126-52.438-29.715c-8.198-5.805-16.865-11.136-26.738-14.069c-11.675-3.467-23.969-2.779-35.642,0.336
	c-26.337,7.027-48.692,22.896-74.54,31.09c-25.365,8.041-53.042,6.912-76.954-4.804c-16.916-8.288-30.215-20.946-40.837-35.813
	c1.071,53.43,2.216,106.235,2.216,106.235c16.311,40.544,29.541,72.449,42.666,102.74c13.376,0.017,26.741-2.073,39.406-6.41
	C971.872,1524.714,990.194,1508.824,1008.981,1494.635z"/>
<path style="fill:#E1DE7C;" d="M1394.101,1238.537c3.656-50.777,9.677-107.406,19.366-141.156c-0.954-1.467-1.918-2.929-2.894-4.383
	c-10.064-14.986-21.288-29.265-33.641-42.634c-0.686-0.743-1.377-1.483-2.07-2.22c-8.319-8.845-17.14-17.281-26.453-25.247
	c-0.776-0.664-1.556-1.325-2.338-1.982c-3.915-3.287-7.916-6.491-12-9.608c-4.084-3.117-8.254-6.148-12.508-9.087
	c-0.547-0.378-1.096-0.754-1.646-1.128l-0.111-0.074c-3.496-2.373-7.053-4.662-10.637-6.907
	c11.309,15.339,20.636,32.258,28.554,48.792c24.924,52.041,36.941,109.26,40.841,165.951c2.864,41.636-0.769,83.76-11.68,124.25
	c-10.776,39.988-29.419,79.404-60.447,109.309c-15.138,14.59-33.38,26.456-53.52,34.174c-25.635,9.824-52.35,12.543-79.676,8.112
	c-32.064-5.199-62.964-17.223-95.82-17.736c-26.555-0.416-48.512,12.622-68.44,27.672c-18.787,14.189-37.108,30.079-60.167,37.975
	c-12.666,4.337-26.031,6.427-39.406,6.41c12.375,28.556,24.659,55.678,39.346,87.246c33.295-6.499,66.258-14.481,98.738-23.918
	c4.836-1.405,9.679-2.846,14.541-4.229c1.215-0.346,2.432-0.688,3.65-1.026c4.872-1.349,9.764-2.618,14.686-3.715
	c1.231-0.274,2.463-0.538,3.698-0.789c4.938-1.005,9.908-1.814,14.922-2.334c2.507-0.26,5.024-0.448,7.554-0.553
	c7.758-0.32,15.393,0.12,22.929,1.126c0.74,0.099,1.48,0.203,2.219,0.313c0.982,0.146,1.962,0.301,2.942,0.465l0.59,0.1
	c0.952,0.163,1.903,0.334,2.853,0.513c0.806,0.152,1.61,0.31,2.414,0.474c1.483,0.301,2.962,0.622,4.438,0.959
	c1.003,0.229,2.003,0.466,3.002,0.71c1,0.245,1.998,0.496,2.995,0.755c1.973,0.512,3.941,1.052,5.903,1.615
	c2.044,0.586,4.083,1.198,6.117,1.831c0.773,0.241,1.547,0.484,2.319,0.731c1.497,0.478,2.991,0.967,4.482,1.465
	c0.746,0.248,1.491,0.499,2.235,0.752l1.15,0.393c0.734,0.252,1.467,0.505,2.2,0.761c0.954,0.332,1.906,0.667,2.858,1.004
	c0.72,0.255,1.438,0.511,2.157,0.769l1.202,0.432c0.712,0.256,1.423,0.514,2.134,0.772c0.963,0.35,1.926,0.701,2.889,1.054
	c0.704,0.258,1.406,0.516,2.109,0.775c1.615,0.595,3.229,1.192,4.841,1.789l1.811,0.671c2.622,0.971,5.24,1.939,7.855,2.895
	c0.608,0.222,1.216,0.443,1.824,0.664c1.241,0.451,2.481,0.898,3.721,1.342l0.949,0.338c0.779,0.276,1.557,0.552,2.335,0.825
	l0.995,0.347c0.934,0.326,1.867,0.649,2.801,0.967c1.615,0.551,3.225,1.089,4.83,1.611c2.676,0.87,5.338,1.697,7.99,2.476
	c1.414,0.415,2.824,0.816,4.233,1.203c1.609,0.443,3.214,0.866,4.816,1.268c1.602,0.403,3.2,0.785,4.796,1.146
	c3.989,0.902,7.959,1.67,11.918,2.283c1.102,0.171,2.202,0.329,3.301,0.475c0.551,0.073,1.1,0.143,1.649,0.21
	c1.649,0.201,3.296,0.373,4.941,0.515c0.549,0.047,1.098,0.091,1.646,0.132c1.098,0.081,2.194,0.149,3.29,0.203
	c0.548,0.028,1.096,0.051,1.644,0.071c0.524,0.019,1.048,0.034,1.571,0.047c31.156-62.122,61.72-110.313,105.826-189.466
	C1378.263,1439.488,1390.599,1287.182,1394.101,1238.537z"/>
<path style="fill:#FFF9CD;" d="M893.455,1124.681c2.643-0.83,4.037-3.519,3.113-6.007c-0.924-2.488-3.816-3.832-6.459-3.002
	c-2.643,0.83-4.036,3.52-3.113,6.007C887.92,1124.167,890.812,1125.511,893.455,1124.681z"/>
<path style="fill:#FFF9CD;" d="M1102.895,1037.569c5.054,3.745,12.334,2.987,16.261-1.693c3.927-4.68,3.013-11.511-2.041-15.256
	c-5.054-3.746-12.334-2.987-16.261,1.693C1096.927,1026.993,1097.841,1033.823,1102.895,1037.569z"/>
<path style="fill:#FFF9CD;" d="M955.461,1126.344c-5.054-3.746-12.334-2.987-16.261,1.693c-3.927,4.681-3.013,11.511,2.04,15.257
	c5.054,3.746,12.334,2.987,16.261-1.693C961.429,1136.921,960.515,1130.09,955.461,1126.344z"/>
<path style="fill:#FFF9CD;" d="M998.127,1087.279c-3.926,4.681-3.013,11.511,2.042,15.257c5.054,3.746,12.334,2.988,16.261-1.693
	c3.926-4.681,3.013-11.511-2.042-15.257C1009.334,1081.841,1002.054,1082.599,998.127,1087.279z"/>
<path style="fill:#FFF9CD;" d="M908.07,1101.688c5.277,3.911,12.879,3.12,16.98-1.768c4.1-4.888,3.146-12.02-2.131-15.931
	c-5.277-3.911-12.88-3.119-16.98,1.768C901.839,1090.644,902.793,1097.777,908.07,1101.688z"/>
<path style="fill:#FFF9CD;" d="M1025.222,1052.125c9.234,6.843,22.535,5.458,29.709-3.093c7.174-8.551,5.504-21.031-3.729-27.874
	c-9.234-6.844-22.535-5.458-29.709,3.093C1014.319,1032.802,1015.988,1045.282,1025.222,1052.125z"/>
<path style="fill:#FFF9CD;" d="M906.917,1170.091c6.623,4.909,16.165,3.915,21.312-2.219c5.146-6.134,3.948-15.087-2.675-19.996
	c-6.624-4.909-16.166-3.915-21.312,2.219C899.096,1156.23,900.293,1165.183,906.917,1170.091z"/>
<path style="fill:#FFF9CD;" d="M943.838,1092.111c8.978,6.654,21.912,5.307,28.888-3.008c6.977-8.315,5.353-20.45-3.626-27.104
	c-8.979-6.654-21.912-5.307-28.888,3.008C933.235,1073.322,934.859,1085.456,943.838,1092.111z"/>
<path style="fill:#FFF9CD;" d="M978.408,1133.077c-5.147,6.134-3.949,15.087,2.675,19.995c6.624,4.909,16.165,3.915,21.312-2.219
	c5.147-6.135,3.949-15.087-2.675-19.996C993.095,1125.949,983.553,1126.942,978.408,1133.077z"/>
<path style="fill:#FFF9CD;" d="M1034.475,1110.804c-3.503-2.596-8.55-2.071-11.272,1.173c-2.721,3.245-2.088,7.98,1.415,10.576
	c3.504,2.596,8.55,2.071,11.272-1.174C1038.612,1118.136,1037.979,1113.401,1034.475,1110.804z"/>
<path style="fill:#FFF9CD;" d="M924.309,1128.477c-1.614-1.196-3.94-0.954-5.194,0.541c-1.254,1.495-0.962,3.677,0.652,4.873
	c1.615,1.197,3.94,0.954,5.195-0.541C926.215,1131.855,925.924,1129.674,924.309,1128.477z"/>
<path style="fill:#FFF9CD;" d="M981.602,1112.606c-2.526-1.873-6.167-1.494-8.13,0.847c-1.964,2.34-1.507,5.755,1.021,7.628
	c2.527,1.873,6.167,1.494,8.13-0.847C984.587,1117.894,984.129,1114.479,981.602,1112.606z"/>
<path style="fill:#FFF9CD;" d="M1100.01,1075.675c-5.482-4.062-13.378-3.24-17.637,1.836c-4.259,5.077-3.268,12.486,2.214,16.548
	c5.482,4.063,13.379,3.24,17.638-1.836C1106.484,1087.147,1105.493,1079.738,1100.01,1075.675z"/>
<path style="fill:#FFF9CD;" d="M1084.129,1004.914c2.527,1.872,6.167,1.493,8.131-0.847c1.963-2.34,1.506-5.756-1.021-7.629
	c-2.527-1.872-6.167-1.494-8.131,0.847C1081.145,999.626,1081.602,1003.041,1084.129,1004.914z"/>
<path style="fill:#FFF9CD;" d="M1039.729,1074.552c-2.527-1.872-6.167-1.494-8.131,0.847c-1.963,2.34-1.506,5.755,1.021,7.629
	c2.527,1.872,6.167,1.494,8.131-0.847C1042.712,1079.84,1042.255,1076.425,1039.729,1074.552z"/>
<path style="fill:#FFF9CD;" d="M1073.94,1041.634c2.527,1.872,6.167,1.494,8.131-0.847c1.963-2.34,1.507-5.755-1.021-7.629
	c-2.527-1.872-6.167-1.493-8.13,0.847C1070.956,1036.346,1071.413,1039.761,1073.94,1041.634z"/>
<path style="fill:#FFF9CD;" d="M1144.526,1021.338c2.527,1.873,6.167,1.494,8.131-0.847c1.963-2.34,1.506-5.756-1.021-7.628
	c-2.527-1.873-6.167-1.494-8.13,0.846C1141.543,1016.049,1141.999,1019.465,1144.526,1021.338z"/>
<path style="fill:#FFF9CD;" d="M994.312,1053.589c-2.737,3.262-2.1,8.023,1.423,10.634c3.523,2.61,8.597,2.082,11.334-1.18
	c2.737-3.262,2.1-8.023-1.422-10.634C1002.124,1049.798,997.049,1050.326,994.312,1053.589z"/>
<path style="fill:#FFF9CD;" d="M1121.838,989.946c1.264,0.936,3.083,0.747,4.065-0.424c0.982-1.17,0.753-2.878-0.51-3.814
	c-1.263-0.936-3.083-0.747-4.065,0.423C1120.346,987.302,1120.574,989.01,1121.838,989.946z"/>
<path style="fill:#FFF9CD;" d="M1062.904,1022.04c1.264,0.936,3.083,0.747,4.065-0.424c0.982-1.17,0.753-2.878-0.51-3.814
	c-1.263-0.936-3.084-0.747-4.065,0.423C1061.412,1019.396,1061.64,1021.103,1062.904,1022.04z"/>
<path style="fill:#FFF9CD;" d="M881.821,1151.493c0.982-1.17,0.753-2.878-0.51-3.814c-1.264-0.936-3.084-0.747-4.066,0.423
	c-0.982,1.17-0.753,2.878,0.51,3.814C879.019,1152.852,880.839,1152.663,881.821,1151.493z"/>
<path style="fill:#FFF9CD;" d="M944.134,1107.191c1.388-1.655,1.065-4.069-0.721-5.394c-1.787-1.324-4.361-1.056-5.749,0.599
	c-1.388,1.655-1.065,4.069,0.722,5.394C940.172,1109.113,942.746,1108.845,944.134,1107.191z"/>
<path style="fill:#FFF9CD;" d="M992.214,1029.332c1.825,1.353,4.454,1.079,5.872-0.612c1.418-1.69,1.088-4.156-0.737-5.509
	c-1.825-1.352-4.454-1.079-5.872,0.612C990.059,1025.513,990.388,1027.98,992.214,1029.332z"/>
<path style="fill:#FFF9CD;" d="M974.443,1051.007c2.526,1.872,6.167,1.494,8.13-0.847c1.963-2.34,1.507-5.755-1.021-7.628
	c-2.527-1.873-6.167-1.494-8.13,0.846C971.458,1045.719,971.915,1049.134,974.443,1051.007z"/>
<g>
	<path style="fill:#432918;" d="M986.333,324.561c-0.321-9.919-8.462-17.862-18.459-17.862c-2.457,0-4.801,0.48-6.945,1.352
		c-4.277-1.182-8.782-1.817-13.435-1.817c-27.788,0-50.314,22.527-50.314,50.315c0,27.788,22.526,50.315,50.314,50.315
		c27.788,0,50.315-22.526,50.315-50.315C997.808,344.399,993.502,333.256,986.333,324.561z"/>
	<path style="fill:#FFFFFF;" d="M949.404,325.169c0,10.201,8.269,18.47,18.47,18.47c10.201,0,18.47-8.27,18.47-18.47l-0.011-0.608
		c-0.321-9.919-8.462-17.862-18.459-17.862c-2.457,0-4.801,0.48-6.945,1.352C954.171,310.795,949.404,317.425,949.404,325.169z"/>
</g>
<g>
	<path style="fill:#432918;" d="M1346.656,324.56c-0.322-9.919-8.462-17.862-18.459-17.862c-2.457,0-4.801,0.48-6.944,1.352
		c-4.278-1.182-8.782-1.817-13.435-1.817c-27.789,0-50.315,22.527-50.315,50.315c0,27.788,22.526,50.315,50.315,50.315
		c27.788,0,50.314-22.526,50.314-50.315C1358.131,344.398,1353.825,333.255,1346.656,324.56z"/>
	<path style="fill:#FFFFFF;" d="M1309.727,325.169c0,10.201,8.269,18.47,18.469,18.47c10.201,0,18.47-8.27,18.47-18.47l-0.011-0.608
		c0-0.001,0-0.001,0-0.001c-0.322-9.919-8.462-17.862-18.459-17.862c-2.457,0-4.801,0.48-6.944,1.352
		C1314.493,310.795,1309.727,317.425,1309.727,325.169z"/>
</g>
<path style="fill:#55852F;" d="M1383.136,494.435c-1.553-1.907-4.357-2.195-6.264-0.642c-1.907,1.552-2.195,4.356-0.643,6.264
	c1.553,1.907,4.357,2.195,6.265,0.642C1384.401,499.147,1384.689,496.342,1383.136,494.435z"/>
<path style="fill:#55852F;" d="M1394.011,551.533c1.734-5.347-1.194-11.087-6.541-12.821c-5.347-1.734-11.087,1.194-12.822,6.541
	c-1.734,5.347,1.194,11.087,6.542,12.821C1386.537,559.809,1392.277,556.88,1394.011,551.533z"/>
<path style="fill:#55852F;" d="M1441.707,574.137c-5.347-1.734-11.087,1.194-12.821,6.541c-1.734,5.346,1.194,11.087,6.541,12.821
	c5.346,1.734,11.087-1.194,12.821-6.541C1449.982,581.611,1447.053,575.871,1441.707,574.137z"/>
<path style="fill:#55852F;" d="M1407.874,518.123c5.583,1.81,11.577-1.247,13.388-6.831c1.811-5.583-1.247-11.577-6.83-13.388
	c-5.584-1.811-11.577,1.247-13.388,6.83C1399.234,510.318,1402.291,516.312,1407.874,518.123z"/>
<path style="fill:#55852F;" d="M1493.069,608.615c9.769,3.168,20.256-2.182,23.424-11.95c3.169-9.768-2.181-20.256-11.95-23.424
	c-9.768-3.169-20.256,2.182-23.424,11.951C1477.951,594.959,1483.302,605.447,1493.069,608.615z"/>
<path style="fill:#55852F;" d="M1357.165,517.022c-7.007-2.273-14.53,1.565-16.803,8.573c-2.273,7.007,1.565,14.53,8.573,16.803
	c7.007,2.273,14.53-1.565,16.803-8.572C1368.011,526.818,1364.173,519.295,1357.165,517.022z"/>
<path style="fill:#55852F;" d="M1432.213,553.846c9.499,3.081,19.696-2.121,22.777-11.62c3.081-9.498-2.121-19.696-11.62-22.776
	c-9.499-3.081-19.696,2.121-22.777,11.62C1417.512,540.568,1422.714,550.766,1432.213,553.846z"/>
<path style="fill:#55852F;" d="M1386.58,581.169c-1.543,4.758,1.063,9.865,5.821,11.408c4.757,1.543,9.865-1.063,11.408-5.82
	c1.543-4.757-1.063-9.865-5.82-11.408C1393.232,573.805,1388.124,576.411,1386.58,581.169z"/>
<path style="fill:#55852F;" d="M1427.709,602.614c-3.706-1.202-7.685,0.828-8.887,4.534c-1.202,3.707,0.828,7.686,4.534,8.887
	c3.706,1.202,7.685-0.828,8.888-4.533C1433.446,607.795,1431.416,603.816,1427.709,602.614z"/>
<path style="fill:#55852F;" d="M1380.37,522.522c-1.708-0.554-3.542,0.382-4.095,2.09c-0.554,1.708,0.381,3.542,2.089,4.095
	c1.708,0.554,3.541-0.382,4.096-2.089C1383.014,524.909,1382.078,523.076,1380.37,522.522z"/>
<path style="fill:#55852F;" d="M1410.972,562.222c-2.674-0.867-5.544,0.597-6.411,3.27c-0.867,2.674,0.597,5.543,3.271,6.411
	c2.673,0.867,5.543-0.597,6.41-3.271C1415.109,565.959,1413.644,563.089,1410.972,562.222z"/>
<path style="fill:#55852F;" d="M1494.78,641.877c-2.673-0.867-5.543,0.597-6.41,3.27c-0.867,2.674,0.598,5.544,3.27,6.411
	c2.674,0.867,5.543-0.597,6.411-3.271C1498.918,645.614,1497.454,642.744,1494.78,641.877z"/>
<path style="fill:#55852F;" d="M1531.11,639.297c2.673,0.867,5.543-0.597,6.41-3.27s-0.597-5.543-3.27-6.41
	c-2.674-0.867-5.544,0.597-6.41,3.27C1526.972,635.56,1528.436,638.43,1531.11,639.297z"/>
<path style="fill:#55852F;" d="M1506.692,675.089c-2.549,7.861,1.757,16.301,9.617,18.851c7.861,2.55,16.302-1.756,18.852-9.617
	c2.549-7.862-1.756-16.302-9.617-18.851C1517.682,662.922,1509.242,667.227,1506.692,675.089z"/>
<path style="fill:#55852F;" d="M1459.434,607.531c2.674,0.867,5.544-0.597,6.411-3.271c0.867-2.673-0.597-5.543-3.271-6.41
	c-2.673-0.867-5.543,0.597-6.41,3.27C1455.297,603.794,1456.761,606.663,1459.434,607.531z"/>
<path style="fill:#55852F;" d="M1508.765,628.287c2.674,0.867,5.544-0.597,6.411-3.271c0.867-2.673-0.597-5.543-3.271-6.41
	c-2.673-0.867-5.543,0.597-6.41,3.27C1504.627,624.549,1506.092,627.419,1508.765,628.287z"/>
<path style="fill:#55852F;" d="M1465.857,573.756c3.726,1.209,7.727-0.832,8.935-4.558c1.209-3.727-0.832-7.728-4.558-8.936
	c-3.727-1.209-7.727,0.832-8.936,4.558C1460.089,568.547,1462.13,572.547,1465.857,573.756z"/>
<path style="fill:#55852F;" d="M1480.119,630.421c2.674,0.867,5.544-0.597,6.411-3.27c0.867-2.674-0.597-5.544-3.271-6.411
	c-2.673-0.867-5.543,0.597-6.41,3.271C1475.982,626.684,1477.447,629.554,1480.119,630.421z"/>
<path style="fill:#55852F;" d="M1451.166,622.381c-1.336-0.434-2.772,0.298-3.205,1.635c-0.434,1.337,0.299,2.772,1.635,3.205
	c1.337,0.434,2.771-0.298,3.205-1.635C1453.234,624.249,1452.502,622.814,1451.166,622.381z"/>
<path style="fill:#55852F;" d="M1514.432,649.791c-0.434,1.337,0.298,2.772,1.635,3.206c1.336,0.433,2.771-0.298,3.205-1.635
	c0.434-1.337-0.298-2.771-1.635-3.205C1516.301,647.723,1514.866,648.455,1514.432,649.791z"/>
<path style="fill:#55852F;" d="M1520.983,609.766c1.337,0.434,2.772-0.298,3.206-1.635c0.433-1.337-0.298-2.772-1.635-3.205
	c-1.336-0.434-2.771,0.298-3.205,1.635C1518.915,607.898,1519.647,609.333,1520.983,609.766z"/>
<path style="fill:#55852F;" d="M1352.178,497.409c0.434-1.337-0.298-2.771-1.635-3.205c-1.337-0.434-2.772,0.299-3.205,1.635
	c-0.434,1.337,0.298,2.772,1.635,3.206C1350.31,499.478,1351.745,498.746,1352.178,497.409z"/>
<path style="fill:#55852F;" d="M1407.386,536.121c1.89,0.613,3.92-0.422,4.533-2.312c0.613-1.89-0.422-3.919-2.312-4.532
	c-1.89-0.613-3.92,0.422-4.533,2.312C1404.46,533.479,1405.496,535.508,1407.386,536.121z"/>
<path style="fill:#55852F;" d="M1493.336,555.434c1.931,0.626,4.003-0.432,4.63-2.362c0.626-1.931-0.432-4.004-2.362-4.63
	c-1.931-0.626-4.004,0.432-4.63,2.362C1490.347,552.735,1491.404,554.808,1493.336,555.434z"/>
<path style="fill:#55852F;" d="M1469.612,549.522c2.674,0.868,5.544-0.597,6.41-3.27c0.867-2.673-0.597-5.543-3.27-6.41
	c-2.673-0.867-5.543,0.597-6.411,3.27C1465.474,545.785,1466.939,548.656,1469.612,549.522z"/>
<g>
	<path style="fill:#9DC64C;" d="M1194.094,703.12c42.87-54.502,59.02-114.126,37.706-163.613
		c-39.467-91.632-192.435-113.81-341.665-49.535c-3.269,1.408-6.509,2.847-9.72,4.313l-0.001,0.001l-0.081,0.037
		c-0.002,0-0.002,0-0.003,0.001c-24.966,11.41-48.139,24.561-69.182,38.974c-0.142-0.744-0.331-1.489-0.571-2.228
		c-3.081-9.499-13.279-14.701-22.777-11.62c-9.499,3.08-14.701,13.278-11.62,22.776c1.525,4.702,4.795,8.351,8.859,10.464
		c-5.17,4.165-10.175,8.407-15.007,12.718l-0.162-0.587c-1.208-3.726-5.209-5.767-8.936-4.558c-3.726,1.208-5.767,5.209-4.558,8.936
		c0.733,2.258,2.491,3.896,4.592,4.568c-3.809,3.63-7.496,7.302-11.058,11.012c-3.327-9.506-13.656-14.66-23.284-11.537
		c-9.768,3.169-15.12,13.656-11.951,23.424c2.147,6.619,7.654,11.208,14.022,12.495c-2.41,3.077-4.735,6.169-6.972,9.276
		c-0.797-0.142-1.638-0.097-2.461,0.17c-2.674,0.867-4.138,3.737-3.27,6.41l0.456,1.012
		c-33.213,49.576-44.132,101.964-25.062,146.239c3.315,7.694,7.43,14.898,12.275,21.603l0,0
		c36.267,17.611,78.785,17.793,117.868,11.885c41.697-6.304,81.718-20.058,122.566-30.084c18.032-4.426,37.284-9.72,55.979-9.623
		c11.679,0.06,22.923,2.97,33.911,6.707c12.097,4.114,23.985,8.782,36.433,11.784c8.69,2.095,17.485,3.368,26.336,3.946
		c24.43-15.29,46.339-32.272,65.266-50.29c5.385,4.685,16.463,4.37,26.868-1.252c12.076-6.523,31.265-25.669,27.327-32.958
		C1213.913,699.714,1204.185,700.459,1194.094,703.12z"/>
	<path style="fill:#9DC64C;" d="M1062.229,797.543c-13.522-3.879-26.462-9.572-40.046-13.233
		c-13.286-3.581-26.246-3.898-39.804-1.762c-21.711,3.422-43.046,8.831-64.232,14.608c-41.765,11.389-83.574,24.316-127.085,26.628
		c-21.876,1.163-44.12-0.552-65.09-6.436c63.651,51.884,186.585,56.352,307.081,4.453c14.892-6.414,29.182-13.447,42.806-21.001
		c0,0,0,0,0,0C1071.291,799.92,1066.746,798.839,1062.229,797.543z"/>
	<path style="fill:#41762F;" d="M1602.949,738.806c-0.579-12.498-4.943-24.508-12.28-34.218
		c-6.392-8.459-15.039-15.174-25.406-18.941c-3.32-1.206-5.67,13.2-0.879,14.941c7.093,2.578,13.607,6.994,18.845,12.495
		c-3.703,31.44-27.013,57.953-53.134,74.035c-32.978,20.303-72.756,24.402-110.654,20.986
		c-41.099-3.704-80.597-16.096-120.242-26.815c-20.442-5.526-41.038-10.631-61.983-13.862c-13.247-2.043-26.13-1.663-39.178,1.466
		c-13.743,3.295-26.904,8.589-40.478,12.466c-18.222,5.205-36.827,7.583-55.776,7.144l-0.822,0.203
		c-1.402-0.057-2.804-0.131-4.205-0.223c-8.85-0.578-17.646-1.852-26.336-3.946c-12.448-3.001-24.336-7.67-36.433-11.784
		c-10.988-3.737-22.232-6.647-33.911-6.707c-18.695-0.096-37.947,5.197-55.979,9.623c-40.848,10.026-80.869,23.78-122.566,30.084
		c-39.083,5.909-81.602,5.726-117.868-11.885l0,0l-0.204-0.097c-32.557-15.878-62.597-46.554-66.105-84.154l-0.029-0.319
		c4.545-3.84,9.744-6.866,15.418-8.928c4.061-1.476,3.81-16.198-0.845-14.507c-22.539,8.191-36.616,31.164-37.699,54.56
		c-0.09,1.947-0.105,7.382,2.743,7.658c2.764,0.268,3.55-5.705,3.623-7.284c0.032-0.688,0.084-1.371,0.125-2.057l0.019-0.364
		l0.006-0.044c0.185-1.245,0.396-2.478,0.634-3.714l0.071-0.382l0.051-0.185c0.144-0.552,0.295-1.103,0.457-1.65
		c0.356-1.204,0.751-2.399,1.197-3.573c0.173-0.455-0.013-0.004,0.305-0.745c0.27-0.631,0.551-1.257,0.844-1.877
		c0.488-1.034,1.01-2.054,1.563-3.055c1.117-2.022,2.389-3.929,3.792-5.765c0.722-0.945,1.474-1.861,2.254-2.75
		c3.521,33.229,21.987,61.889,48.975,81.336c13.805,9.947,29.087,16.878,45.111,21.375c0,0,0,0,0.001,0
		c20.97,5.885,43.214,7.599,65.09,6.436c43.511-2.313,85.319-15.24,127.085-26.628c21.186-5.777,42.521-11.186,64.232-14.608
		c13.558-2.137,26.518-1.82,39.804,1.762c13.584,3.661,26.523,9.354,40.046,13.233c4.517,1.296,9.062,2.377,13.631,3.257
		c0,0,0,0,0,0c14.173,2.731,28.582,3.513,43.115,2.644l1.197-0.519c11.02-0.86,21.932-2.697,32.698-5.57
		c12.947-3.455,25.45-8.317,38.336-11.957c12.831-3.625,25.963-5.417,39.273-3.858c20.989,2.458,41.763,7.752,62.15,13.165
		c75.693,20.095,165.826,52.058,238.871,6.426c29.694-18.55,51.013-47.703,56.557-82.158c0.854,1.21,1.66,2.454,2.409,3.729
		c1.32,2.244,2.466,4.587,3.396,7.024c0.926,2.426,1.464,4.197,1.914,6.336c0.21,0.999,0.386,2.004,0.535,3.014l0.139,1.284
		c0.057,0.685,0.093,1.372,0.125,2.057c0.078,1.68,0.858,6.7,3.609,5.448C1602.853,746.651,1603.055,741.101,1602.949,738.806z"/>
	<path style="fill:#41762F;" d="M1028.254,736.942c12.075,6.524,25.056,5.902,28.994-1.386c3.938-7.29-2.659-18.487-14.735-25.011
		c-12.074-6.523-37.648-13.85-41.586-6.561C996.99,711.273,1016.179,730.419,1028.254,736.942z"/>
	<path style="fill:#41762F;" d="M1174.633,710.544c-12.076,6.524-18.672,17.721-14.735,25.011c0.544,1.007,1.262,1.887,2.126,2.638
		c5.385,4.685,16.463,4.37,26.868-1.252c12.076-6.523,31.265-25.669,27.327-32.958c-2.306-4.27-12.034-3.524-22.126-0.863
		c0,0,0,0,0,0C1186.955,705.002,1179.636,707.842,1174.633,710.544z"/>
	<path style="fill:#55852F;" d="M848.676,500.699c1.907,1.553,4.712,1.265,6.264-0.642c1.552-1.907,1.265-4.712-0.643-6.264
		c-1.907-1.553-4.711-1.265-6.264,0.642C846.482,496.342,846.77,499.147,848.676,500.699z"/>
	<path style="fill:#55852F;" d="M849.981,558.075c5.347-1.734,8.275-7.475,6.541-12.821c-1.735-5.346-7.475-8.275-12.821-6.541
		c-5.347,1.734-8.275,7.474-6.541,12.821C838.893,556.88,844.634,559.809,849.981,558.075z"/>
	<path style="fill:#55852F;" d="M795.744,593.499c5.347-1.734,8.275-7.475,6.542-12.821c-1.735-5.347-7.474-8.275-12.822-6.541
		c-5.346,1.734-8.274,7.474-6.541,12.821C784.657,592.304,790.398,595.233,795.744,593.499z"/>
	<path style="fill:#55852F;" d="M823.296,518.123c5.583-1.811,8.641-7.805,6.83-13.388c-1.81-5.583-7.804-8.641-13.387-6.83
		c-5.584,1.811-8.641,7.805-6.83,13.388C811.72,516.876,817.714,519.933,823.296,518.123z"/>
	<path style="fill:#55852F;" d="M738.101,608.615c9.768-3.168,15.119-13.656,11.95-23.424l-0.139-0.414l0,0
		c-3.327-9.506-13.656-14.66-23.284-11.537c-9.768,3.169-15.12,13.656-11.951,23.424c2.147,6.619,7.654,11.208,14.022,12.495
		C731.728,609.772,734.952,609.637,738.101,608.615z"/>
	<path style="fill:#55852F;" d="M882.236,542.397c7.008-2.273,10.846-9.796,8.573-16.803c-2.273-7.008-9.796-10.846-16.803-8.573
		c-7.007,2.273-10.846,9.796-8.573,16.804C867.706,540.832,875.229,544.67,882.236,542.397z"/>
	<path style="fill:#55852F;" d="M798.957,553.846c8.759-2.841,13.864-11.733,12.191-20.548c-0.142-0.744-0.331-1.489-0.571-2.228
		c-3.081-9.499-13.279-14.701-22.777-11.62c-9.499,3.08-14.701,13.278-11.62,22.776c1.525,4.702,4.795,8.351,8.859,10.464
		C789.187,554.845,794.161,555.402,798.957,553.846z"/>
	<path style="fill:#55852F;" d="M838.769,592.577c4.758-1.543,7.364-6.65,5.821-11.408c-1.544-4.758-6.651-7.363-11.408-5.82
		c-4.758,1.543-7.363,6.651-5.82,11.408C828.904,591.514,834.012,594.12,838.769,592.577z"/>
	<path style="fill:#55852F;" d="M798.927,611.502c1.202,3.706,5.181,5.736,8.887,4.533c3.706-1.202,5.736-5.181,4.534-8.887
		c-1.202-3.706-5.181-5.736-8.887-4.534C799.755,603.816,797.725,607.795,798.927,611.502z"/>
	<path style="fill:#55852F;" d="M852.806,528.707c1.708-0.554,2.643-2.388,2.089-4.095c-0.553-1.708-2.387-2.644-4.096-2.09
		c-1.708,0.554-2.643,2.388-2.089,4.096C849.265,528.325,851.098,529.261,852.806,528.707z"/>
	<path style="fill:#55852F;" d="M823.339,571.904c2.674-0.868,4.138-3.737,3.271-6.411c-0.867-2.674-3.738-4.137-6.411-3.27
		c-2.673,0.867-4.137,3.737-3.271,6.41C817.796,571.306,820.666,572.77,823.339,571.904z"/>
	<path style="fill:#55852F;" d="M739.53,651.558c2.674-0.867,4.137-3.737,3.27-6.411c-0.867-2.673-3.737-4.137-6.41-3.27
		c-2.674,0.867-4.138,3.737-3.271,6.41C733.987,650.961,736.857,652.425,739.53,651.558z"/>
	<path style="fill:#55852F;" d="M700.061,639.297c2.674-0.867,4.138-3.737,3.27-6.41c-0.867-2.673-3.737-4.137-6.41-3.27
		c-2.673,0.867-4.137,3.737-3.27,6.41C694.517,638.7,697.388,640.164,700.061,639.297z"/>
	<path style="fill:#55852F;" d="M714.861,693.94c7.861-2.55,12.167-10.99,9.617-18.851c-2.55-7.861-10.99-12.167-18.852-9.617
		c-7.861,2.549-12.167,10.989-9.617,18.851C698.56,692.184,707,696.49,714.861,693.94z"/>
	<path style="fill:#55852F;" d="M771.737,607.531c2.673-0.868,4.138-3.737,3.27-6.411c-0.867-2.673-3.737-4.137-6.41-3.27
		c-2.674,0.867-4.137,3.737-3.27,6.41C766.193,606.933,769.063,608.397,771.737,607.531z"/>
	<path style="fill:#55852F;" d="M722.406,628.287c2.674-0.867,4.137-3.737,3.27-6.411c-0.6-1.85-2.16-3.12-3.949-3.44
		c-0.797-0.142-1.638-0.097-2.461,0.17c-2.674,0.867-4.138,3.737-3.27,6.41l0.456,1.012v0
		C717.634,628.041,720.092,629.036,722.406,628.287z"/>
	<path style="fill:#55852F;" d="M765.314,573.756c3.531-1.146,5.547-4.798,4.72-8.349l-0.162-0.587
		c-1.208-3.726-5.209-5.767-8.936-4.558c-3.726,1.208-5.767,5.209-4.558,8.936c0.733,2.258,2.491,3.896,4.592,4.568
		C762.335,574.203,763.845,574.232,765.314,573.756z"/>
	<path style="fill:#55852F;" d="M751.051,630.421c2.673-0.867,4.137-3.737,3.27-6.41c-0.867-2.674-3.738-4.138-6.41-3.271
		c-2.674,0.867-4.138,3.737-3.27,6.411C745.508,629.824,748.378,631.288,751.051,630.421z"/>
	<path style="fill:#55852F;" d="M781.575,627.221c1.337-0.433,2.069-1.868,1.635-3.205c-0.434-1.337-1.868-2.068-3.206-1.635
		c-1.336,0.433-2.068,1.868-1.635,3.205C778.803,626.923,780.238,627.654,781.575,627.221z"/>
	<path style="fill:#55852F;" d="M715.103,652.997c1.337-0.434,2.069-1.868,1.635-3.206c-0.434-1.337-1.868-2.068-3.205-1.635
		c-1.337,0.434-2.068,1.868-1.635,3.205C712.331,652.698,713.766,653.43,715.103,652.997z"/>
	<path style="fill:#55852F;" d="M710.187,609.766c1.337-0.433,2.068-1.868,1.635-3.205c-0.434-1.337-1.868-2.069-3.205-1.635
		c-1.337,0.433-2.069,1.868-1.635,3.205C707.415,609.468,708.85,610.2,710.187,609.766z"/>
	<path style="fill:#55852F;" d="M823.785,536.121c1.89-0.613,2.925-2.642,2.312-4.533c-0.613-1.89-2.643-2.926-4.533-2.312
		c-1.89,0.613-2.926,2.643-2.312,4.532C819.865,535.699,821.894,536.734,823.785,536.121z"/>
	<path style="fill:#55852F;" d="M737.835,555.434c1.931-0.627,2.988-2.7,2.362-4.63c-0.626-1.93-2.699-2.988-4.629-2.362
		c-1.931,0.626-2.988,2.699-2.363,4.63C733.831,555.003,735.904,556.06,737.835,555.434z"/>
	<path style="fill:#55852F;" d="M761.558,549.522c2.673-0.867,4.138-3.737,3.271-6.41c-0.868-2.673-3.738-4.137-6.41-3.27
		c-2.674,0.867-4.138,3.737-3.271,6.41C756.015,548.925,758.885,550.39,761.558,549.522z"/>
</g>
<path style="fill:#41762F;" d="M1184.485,887.44c-39.297,21.609-86.896,22.491-126.787,1.968c-5.808-2.989-8.427,9.398-3.171,12.102
	c42.364,21.797,92.445,20.002,133.968-2.83C1193.568,895.89,1190.873,883.928,1184.485,887.44z"/>
</svg>
