<svg xmlns="http://www.w3.org/2000/svg" xmlns:xlink="http://www.w3.org/1999/xlink" width="1080" zoomAndPan="magnify" viewBox="0 0 810 809.999993" height="1080" preserveAspectRatio="xMidYMid meet" version="1.0"><path fill="#ffffff" d="M 796.273438 494.96875 C 793.023438 486.1875 789.128906 478.34375 787.503906 468.972656 C 785.941406 459.988281 782.414062 452.582031 779.792969 443.945312 C 777.375 435.980469 771.019531 429.332031 767.167969 421.988281 C 763.59375 415.175781 758.496094 408.996094 757.074219 401.34375 C 761.945312 400.742188 766.703125 401.355469 771.609375 402.007812 C 776.75 402.6875 781.199219 404.976562 786.21875 405.714844 C 787.300781 405.875 789.171875 403.921875 788.085938 402.976562 C 781.503906 397.234375 773.070312 394.40625 766.464844 388.367188 C 757.925781 380.566406 750.226562 371.71875 743.105469 362.632812 C 729.511719 345.277344 720.203125 325.089844 711.164062 305.105469 C 701.125 282.90625 694.898438 258.679688 688.804688 235.144531 C 682.972656 212.609375 680.769531 189.257812 674.128906 166.953125 C 668.835938 149.15625 656.726562 139.007812 638.445312 136.164062 C 599.257812 130.066406 565.117188 177.445312 535.898438 196.128906 C 525.828125 202.566406 509.257812 207.96875 500.007812 197.730469 C 486.832031 183.136719 494.179688 156.441406 495.121094 139.273438 C 496.683594 110.867188 500.308594 80.34375 487.925781 53.660156 C 477.914062 32.089844 458.40625 15.960938 435.753906 9.097656 C 397.363281 -2.535156 350.140625 5.4375 326.363281 40.695312 C 294.992188 87.210938 335.511719 143.144531 320.214844 192.820312 C 311.417969 221.386719 286.523438 245.980469 264.203125 264.863281 C 253.070312 274.285156 240.257812 282.074219 225.398438 277 C 215.539062 273.632812 207.398438 263.597656 201.472656 255.550781 C 195.566406 247.535156 190.894531 238.640625 186.242188 229.867188 C 176.410156 211.324219 170.769531 190.527344 157.824219 173.695312 C 147.777344 160.632812 131.492188 153.585938 115.570312 159.765625 C 101.148438 165.355469 91.632812 181.4375 85.691406 194.777344 C 67.335938 235.957031 64.019531 282.953125 55.3125 326.683594 C 51.257812 347.054688 45.726562 366.957031 38.140625 386.300781 C 30.394531 406.058594 21.347656 425.285156 13.746094 445.109375 C 13.578125 445.5625 13.671875 446.472656 14.382812 446.320312 C 22 444.695312 28.042969 433.679688 32.539062 428.203125 C 40.75 418.21875 48.246094 407.335938 56.699219 397.554688 C 57.273438 405.703125 52.222656 416.691406 49.4375 423.71875 C 49.324219 424.003906 49.257812 424.566406 49.574219 424.765625 C 54.875 428.027344 66.136719 411.210938 71.480469 404.980469 C 70.054688 417.714844 71.921875 428.695312 76.679688 440.867188 C 82.457031 455.636719 89.027344 470.007812 93.914062 485.121094 C 95.640625 490.457031 96.9375 495.738281 97.894531 501.027344 C 99.589844 504.851562 101.234375 508.695312 102.734375 512.609375 C 106.429688 522.222656 108.253906 532.355469 110.21875 542.445312 C 111.882812 536.773438 114.132812 531.320312 116.742188 526.011719 C 117.355469 521.1875 117.855469 516.359375 118.292969 511.578125 C 119.820312 494.789062 122.148438 477.589844 129.570312 462.308594 C 135.183594 450.757812 142.5 440.015625 149.464844 429.210938 C 148.308594 434.769531 146.671875 440.214844 145.554688 445.789062 C 144.308594 452 144.324219 458.484375 143.113281 464.765625 C 142.804688 466.332031 145 465.191406 145.25 464.277344 C 148.289062 453.226562 157.289062 445.730469 163.164062 436.234375 C 161.601562 451.953125 156.289062 467.429688 154.328125 483.144531 C 153.136719 492.6875 152.734375 502.386719 152.324219 511.992188 C 152.28125 512.925781 152.226562 513.882812 152.167969 514.84375 C 152.53125 518.039062 152.820312 521.242188 152.953125 524.464844 C 159 515.230469 166.609375 507.3125 175.023438 500.203125 C 176.695312 498.039062 178.382812 495.875 180.113281 493.71875 C 185.394531 487.117188 191.441406 481.523438 197.402344 475.578125 C 203.386719 469.605469 210.769531 465.25 216.648438 459.394531 C 216.894531 459.148438 217.144531 458.917969 217.398438 458.671875 C 215 468.332031 211.996094 477.847656 208.09375 487.152344 C 202.375 500.800781 196.683594 514.144531 189.410156 527.058594 C 182.035156 540.15625 171.46875 552.320312 162.222656 564.175781 C 153.882812 574.871094 144.675781 584.816406 136.558594 595.703125 C 128.414062 606.636719 121.382812 618.300781 114.558594 630.082031 C 107.503906 642.269531 101.839844 655.253906 96.941406 668.433594 C 92.128906 681.394531 86.65625 694.375 84.953125 708.191406 C 84.84375 709.085938 85.636719 709.261719 86.292969 708.875 C 94.371094 704.105469 99.761719 695.03125 106.589844 688.664062 C 115.964844 679.921875 110.664062 690.082031 110.503906 690.546875 C 109.488281 693.601562 108.472656 696.652344 107.453125 699.710938 C 106.175781 703.550781 104.917969 708.210938 104.316406 712.265625 C 104.101562 713.71875 105.722656 712.960938 106.230469 712.421875 C 109.425781 709.019531 112.179688 705.246094 115.464844 701.917969 C 116.386719 700.984375 117.421875 700.222656 118.332031 699.265625 C 117.652344 699.980469 126.375 691.085938 125.800781 696.136719 C 125.488281 698.859375 123.8125 702.007812 125.121094 704.765625 C 127.234375 709.203125 130.441406 712.945312 132.527344 717.441406 C 137.027344 727.15625 140.371094 737.738281 144.136719 747.769531 C 146.296875 753.511719 148.789062 759.21875 150.007812 765.25 C 150.835938 769.371094 150.355469 773.617188 151.195312 777.726562 C 151.382812 778.609375 152.296875 778.277344 152.796875 777.867188 C 158.96875 772.789062 162.519531 765.898438 169.820312 761.792969 C 177.6875 757.375 186.605469 754.296875 194.089844 749.371094 C 208.035156 740.199219 216.679688 727.042969 228.398438 715.355469 C 233.507812 710.253906 239.414062 706.113281 244.324219 700.761719 C 247.886719 696.867188 250.429688 692.382812 252.859375 687.78125 C 254.882812 685.59375 256.777344 683.324219 258.667969 681.011719 C 260.839844 678.339844 257.648438 685.523438 257.382812 686.203125 C 255.785156 690.230469 255.882812 694.472656 254.910156 698.589844 C 254.785156 699.117188 255.289062 699.5 255.773438 699.285156 C 260.917969 696.976562 265.570312 693.375 270.597656 690.707031 C 267.925781 697.488281 265.601562 704.265625 265.175781 711.625 C 264.882812 716.804688 264.792969 721.570312 263.425781 726.640625 C 262.613281 729.652344 261.25 732.574219 261.332031 735.722656 C 261.339844 735.984375 261.53125 736.175781 261.757812 736.253906 C 263.886719 736.988281 267.996094 732.851562 269.003906 732.160156 C 276.488281 727.027344 286.125 726.523438 294.824219 725.050781 C 306.324219 723.101562 318.203125 720.347656 327.71875 713.1875 C 335.769531 707.128906 346.011719 697.210938 349.390625 687.449219 C 351.972656 679.957031 351.878906 672.285156 356.667969 665.542969 C 359.148438 662.050781 362.402344 659.289062 365.398438 656.292969 C 363.980469 659.296875 362.746094 662.320312 362.054688 665.792969 C 360.46875 673.78125 359.414062 681.660156 356.75 689.410156 C 351.847656 703.644531 344.390625 716.71875 338.25 730.386719 C 332.882812 742.34375 330.035156 752.90625 330.351562 766.058594 C 330.703125 780.472656 325.171875 792.875 322.128906 806.671875 C 321.992188 807.273438 322.511719 807.507812 323.003906 807.378906 C 328.621094 805.90625 331.921875 799.269531 336.738281 796.242188 C 344.675781 791.257812 353.457031 787.605469 361.6875 783.132812 C 377.046875 774.789062 392.015625 765.996094 405.667969 755.058594 C 416.933594 746.035156 421.488281 738.554688 422.839844 724.175781 C 423.789062 714.125 427.148438 706.199219 433.902344 698.609375 C 436.15625 696.078125 438.074219 693.242188 440 690.414062 C 438.992188 693.289062 438.183594 696.246094 437.765625 699.378906 C 436.285156 710.421875 438.976562 721.90625 440.511719 732.804688 C 442.46875 746.753906 441.828125 759.914062 439.164062 773.726562 C 437.835938 780.628906 435.988281 786.792969 432.6875 793.003906 C 430.859375 796.449219 429.503906 800.351562 428.980469 804.203125 C 428.917969 804.667969 429.277344 805.011719 429.730469 804.8125 C 434.6875 802.730469 438.679688 797.296875 442.867188 793.933594 C 448.730469 789.222656 454.175781 784.214844 459.203125 778.617188 C 469.339844 767.332031 476.417969 751.460938 477.554688 736.347656 C 478.277344 726.636719 479.324219 718.148438 482.605469 708.871094 C 485.828125 699.773438 495.128906 693.988281 500.5 685.976562 C 504.054688 680.664062 508.261719 674.949219 509.433594 668.496094 C 511.34375 657.949219 510.226562 647.289062 513.539062 636.945312 C 516.3125 628.269531 521.632812 619.003906 527.289062 611.941406 C 528.210938 610.789062 528.816406 609.332031 529.003906 608.851562 C 528.894531 609.15625 528.636719 609.949219 528.191406 611.496094 C 527.246094 614.789062 526.628906 618.09375 526.070312 621.472656 C 524.886719 628.628906 526.613281 636.882812 527.699219 644 C 529.222656 653.960938 535.914062 662.148438 534.683594 672.601562 C 533.65625 681.308594 530.242188 689.964844 528.402344 698.511719 C 526.246094 708.550781 525.988281 718.765625 525.117188 728.96875 C 524.269531 738.90625 521.578125 747.589844 517.496094 756.621094 C 514.300781 763.679688 512.769531 770.597656 510.894531 778.007812 C 510.542969 779.371094 511.832031 779.199219 512.503906 778.4375 C 520.304688 769.65625 527.871094 758.660156 533.410156 748.273438 C 536.941406 741.65625 539.804688 735.320312 542.207031 728.179688 C 543.691406 723.742188 544.917969 719.214844 546.089844 714.6875 C 546.875 711.648438 547.402344 707.800781 548.902344 704.785156 C 549.503906 708.125 548.890625 712.3125 549.0625 715.492188 C 549.3125 720.15625 553.746094 723.390625 553.503906 727.925781 C 553.40625 729.78125 555.59375 728.105469 555.804688 727.101562 C 557.496094 719.019531 562.117188 711.152344 564.617188 703.234375 C 566.027344 698.757812 566.878906 694 567.28125 689.257812 C 569.460938 695.277344 570.40625 702.316406 572.121094 708.144531 C 574.878906 717.511719 577.363281 727.824219 582.566406 736.179688 C 587.640625 744.339844 595.492188 750.269531 600.375 758.5625 C 605.519531 767.304688 601.570312 776.257812 604.46875 785.027344 C 604.761719 785.90625 606.03125 784.960938 606.316406 784.617188 C 612.066406 777.628906 613.035156 766.121094 616.296875 757.769531 C 621.640625 744.085938 628.414062 731.628906 630.046875 716.839844 C 631.097656 707.300781 629.765625 697.546875 627.453125 688.117188 C 628.78125 689.890625 630.09375 691.683594 631.351562 693.527344 C 633.78125 697.082031 636.289062 700.8125 636.605469 705.246094 C 636.722656 706.902344 636.5 709 638 710.039062 C 638.675781 710.511719 639.464844 709.4375 639.5625 708.871094 C 640.488281 703.285156 639.179688 697.609375 638.148438 691.914062 C 639.40625 694.308594 641.148438 696.320312 643.917969 697.398438 C 646.839844 698.53125 649.832031 699.4375 652.78125 700.480469 C 656.832031 701.90625 657.933594 706.378906 659.988281 709.660156 C 661.621094 712.265625 664.515625 713.921875 666.742188 715.976562 C 669.503906 718.527344 671.6875 721.066406 674.902344 723.117188 C 680.46875 726.664062 685.476562 729.652344 691.988281 731.289062 C 692.933594 731.527344 694.199219 730 693.75 729.125 C 688.832031 719.535156 687.941406 708.230469 684.742188 697.878906 C 683.207031 687.21875 681.214844 676.53125 678.011719 666.269531 C 673.75 652.59375 667.195312 639.761719 660.289062 627.253906 C 660.285156 626.816406 660.304688 626.378906 660.304688 625.945312 C 660.402344 626.027344 660.492188 626.121094 660.585938 626.207031 C 665.722656 630.695312 672.261719 633.453125 678.707031 635.425781 C 685.117188 637.378906 692.09375 641.046875 698.703125 641.796875 C 699.589844 641.898438 700.789062 640.785156 700.570312 639.839844 C 696.304688 621.613281 691.300781 603.796875 690.074219 585.039062 C 688.898438 567.074219 692.445312 549.710938 692.445312 531.871094 C 692.453125 512.507812 694.523438 493.890625 690.917969 474.683594 C 689.265625 465.894531 688.199219 457.039062 686.59375 448.242188 C 685.988281 444.902344 685.027344 441.542969 684.019531 438.304688 C 683.5625 436.851562 682.9375 435.523438 682.300781 434.214844 C 684.421875 436.171875 686.144531 438.8125 688.363281 440.484375 C 693.089844 444.039062 697.75 447.65625 702.71875 450.878906 C 710.855469 456.144531 721.207031 462.925781 724.859375 472.410156 C 725.304688 473.570312 727.34375 471.613281 726.945312 470.566406 C 722.867188 460.179688 719.742188 449.453125 715.667969 439.0625 C 713.816406 434.34375 712.570312 429.320312 711.050781 424.484375 C 709.617188 419.921875 706.789062 415.835938 704.835938 411.515625 C 711.183594 416.433594 716.4375 423.324219 722.367188 428.5625 C 730.925781 436.128906 739.597656 443.558594 747.757812 451.554688 C 763.679688 467.152344 783.378906 476.375 794.078125 496.898438 C 794.730469 498.160156 796.652344 496.003906 796.273438 494.96875 Z M 796.273438 494.96875 " fill-opacity="1" fill-rule="nonzero"/><path fill="#a3a5a8" d="M 322.742188 808.953125 C 322.054688 808.953125 321.429688 808.667969 321.03125 808.164062 C 320.628906 807.667969 320.492188 807.023438 320.644531 806.351562 C 321.589844 802.046875 322.789062 797.84375 323.945312 793.78125 C 326.578125 784.554688 329.0625 775.839844 328.828125 766.109375 C 328.523438 753.6875 330.855469 743.164062 336.859375 729.777344 C 338.957031 725.105469 341.234375 720.445312 343.445312 715.933594 C 347.699219 707.234375 352.101562 698.234375 355.308594 688.925781 C 357.300781 683.125 358.367188 677.335938 359.484375 671.199219 C 359.832031 669.308594 360.179688 667.410156 360.558594 665.507812 C 360.769531 664.4375 361.03125 663.410156 361.332031 662.421875 C 360.09375 663.695312 358.941406 665 357.914062 666.441406 C 354.976562 670.578125 353.984375 675.125 352.929688 679.941406 C 352.351562 682.558594 351.765625 685.265625 350.835938 687.960938 C 346.605469 700.195312 332.777344 711.308594 328.636719 714.421875 C 318.886719 721.753906 306.75 724.59375 295.082031 726.570312 C 293.480469 726.839844 291.84375 727.078125 290.203125 727.320312 C 283.070312 728.363281 275.691406 729.4375 269.867188 733.433594 C 269.691406 733.554688 269.40625 733.804688 269.042969 734.113281 C 266.796875 736.023438 264.425781 737.882812 262.3125 737.882812 C 261.941406 737.882812 261.585938 737.824219 261.257812 737.710938 C 260.398438 737.417969 259.824219 736.65625 259.804688 735.769531 C 259.738281 733.230469 260.488281 730.90625 261.21875 728.652344 C 261.476562 727.855469 261.738281 727.058594 261.953125 726.253906 C 263.101562 721.992188 263.316406 717.875 263.550781 713.523438 L 263.65625 711.550781 C 263.988281 705.671875 265.460938 700.195312 267.648438 694.1875 C 266.8125 694.695312 265.984375 695.21875 265.167969 695.730469 C 262.367188 697.496094 259.464844 699.316406 256.398438 700.691406 C 255.484375 701.097656 254.417969 700.828125 253.820312 700.082031 C 253.414062 699.566406 253.273438 698.902344 253.425781 698.25 C 253.785156 696.734375 253.988281 695.199219 254.207031 693.582031 C 254.480469 691.507812 254.769531 689.375 255.402344 687.253906 C 254.980469 687.734375 254.550781 688.210938 254.121094 688.679688 C 251.789062 693.085938 249.191406 697.71875 245.449219 701.804688 C 242.652344 704.859375 239.515625 707.546875 236.484375 710.136719 C 234.128906 712.152344 231.695312 714.234375 229.476562 716.445312 C 225.625 720.289062 222.046875 724.359375 218.589844 728.292969 C 211.625 736.21875 204.421875 744.414062 194.9375 750.65625 C 190.507812 753.570312 185.5625 755.859375 180.777344 758.082031 C 177.367188 759.664062 173.832031 761.304688 170.570312 763.136719 C 166.449219 765.453125 163.59375 768.695312 160.574219 772.132812 C 158.503906 774.488281 156.359375 776.925781 153.769531 779.054688 C 153.488281 779.289062 152.738281 779.820312 151.8125 779.820312 C 150.753906 779.820312 149.925781 779.125 149.699219 778.046875 C 149.25 775.855469 149.160156 773.660156 149.070312 771.53125 C 148.980469 769.453125 148.898438 767.492188 148.507812 765.558594 C 147.5625 760.867188 145.769531 756.25 144.039062 751.785156 C 143.59375 750.632812 143.140625 749.476562 142.707031 748.320312 C 141.589844 745.335938 140.503906 742.304688 139.417969 739.265625 C 136.890625 732.183594 134.277344 724.863281 131.136719 718.089844 C 130.121094 715.894531 128.832031 713.898438 127.46875 711.789062 C 126.164062 709.773438 124.816406 707.691406 123.742188 705.429688 C 122.59375 703.011719 123.222656 700.53125 123.78125 698.34375 C 123.949219 697.679688 124.109375 697.046875 124.210938 696.457031 C 123.347656 696.957031 121.808594 698.0625 119.464844 700.308594 C 119.433594 700.335938 119.398438 700.371094 119.359375 700.40625 C 118.855469 700.929688 118.328125 701.386719 117.824219 701.832031 C 117.390625 702.207031 116.957031 702.582031 116.550781 702.996094 C 114.804688 704.765625 113.167969 706.714844 111.582031 708.609375 C 110.226562 710.222656 108.828125 711.894531 107.34375 713.472656 C 106.800781 714.050781 105.761719 714.636719 104.824219 714.636719 C 104.203125 714.636719 103.652344 714.394531 103.269531 713.957031 C 102.980469 713.617188 102.660156 713.011719 102.800781 712.046875 C 103.546875 707.019531 105.128906 701.859375 106.003906 699.230469 L 109.054688 690.066406 C 109.078125 690.003906 109.160156 689.804688 109.292969 689.523438 C 109.652344 688.746094 109.921875 688.125 110.113281 687.632812 C 109.515625 688.097656 108.707031 688.78125 107.628906 689.785156 C 105.160156 692.085938 102.914062 694.71875 100.53125 697.503906 C 96.519531 702.207031 92.363281 707.066406 87.066406 710.199219 C 86.011719 710.824219 84.679688 710.691406 83.957031 709.875 C 83.53125 709.390625 83.34375 708.730469 83.433594 708.015625 C 84.925781 695.914062 89.28125 684.394531 93.496094 673.25 C 94.171875 671.46875 94.847656 669.691406 95.503906 667.914062 C 101.0625 652.949219 106.863281 640.328125 113.234375 629.332031 C 119.804688 617.976562 127.035156 605.9375 135.332031 594.800781 C 139.882812 588.699219 144.839844 582.808594 149.632812 577.117188 C 153.421875 572.617188 157.339844 567.960938 161.015625 563.25 C 162.996094 560.707031 165.039062 558.152344 167.101562 555.574219 C 174.59375 546.199219 182.34375 536.507812 188.078125 526.320312 C 195.121094 513.8125 200.671875 500.917969 206.683594 486.570312 C 209.734375 479.304688 212.335938 471.675781 214.597656 463.375 C 212.476562 465.207031 210.25 466.921875 208.074219 468.601562 C 204.808594 471.117188 201.429688 473.726562 198.484375 476.667969 C 197.289062 477.859375 196.089844 479.039062 194.890625 480.214844 C 190.050781 484.976562 185.476562 489.472656 181.300781 494.683594 C 179.585938 496.832031 177.902344 498.984375 176.238281 501.144531 C 176.171875 501.230469 176.09375 501.308594 176.011719 501.378906 C 166.808594 509.152344 159.683594 516.980469 154.234375 525.308594 C 153.867188 525.863281 153.1875 526.125 152.546875 525.945312 C 151.910156 525.765625 151.457031 525.199219 151.425781 524.535156 C 151.304688 521.65625 151.058594 518.636719 150.648438 515.027344 C 150.640625 514.9375 150.636719 514.847656 150.640625 514.765625 C 150.699219 513.742188 150.757812 512.832031 150.792969 511.9375 L 150.816406 511.375 C 151.21875 502.039062 151.636719 492.382812 152.8125 482.964844 C 153.746094 475.46875 155.453125 467.941406 157.105469 460.660156 C 158.476562 454.636719 159.878906 448.457031 160.835938 442.289062 C 159.722656 443.773438 158.574219 445.222656 157.445312 446.644531 C 152.90625 452.386719 148.613281 457.800781 146.71875 464.695312 C 146.382812 465.921875 144.839844 467.082031 143.542969 467.082031 C 142.921875 467.082031 142.375 466.832031 142.007812 466.382812 C 141.726562 466.039062 141.421875 465.433594 141.609375 464.488281 C 142.191406 461.46875 142.488281 458.316406 142.78125 455.269531 C 143.089844 452.054688 143.402344 448.734375 144.050781 445.5 C 144.59375 442.800781 145.265625 440.109375 145.921875 437.492188 C 140.59375 445.707031 135.226562 454.179688 130.945312 462.988281 C 123.34375 478.636719 121.210938 496.351562 119.8125 511.730469 C 119.324219 517.0625 118.816406 521.800781 118.257812 526.21875 C 118.234375 526.386719 118.1875 526.546875 118.113281 526.695312 C 115.3125 532.398438 113.207031 537.695312 111.683594 542.890625 C 111.480469 543.566406 110.824219 544.027344 110.144531 543.984375 C 109.441406 543.953125 108.851562 543.441406 108.71875 542.75 L 108.296875 540.574219 C 106.523438 531.425781 104.6875 521.96875 101.308594 513.167969 C 100.015625 509.800781 98.53125 506.253906 96.496094 501.65625 C 96.445312 501.546875 96.40625 501.429688 96.386719 501.308594 C 95.40625 495.871094 94.121094 490.734375 92.464844 485.601562 C 89.1875 475.46875 85.0625 465.46875 81.078125 455.800781 C 79.144531 451.109375 77.144531 446.257812 75.257812 441.433594 C 70.890625 430.261719 69.074219 420.308594 69.5625 409.800781 C 69.363281 410.058594 69.160156 410.316406 68.957031 410.574219 C 62.039062 419.410156 55.917969 426.71875 51.089844 426.71875 C 50.242188 426.71875 49.46875 426.503906 48.769531 426.078125 C 47.714844 425.429688 47.640625 424.117188 48.011719 423.171875 C 48.371094 422.273438 48.761719 421.308594 49.175781 420.296875 C 51.363281 414.933594 54.199219 407.980469 54.996094 401.949219 C 51.300781 406.433594 47.734375 411.121094 44.257812 415.683594 C 40.851562 420.164062 37.324219 424.796875 33.714844 429.1875 C 32.726562 430.386719 31.632812 431.910156 30.472656 433.515625 C 26.324219 439.277344 21.164062 446.445312 14.699219 447.824219 C 14.59375 447.847656 14.335938 447.875 14.226562 447.875 C 13.550781 447.875 12.941406 447.554688 12.558594 447 C 12.039062 446.246094 12.0625 445.238281 12.3125 444.578125 C 16.335938 434.089844 20.824219 423.613281 25.171875 413.480469 C 29.046875 404.425781 33.058594 395.066406 36.714844 385.753906 C 43.929688 367.351562 49.519531 347.933594 53.808594 326.398438 C 56.15625 314.605469 58.152344 302.328125 60.082031 290.453125 C 65.359375 257.976562 70.816406 224.398438 84.289062 194.167969 C 92.832031 174.996094 103.171875 162.945312 115.011719 158.351562 C 119.066406 156.78125 123.265625 155.984375 127.503906 155.984375 C 139.332031 155.984375 150.824219 162.105469 159.03125 172.777344 C 167.378906 183.632812 172.785156 196.234375 178.015625 208.425781 C 180.976562 215.328125 184.035156 222.46875 187.589844 229.167969 L 187.933594 229.800781 C 192.394531 238.21875 197.007812 246.925781 202.699219 254.652344 C 209.019531 263.234375 216.714844 272.429688 225.890625 275.5625 C 228.839844 276.570312 231.847656 277.078125 234.828125 277.078125 C 245.980469 277.078125 255.855469 269.933594 263.21875 263.703125 C 282.707031 247.210938 309.667969 221.875 318.75 192.378906 C 325.339844 170.976562 321.3125 147.878906 317.417969 125.546875 C 312.355469 96.519531 307.117188 66.503906 325.097656 39.84375 C 341.066406 16.164062 369.09375 2.585938 401.988281 2.585938 C 413.613281 2.585938 425.125 4.285156 436.195312 7.640625 C 459.898438 14.824219 479.257812 31.367188 489.3125 53.023438 C 500.507812 77.140625 498.828125 104.007812 497.210938 129.988281 C 497.015625 133.132812 496.820312 136.257812 496.648438 139.359375 C 496.441406 143.117188 495.9375 147.289062 495.402344 151.699219 C 493.46875 167.675781 491.28125 185.785156 501.144531 196.710938 C 504.265625 200.164062 508.542969 201.921875 513.863281 201.921875 C 520.21875 201.921875 528.148438 199.273438 535.074219 194.84375 C 543.621094 189.382812 552.601562 181.425781 562.109375 173.003906 C 582.695312 154.769531 606.027344 134.105469 631.476562 134.105469 C 633.886719 134.105469 636.308594 134.292969 638.679688 134.660156 C 657.769531 137.628906 670.1875 148.351562 675.59375 166.523438 C 679.273438 178.875 681.628906 191.71875 683.90625 204.140625 C 685.757812 214.238281 687.671875 224.679688 690.28125 234.765625 L 690.46875 235.5 C 696.46875 258.671875 702.675781 282.632812 712.554688 304.480469 C 720.921875 322.976562 730.398438 343.9375 744.304688 361.695312 C 752.402344 372.03125 759.988281 380.386719 767.492188 387.242188 C 770.785156 390.257812 774.671875 392.511719 778.429688 394.6875 C 782.054688 396.785156 785.800781 398.957031 789.089844 401.828125 C 789.910156 402.542969 790.15625 403.613281 789.753906 404.691406 C 789.289062 405.925781 787.859375 407.253906 786.347656 407.253906 C 786.273438 407.253906 786.066406 407.238281 785.992188 407.226562 C 783.433594 406.851562 781.023438 406.09375 778.691406 405.359375 C 776.238281 404.585938 773.917969 403.855469 771.40625 403.527344 C 768.078125 403.085938 764.632812 402.628906 761.246094 402.628906 C 760.449219 402.628906 759.683594 402.652344 758.941406 402.703125 C 760.105469 407.152344 762.519531 411.125 765.054688 415.300781 C 766.230469 417.238281 767.445312 419.238281 768.515625 421.285156 C 769.945312 424.003906 771.785156 426.714844 773.566406 429.335938 C 776.574219 433.769531 779.6875 438.351562 781.253906 443.507812 C 782.148438 446.464844 783.171875 449.324219 784.164062 452.09375 C 786.027344 457.316406 787.964844 462.714844 789.003906 468.714844 C 790.175781 475.472656 792.542969 481.390625 795.054688 487.65625 C 795.945312 489.882812 796.847656 492.128906 797.703125 494.441406 C 798.015625 495.285156 797.8125 496.316406 797.148438 497.269531 C 796.472656 498.238281 795.535156 498.820312 794.636719 498.820312 L 794.632812 498.820312 C 793.832031 498.820312 793.109375 498.367188 792.71875 497.617188 C 785.78125 484.300781 775.0625 475.917969 763.714844 467.042969 C 758.007812 462.585938 752.117188 457.972656 746.6875 452.660156 C 740.050781 446.15625 732.945312 439.914062 726.070312 433.871094 C 724.496094 432.488281 722.921875 431.105469 721.351562 429.714844 C 718.746094 427.414062 716.246094 424.773438 713.824219 422.21875 C 712.589844 420.917969 711.335938 419.597656 710.0625 418.304688 C 711.003906 420.144531 711.878906 422.039062 712.503906 424.035156 C 712.996094 425.597656 713.460938 427.179688 713.921875 428.765625 C 714.875 432.015625 715.855469 435.375 717.085938 438.511719 C 719.136719 443.738281 720.972656 449.117188 722.746094 454.324219 C 724.511719 459.5 726.335938 464.851562 728.363281 470.015625 C 728.679688 470.847656 728.503906 471.824219 727.886719 472.714844 C 727.359375 473.484375 726.40625 474.304688 725.328125 474.304688 C 724.472656 474.304688 723.746094 473.792969 723.429688 472.972656 C 719.914062 463.839844 709.492188 457.097656 701.882812 452.167969 C 697.59375 449.390625 693.484375 446.285156 689.511719 443.28125 L 687.441406 441.710938 C 687.066406 441.429688 686.707031 441.128906 686.363281 440.808594 C 687 443.007812 687.640625 445.484375 688.09375 447.976562 C 688.863281 452.207031 689.523438 456.511719 690.15625 460.671875 C 690.847656 465.191406 691.5625 469.851562 692.414062 474.414062 C 695.082031 488.625 694.667969 502.777344 694.269531 516.464844 C 694.125 521.5 693.972656 526.707031 693.972656 531.882812 C 693.96875 539.601562 693.300781 547.320312 692.660156 554.789062 C 691.808594 564.632812 690.925781 574.804688 691.59375 584.953125 C 692.601562 600.335938 696.257812 615.457031 699.796875 630.082031 C 700.558594 633.214844 701.316406 636.355469 702.050781 639.503906 C 702.246094 640.324219 702.011719 641.230469 701.414062 641.980469 C 700.746094 642.820312 699.753906 643.34375 698.816406 643.34375 C 698.761719 643.34375 698.585938 643.332031 698.527344 643.324219 C 694.03125 642.816406 689.460938 641.046875 685.042969 639.339844 C 682.675781 638.421875 680.441406 637.558594 678.253906 636.894531 C 672.414062 635.109375 667.714844 633.050781 663.824219 630.550781 C 669.761719 641.515625 675.5625 653.292969 679.464844 665.824219 C 682.238281 674.707031 684.382812 684.789062 686.230469 697.550781 C 687.390625 701.34375 688.265625 705.292969 689.109375 709.109375 C 690.5625 715.695312 692.066406 722.507812 695.101562 728.433594 C 695.519531 729.25 695.433594 730.246094 694.871094 731.171875 C 694.128906 732.390625 692.761719 733.070312 691.605469 732.777344 C 684.863281 731.082031 679.675781 727.988281 674.074219 724.410156 C 671.597656 722.832031 669.753906 721.035156 667.808594 719.132812 C 667.125 718.46875 666.433594 717.789062 665.695312 717.105469 C 665.019531 716.488281 664.277344 715.898438 663.492188 715.277344 C 661.742188 713.894531 659.933594 712.46875 658.683594 710.480469 C 658.117188 709.574219 657.628906 708.601562 657.152344 707.65625 C 655.886719 705.148438 654.691406 702.78125 652.261719 701.925781 C 651.175781 701.542969 650.085938 701.179688 648.996094 700.816406 C 647.144531 700.195312 645.226562 699.554688 643.355469 698.828125 C 642.386719 698.449219 641.492188 697.960938 640.671875 697.355469 C 641.316406 701.238281 641.710938 705.191406 641.058594 709.128906 C 640.886719 710.175781 639.816406 711.691406 638.339844 711.691406 C 637.90625 711.691406 637.476562 711.558594 637.113281 711.300781 C 635.242188 710 635.164062 707.792969 635.105469 706.179688 C 635.097656 705.902344 635.085938 705.628906 635.066406 705.367188 C 634.792969 701.503906 632.5625 698.042969 630.46875 694.964844 C 631.9375 703.078125 632.289062 710.34375 631.550781 717.015625 C 630.289062 728.457031 626.125 738.253906 621.71875 748.625 C 620.375 751.785156 618.988281 755.046875 617.707031 758.332031 C 616.621094 761.117188 615.796875 764.253906 614.925781 767.574219 C 613.226562 774.054688 611.46875 780.753906 607.480469 785.601562 C 607.1875 785.949219 606.105469 786.925781 604.929688 786.925781 C 604.03125 786.925781 603.292969 786.386719 603.003906 785.515625 C 601.675781 781.507812 601.699219 777.515625 601.714844 773.652344 C 601.742188 768.671875 601.761719 763.96875 599.042969 759.347656 C 596.605469 755.203125 593.292969 751.554688 590.089844 748.023438 C 586.988281 744.597656 583.78125 741.0625 581.25 736.988281 C 576.675781 729.636719 574.195312 720.980469 571.800781 712.609375 C 571.414062 711.253906 571.027344 709.90625 570.640625 708.585938 C 569.914062 706.113281 569.339844 703.511719 568.734375 700.753906 C 568.433594 699.398438 568.132812 698.03125 567.808594 696.667969 C 567.347656 699.113281 566.765625 701.464844 566.054688 703.699219 C 564.996094 707.0625 563.550781 710.4375 562.152344 713.699219 C 560.230469 718.195312 558.242188 722.847656 557.28125 727.425781 C 557.011719 728.71875 555.433594 730.296875 553.972656 730.296875 C 553.421875 730.296875 552.914062 730.082031 552.546875 729.699219 C 552.117188 729.246094 551.921875 728.625 551.960938 727.859375 C 552.0625 725.945312 551.054688 724.167969 549.988281 722.289062 C 548.898438 720.363281 547.65625 718.183594 547.519531 715.585938 C 547.511719 715.480469 547.507812 715.375 547.503906 715.265625 C 546.394531 719.5625 545.15625 724.148438 543.636719 728.679688 C 541.355469 735.472656 538.609375 741.742188 534.742188 749.007812 C 529.070312 759.640625 521.375 770.742188 513.628906 779.46875 C 512.535156 780.710938 510.574219 780.878906 509.726562 779.792969 C 509.421875 779.402344 509.121094 778.714844 509.390625 777.648438 L 510.054688 775.011719 C 511.679688 768.5 513.21875 762.351562 516.082031 756.007812 C 520.496094 746.242188 522.8125 737.867188 523.578125 728.859375 C 523.789062 726.378906 523.964844 723.898438 524.140625 721.417969 C 524.675781 713.789062 525.234375 705.902344 526.894531 698.207031 C 527.621094 694.8125 528.605469 691.359375 529.5625 688.023438 C 531.023438 682.90625 532.539062 677.617188 533.148438 672.441406 C 533.84375 666.542969 531.84375 661.382812 529.722656 655.921875 C 528.289062 652.21875 526.800781 648.394531 526.171875 644.246094 C 526.015625 643.21875 525.847656 642.167969 525.671875 641.101562 C 524.648438 634.777344 523.488281 627.605469 524.542969 621.242188 C 524.765625 619.929688 524.996094 618.574219 525.261719 617.199219 C 520.777344 623.648438 517.058594 630.921875 514.972656 637.425781 C 513.0625 643.398438 512.675781 649.398438 512.265625 655.757812 C 511.992188 660.015625 511.707031 664.421875 510.917969 668.785156 C 509.800781 674.9375 506.074219 680.449219 502.785156 685.308594 L 501.746094 686.847656 C 499.546875 690.132812 496.707031 693.054688 493.964844 695.878906 C 489.796875 700.167969 485.859375 704.222656 484.023438 709.398438 C 480.914062 718.191406 479.820312 726.277344 479.054688 736.480469 C 477.914062 751.722656 470.910156 767.863281 460.316406 779.65625 C 455.507812 785.015625 450.105469 790.082031 443.804688 795.144531 C 442.421875 796.253906 441.058594 797.605469 439.613281 799.03125 C 436.765625 801.851562 433.824219 804.761719 430.308594 806.242188 C 429.488281 806.589844 428.511719 806.386719 427.941406 805.734375 C 427.539062 805.277344 427.359375 804.652344 427.449219 804.019531 C 427.972656 800.136719 429.3125 796.089844 431.316406 792.304688 C 434.242188 786.8125 436.195312 780.996094 437.648438 773.457031 C 440.414062 759.105469 440.835938 746.261719 438.980469 733.035156 C 438.664062 730.804688 438.300781 728.546875 437.9375 726.277344 C 436.507812 717.382812 435.03125 708.191406 436.234375 699.195312 C 436.285156 698.800781 436.347656 698.40625 436.414062 698.007812 C 435.964844 698.566406 435.503906 699.113281 435.03125 699.648438 C 428.566406 706.914062 425.269531 714.53125 424.347656 724.339844 C 423 738.675781 418.519531 746.734375 406.609375 756.273438 C 392.238281 767.785156 376.195312 777 362.394531 784.496094 C 359.210938 786.226562 355.902344 787.859375 352.703125 789.433594 C 347.617188 791.9375 342.363281 794.523438 337.535156 797.554688 C 335.746094 798.679688 334.148438 800.386719 332.457031 802.195312 C 329.839844 804.996094 327.132812 807.890625 323.371094 808.875 C 323.175781 808.925781 322.957031 808.953125 322.742188 808.953125 Z M 365.398438 654.773438 C 365.703125 654.773438 366.011719 654.867188 366.277344 655.050781 C 366.882812 655.476562 367.097656 656.28125 366.78125 656.949219 C 365.519531 659.636719 364.25 662.605469 363.554688 666.09375 C 363.179688 667.984375 362.835938 669.867188 362.492188 671.746094 C 361.398438 677.71875 360.265625 683.894531 358.195312 689.914062 C 354.929688 699.402344 350.484375 708.484375 346.1875 717.265625 C 343.996094 721.757812 341.722656 726.398438 339.644531 731.023438 C 333.839844 743.957031 331.589844 754.101562 331.878906 766.03125 C 332.128906 776.226562 329.464844 785.574219 326.886719 794.613281 C 325.882812 798.125 324.851562 801.746094 323.992188 805.414062 C 326.273438 804.351562 328.210938 802.277344 330.246094 800.101562 C 331.996094 798.226562 333.804688 796.296875 335.933594 794.960938 C 340.886719 791.847656 346.21875 789.222656 351.375 786.683594 C 354.546875 785.121094 357.828125 783.503906 360.960938 781.800781 C 374.636719 774.371094 390.53125 765.238281 404.71875 753.878906 C 416.015625 744.832031 420.046875 737.578125 421.324219 724.039062 C 422.3125 713.539062 425.84375 705.386719 432.765625 697.601562 C 434.914062 695.191406 436.804688 692.40625 438.632812 689.722656 L 438.742188 689.5625 C 439.171875 688.929688 440 688.714844 440.695312 689.058594 C 441.378906 689.402344 441.703125 690.203125 441.445312 690.929688 C 440.359375 694.03125 439.648438 696.867188 439.285156 699.585938 C 438.140625 708.136719 439.582031 717.105469 440.976562 725.777344 C 441.34375 728.070312 441.714844 730.347656 442.027344 732.597656 C 443.933594 746.167969 443.503906 759.328125 440.675781 774.023438 C 439.160156 781.871094 437.113281 787.949219 434.039062 793.730469 C 432.523438 796.585938 431.425781 799.601562 430.816406 802.554688 C 433.15625 801.136719 435.351562 798.96875 437.484375 796.851562 C 438.921875 795.429688 440.410156 793.957031 441.917969 792.753906 C 448.085938 787.796875 453.367188 782.839844 458.070312 777.605469 C 468.222656 766.292969 474.9375 750.832031 476.03125 736.242188 C 476.8125 725.789062 477.941406 717.480469 481.171875 708.367188 C 483.226562 702.558594 487.582031 698.070312 491.796875 693.734375 C 494.441406 691.007812 497.179688 688.191406 499.230469 685.132812 L 500.277344 683.582031 C 503.546875 678.746094 506.933594 673.746094 507.929688 668.230469 C 508.691406 664.039062 508.96875 659.71875 509.238281 655.542969 C 509.640625 649.285156 510.058594 642.816406 512.082031 636.488281 C 514.75 628.152344 519.988281 618.621094 526.09375 610.992188 C 526.921875 609.964844 527.476562 608.578125 527.578125 608.3125 C 527.882812 607.53125 528.75 607.132812 529.535156 607.425781 C 530.3125 607.714844 530.722656 608.574219 530.449219 609.363281 C 530.34375 609.660156 530.09375 610.425781 529.664062 611.925781 C 528.710938 615.246094 528.101562 618.601562 527.578125 621.730469 C 526.609375 627.601562 527.726562 634.511719 528.710938 640.605469 C 528.886719 641.683594 529.058594 642.742188 529.214844 643.773438 C 529.796875 647.589844 531.222656 651.257812 532.597656 654.804688 C 534.757812 660.375 536.996094 666.136719 536.207031 672.785156 C 535.570312 678.207031 534.023438 683.617188 532.523438 688.851562 C 531.585938 692.140625 530.617188 695.542969 529.902344 698.835938 C 528.292969 706.324219 527.742188 714.101562 527.210938 721.621094 C 527.035156 724.117188 526.859375 726.613281 526.648438 729.105469 C 525.847656 738.476562 523.457031 747.15625 518.890625 757.253906 C 516.175781 763.273438 514.671875 769.222656 513.097656 775.515625 C 520.089844 767.242188 526.925781 757.203125 532.070312 747.558594 C 535.855469 740.449219 538.539062 734.324219 540.761719 727.695312 C 542.277344 723.1875 543.507812 718.59375 544.617188 714.308594 C 544.824219 713.492188 545.015625 712.621094 545.210938 711.726562 C 545.753906 709.261719 546.363281 706.46875 547.542969 704.105469 C 547.835938 703.515625 548.484375 703.179688 549.125 703.273438 C 549.78125 703.367188 550.296875 703.867188 550.417969 704.515625 C 550.8125 706.730469 550.71875 709.164062 550.632812 711.515625 C 550.582031 712.921875 550.535156 714.253906 550.59375 715.414062 C 550.695312 717.292969 551.65625 718.980469 552.671875 720.769531 C 553.453125 722.15625 554.257812 723.570312 554.703125 725.136719 C 555.78125 720.867188 557.601562 716.617188 559.367188 712.492188 C 560.734375 709.296875 562.148438 705.992188 563.164062 702.777344 C 564.480469 698.617188 565.351562 694.027344 565.769531 689.132812 C 565.824219 688.417969 566.375 687.84375 567.089844 687.75 C 567.804688 687.65625 568.480469 688.066406 568.726562 688.742188 C 570.035156 692.355469 570.898438 696.289062 571.738281 700.089844 C 572.335938 702.796875 572.898438 705.347656 573.597656 707.71875 C 573.984375 709.050781 574.371094 710.402344 574.761719 711.761719 C 577.101562 719.9375 579.519531 728.386719 583.871094 735.378906 C 586.253906 739.210938 589.367188 742.644531 592.378906 745.96875 C 595.6875 749.613281 599.105469 753.382812 601.699219 757.796875 C 604.847656 763.140625 604.824219 768.492188 604.796875 773.664062 C 604.777344 776.957031 604.761719 780.089844 605.527344 783.167969 C 608.820312 778.882812 610.433594 772.742188 611.992188 766.796875 C 612.886719 763.390625 613.730469 760.171875 614.882812 757.222656 C 616.179688 753.898438 617.578125 750.609375 618.929688 747.433594 C 623.246094 737.273438 627.324219 727.675781 628.535156 716.675781 C 629.445312 708.453125 628.609375 699.234375 625.984375 688.488281 C 625.808594 687.785156 626.15625 687.058594 626.816406 686.746094 C 627.464844 686.4375 628.25 686.625 628.691406 687.210938 C 629.789062 688.675781 631.222656 690.621094 632.628906 692.675781 C 635.046875 696.210938 637.792969 700.226562 638.140625 705.152344 C 638.160156 705.445312 638.171875 705.753906 638.1875 706.070312 C 638.203125 706.511719 638.21875 706.910156 638.253906 707.257812 C 638.675781 703.039062 637.863281 698.691406 637.011719 694.117188 L 636.65625 692.199219 C 636.519531 691.453125 636.949219 690.726562 637.664062 690.480469 C 638.371094 690.234375 639.164062 690.542969 639.511719 691.210938 C 640.796875 693.640625 642.375 695.15625 644.492188 695.980469 C 646.292969 696.679688 648.175781 697.308594 649.992188 697.917969 C 651.097656 698.285156 652.203125 698.65625 653.304688 699.042969 C 656.894531 700.304688 658.496094 703.480469 659.90625 706.28125 C 660.371094 707.199219 660.808594 708.070312 661.300781 708.855469 C 662.265625 710.394531 663.796875 711.597656 665.410156 712.875 C 666.210938 713.503906 667.035156 714.15625 667.796875 714.855469 C 668.554688 715.558594 669.269531 716.253906 669.972656 716.945312 C 671.800781 718.734375 673.53125 720.421875 675.742188 721.835938 C 681.050781 725.214844 685.953125 728.152344 692.144531 729.753906 C 692.191406 729.703125 692.246094 729.644531 692.28125 729.585938 C 689.148438 723.375 687.625 716.453125 686.148438 709.761719 C 685.3125 705.964844 684.445312 702.039062 683.300781 698.332031 C 683.277344 698.257812 683.257812 698.179688 683.25 698.097656 C 681.425781 685.449219 679.304688 675.476562 676.570312 666.730469 C 672.265625 652.90625 665.570312 639.941406 658.976562 627.992188 C 658.851562 627.773438 658.785156 627.527344 658.78125 627.273438 C 658.78125 626.988281 658.785156 626.707031 658.789062 626.417969 L 658.800781 625.9375 C 658.804688 625.339844 659.152344 624.800781 659.699219 624.550781 C 660.238281 624.3125 660.882812 624.402344 661.332031 624.796875 L 661.53125 624.980469 C 665.863281 628.773438 671.445312 631.601562 679.171875 633.964844 C 681.464844 634.664062 683.855469 635.585938 686.171875 636.480469 C 690.410156 638.121094 694.792969 639.816406 698.898438 640.285156 C 698.882812 640.261719 699 640.144531 699.066406 640.046875 C 698.34375 636.953125 697.597656 633.867188 696.851562 630.792969 C 693.28125 616.042969 689.589844 600.789062 688.566406 585.140625 C 687.886719 574.769531 688.777344 564.476562 689.632812 554.519531 C 690.277344 547.113281 690.9375 539.457031 690.9375 531.875 C 690.9375 526.652344 691.089844 521.425781 691.238281 516.367188 C 691.652344 502.21875 692.042969 488.859375 689.4375 474.972656 C 688.570312 470.359375 687.851562 465.667969 687.160156 461.125 C 686.527344 456.984375 685.871094 452.703125 685.109375 448.515625 C 684.464844 444.988281 683.417969 441.449219 682.578125 438.761719 C 682.148438 437.382812 681.535156 436.09375 680.949219 434.886719 C 680.628906 434.230469 680.816406 433.433594 681.410156 432.996094 C 681.996094 432.554688 682.816406 432.59375 683.359375 433.097656 C 684.324219 433.988281 685.199219 434.996094 686.042969 435.964844 C 687.132812 437.21875 688.160156 438.402344 689.304688 439.265625 L 691.382812 440.835938 C 695.3125 443.804688 699.378906 446.878906 703.574219 449.597656 C 710.394531 454.015625 719.390625 459.839844 724.253906 467.753906 C 722.710938 463.605469 721.277344 459.398438 719.878906 455.304688 C 718.113281 450.132812 716.289062 444.785156 714.265625 439.625 C 712.984375 436.359375 711.984375 432.929688 711.011719 429.617188 C 710.554688 428.050781 710.101562 426.488281 709.613281 424.941406 C 708.765625 422.246094 707.347656 419.613281 705.980469 417.070312 C 705.113281 415.472656 704.226562 413.824219 703.46875 412.144531 C 703.175781 411.507812 703.363281 410.75 703.914062 410.316406 C 704.464844 409.882812 705.242188 409.878906 705.792969 410.3125 C 709.5 413.179688 712.835938 416.703125 716.066406 420.113281 C 718.550781 422.734375 720.894531 425.207031 723.398438 427.421875 C 724.96875 428.808594 726.542969 430.191406 728.113281 431.570312 C 735.015625 437.636719 742.15625 443.910156 748.851562 450.46875 C 754.152344 455.664062 759.980469 460.21875 765.621094 464.628906 C 776.195312 472.898438 787.105469 481.433594 794.382812 494.226562 C 793.683594 492.382812 792.960938 490.574219 792.234375 488.78125 C 789.667969 482.367188 787.238281 476.300781 786.011719 469.230469 C 785.015625 463.488281 783.210938 458.449219 781.304688 453.113281 C 780.300781 450.3125 779.265625 447.417969 778.34375 444.386719 C 776.917969 439.671875 773.933594 435.285156 771.054688 431.042969 C 769.226562 428.351562 767.335938 425.570312 765.832031 422.695312 C 764.800781 420.734375 763.609375 418.773438 762.460938 416.878906 C 759.601562 412.167969 756.644531 407.296875 755.585938 401.617188 C 755.511719 401.207031 755.609375 400.777344 755.859375 400.4375 C 756.105469 400.097656 756.484375 399.875 756.902344 399.824219 C 758.300781 399.648438 759.726562 399.566406 761.261719 399.566406 C 764.855469 399.566406 768.398438 400.035156 771.828125 400.492188 C 774.597656 400.859375 777.15625 401.664062 779.632812 402.441406 C 781.90625 403.160156 784.0625 403.835938 786.335938 404.183594 C 786.464844 404.125 786.640625 403.976562 786.765625 403.835938 C 783.78125 401.304688 780.441406 399.367188 776.917969 397.324219 C 773.015625 395.066406 768.984375 392.726562 765.449219 389.496094 C 757.820312 382.527344 750.121094 374.046875 741.917969 363.570312 C 727.78125 345.527344 718.222656 324.386719 709.785156 305.734375 C 699.800781 283.648438 693.5625 259.558594 687.53125 236.257812 L 687.339844 235.527344 C 684.703125 225.335938 682.78125 214.839844 680.917969 204.6875 C 678.652344 192.347656 676.308594 179.582031 672.683594 167.386719 C 667.640625 150.449219 656.050781 140.449219 638.226562 137.675781 C 636.011719 137.332031 633.746094 137.15625 631.492188 137.15625 C 607.199219 137.15625 584.332031 157.414062 564.152344 175.289062 C 554.550781 183.792969 545.484375 191.828125 536.742188 197.417969 C 533.1875 199.6875 523.847656 204.972656 513.878906 204.972656 C 507.660156 204.972656 502.617188 202.882812 498.890625 198.753906 C 488.097656 186.796875 490.476562 167.132812 492.386719 151.332031 C 492.914062 146.972656 493.414062 142.847656 493.617188 139.191406 C 493.785156 136.082031 493.984375 132.949219 494.179688 129.796875 C 495.777344 104.195312 497.433594 77.722656 486.558594 54.308594 C 476.875 33.4375 458.199219 17.492188 435.332031 10.5625 C 424.542969 7.296875 413.332031 5.636719 402.011719 5.636719 C 370.148438 5.636719 343.042969 18.730469 327.652344 41.554688 C 310.363281 67.1875 315.261719 95.28125 320.453125 125.019531 C 324.410156 147.707031 328.5 171.171875 321.691406 193.273438 C 312.375 223.539062 284.992188 249.292969 265.210938 266.035156 C 257.457031 272.597656 246.992188 280.132812 234.847656 280.136719 C 231.53125 280.136719 228.195312 279.566406 224.921875 278.449219 C 214.953125 275.042969 206.859375 265.421875 200.257812 256.460938 C 194.433594 248.550781 189.765625 239.746094 185.253906 231.226562 L 184.910156 230.585938 C 181.300781 223.777344 178.214844 216.582031 175.230469 209.621094 C 170.074219 197.605469 164.746094 185.183594 156.632812 174.628906 C 149.007812 164.714844 138.402344 159.03125 127.53125 159.03125 C 123.675781 159.03125 119.84375 159.757812 116.140625 161.195312 C 105.082031 165.484375 95.308594 176.992188 87.109375 195.40625 C 73.796875 225.269531 68.371094 258.65625 63.128906 290.9375 C 61.195312 302.835938 59.195312 315.140625 56.835938 326.984375 C 52.515625 348.703125 46.875 368.285156 39.589844 386.863281 C 35.917969 396.21875 31.898438 405.601562 28.007812 414.675781 C 23.863281 424.34375 19.585938 434.332031 15.71875 444.3125 C 20.378906 442.339844 24.578125 436.507812 28.023438 431.722656 C 29.210938 430.074219 30.332031 428.519531 31.382812 427.242188 C 34.957031 422.890625 38.464844 418.285156 41.855469 413.828125 C 46.246094 408.0625 50.78125 402.101562 55.566406 396.5625 C 55.972656 396.089844 56.617188 395.917969 57.203125 396.109375 C 57.792969 396.304688 58.203125 396.835938 58.246094 397.453125 C 58.773438 404.917969 54.878906 414.46875 52.035156 421.441406 C 51.71875 422.210938 51.417969 422.953125 51.132812 423.660156 C 54.878906 423.625 62.203125 414.273438 66.578125 408.683594 C 68.03125 406.835938 69.28125 405.234375 70.347656 403.992188 C 70.785156 403.484375 71.503906 403.324219 72.117188 403.585938 C 72.734375 403.851562 73.101562 404.488281 73.027344 405.15625 C 71.695312 417.035156 73.269531 427.878906 78.128906 440.316406 C 80.007812 445.113281 82.003906 449.953125 83.929688 454.628906 C 87.9375 464.351562 92.082031 474.410156 95.398438 484.65625 C 97.082031 489.863281 98.386719 495.074219 99.390625 500.582031 C 101.410156 505.148438 102.890625 508.695312 104.191406 512.070312 C 107.226562 519.960938 109.023438 528.265625 110.632812 536.417969 C 111.914062 532.914062 113.453125 529.324219 115.285156 525.574219 C 115.832031 521.265625 116.328125 516.640625 116.800781 511.445312 C 118.222656 495.800781 120.398438 477.753906 128.226562 461.648438 C 133.058594 451.703125 139.195312 442.261719 145.136719 433.132812 C 146.164062 431.554688 147.191406 429.96875 148.214844 428.390625 C 148.613281 427.769531 149.390625 427.527344 150.078125 427.804688 C 150.757812 428.082031 151.140625 428.804688 150.992188 429.527344 C 150.429688 432.21875 149.753906 434.914062 149.09375 437.523438 C 148.386719 440.328125 147.660156 443.226562 147.082031 446.097656 C 146.464844 449.171875 146.15625 452.414062 145.855469 455.550781 C 145.738281 456.757812 145.625 457.980469 145.488281 459.210938 C 147.890625 453.828125 151.535156 449.226562 155.082031 444.746094 C 157.441406 441.765625 159.882812 438.679688 161.886719 435.441406 C 162.261719 434.832031 163.007812 434.566406 163.675781 434.796875 C 164.351562 435.023438 164.777344 435.6875 164.707031 436.394531 C 163.875 444.785156 161.964844 453.199219 160.117188 461.335938 C 158.480469 468.542969 156.789062 475.996094 155.871094 483.34375 C 154.710938 492.640625 154.296875 502.230469 153.898438 511.507812 L 153.875 512.066406 C 153.835938 512.964844 153.78125 513.882812 153.726562 514.8125 C 153.9375 516.660156 154.105469 518.355469 154.230469 519.964844 C 159.441406 512.78125 165.921875 505.9375 173.9375 499.148438 C 175.585938 497.019531 177.246094 494.894531 178.941406 492.777344 C 183.226562 487.417969 188.082031 482.652344 192.773438 478.035156 C 193.964844 476.867188 195.15625 475.691406 196.351562 474.503906 C 199.429688 471.429688 202.886719 468.761719 206.230469 466.183594 C 209.578125 463.601562 212.746094 461.160156 215.597656 458.324219 L 216.359375 457.585938 C 216.851562 457.109375 217.59375 457.019531 218.1875 457.363281 C 218.777344 457.703125 219.066406 458.394531 218.902344 459.054688 C 216.308594 469.503906 213.242188 478.890625 209.527344 487.753906 C 203.476562 502.191406 197.886719 515.175781 190.765625 527.824219 C 184.90625 538.222656 177.082031 548.019531 169.511719 557.488281 C 167.460938 560.054688 165.425781 562.601562 163.449219 565.132812 C 159.738281 569.894531 155.800781 574.566406 151.996094 579.089844 C 147.230469 584.75 142.304688 590.601562 137.808594 596.632812 C 129.605469 607.644531 122.433594 619.59375 115.90625 630.867188 C 109.621094 641.710938 103.894531 654.179688 98.394531 668.984375 C 97.730469 670.769531 97.058594 672.550781 96.382812 674.335938 C 92.40625 684.84375 88.300781 695.695312 86.691406 706.902344 C 90.984375 704.023438 94.664062 699.707031 98.234375 695.527344 C 100.566406 692.800781 102.972656 689.980469 105.570312 687.558594 C 109.285156 684.089844 110.671875 683.613281 111.613281 683.613281 C 112.332031 683.613281 112.960938 683.949219 113.332031 684.535156 C 114.050781 685.660156 113.726562 687.308594 112.085938 690.824219 L 111.953125 691.109375 L 108.929688 700.207031 C 107.792969 703.605469 106.859375 707.117188 106.261719 710.164062 C 107.285156 709.015625 108.289062 707.820312 109.261719 706.65625 C 110.886719 704.71875 112.566406 702.714844 114.398438 700.859375 C 114.859375 700.394531 115.347656 699.96875 115.832031 699.542969 C 116.3125 699.121094 116.796875 698.703125 117.246094 698.226562 C 117.292969 698.179688 117.339844 698.136719 117.386719 698.097656 C 122.65625 693.0625 124.375 693.0625 125.023438 693.0625 C 125.707031 693.0625 126.316406 693.324219 126.742188 693.800781 C 127.269531 694.394531 127.464844 695.214844 127.339844 696.320312 C 127.234375 697.25 126.996094 698.191406 126.761719 699.105469 C 126.292969 700.953125 125.851562 702.703125 126.523438 704.125 C 127.519531 706.207031 128.75 708.117188 130.058594 710.136719 C 131.417969 712.242188 132.828125 714.421875 133.9375 716.8125 C 137.132812 723.714844 139.769531 731.097656 142.324219 738.246094 C 143.402344 741.269531 144.476562 744.285156 145.589844 747.25 C 146.019531 748.398438 146.46875 749.542969 146.910156 750.691406 C 148.691406 755.277344 150.53125 760.015625 151.53125 764.964844 C 151.964844 767.132812 152.058594 769.308594 152.144531 771.414062 C 152.214844 773.054688 152.285156 774.625 152.5 776.160156 C 154.628906 774.304688 156.492188 772.1875 158.300781 770.128906 C 161.359375 766.652344 164.523438 763.054688 169.09375 760.484375 C 172.460938 758.59375 176.046875 756.933594 179.515625 755.320312 C 184.195312 753.152344 189.035156 750.90625 193.277344 748.117188 C 202.417969 742.101562 209.167969 734.417969 216.316406 726.289062 C 219.808594 722.316406 223.417969 718.210938 227.34375 714.296875 C 229.644531 712 232.121094 709.878906 234.519531 707.828125 C 237.480469 705.292969 240.546875 702.671875 243.222656 699.753906 C 246.765625 695.878906 249.269531 691.371094 251.527344 687.089844 C 251.589844 686.972656 251.667969 686.863281 251.761719 686.765625 C 253.828125 684.535156 255.742188 682.226562 257.503906 680.070312 C 257.960938 679.511719 258.515625 678.914062 259.34375 678.914062 C 259.859375 678.914062 260.402344 679.207031 260.683594 679.636719 C 261.257812 680.496094 261.117188 681.367188 259.027344 686.300781 L 258.820312 686.792969 C 257.910156 689.085938 257.59375 691.472656 257.253906 694 C 257.117188 695.03125 256.980469 696.078125 256.789062 697.140625 C 259.09375 695.964844 261.359375 694.542969 263.558594 693.15625 C 265.605469 691.867188 267.726562 690.539062 269.902344 689.386719 C 270.464844 689.085938 271.15625 689.167969 271.636719 689.597656 C 272.113281 690.023438 272.273438 690.703125 272.042969 691.296875 C 269.132812 698.679688 267.113281 704.980469 266.722656 711.742188 L 266.621094 713.699219 C 266.382812 718.21875 266.15625 722.488281 264.921875 727.066406 C 264.695312 727.917969 264.421875 728.765625 264.144531 729.609375 C 263.582031 731.355469 263.039062 733.023438 262.910156 734.695312 C 264.25 734.207031 266.25 732.503906 267.078125 731.800781 C 267.550781 731.398438 267.929688 731.085938 268.15625 730.929688 C 274.566406 726.53125 282.296875 725.402344 289.773438 724.308594 C 291.398438 724.074219 293.007812 723.835938 294.589844 723.570312 C 305.875 721.660156 317.589844 718.9375 326.816406 711.996094 C 330.777344 709.015625 344.011719 698.398438 347.960938 686.980469 C 348.832031 684.453125 349.402344 681.835938 349.953125 679.304688 C 351.023438 674.40625 352.136719 669.335938 355.4375 664.6875 C 357.394531 661.933594 359.796875 659.625 362.121094 657.394531 C 362.859375 656.679688 363.605469 655.96875 364.332031 655.242188 C 364.617188 654.925781 365.003906 654.773438 365.398438 654.773438 Z M 365.398438 654.773438 " fill-opacity="1" fill-rule="nonzero"/><path fill="#bec0c2" d="M 157.316406 192.785156 C 177.6875 242.804688 191.9375 295.5625 219.425781 342.417969 C 233.824219 366.957031 250.960938 390.261719 271.601562 409.941406 C 289.453125 426.960938 308.878906 445.582031 332.027344 455.191406 C 323.285156 443.023438 310.65625 434.160156 301.089844 422.664062 C 290.445312 409.867188 280.785156 396.296875 271.84375 382.265625 C 263.144531 368.609375 254.621094 354.847656 248.253906 339.921875 C 242.269531 325.902344 238.304688 311.128906 235.882812 296.101562 C 235.710938 295.027344 236.988281 294.449219 237.636719 295.363281 C 244.464844 305.042969 250.078125 315.519531 256.976562 325.140625 C 263.695312 334.496094 271.425781 343.136719 279.921875 350.914062 C 300.542969 369.796875 325.042969 385.835938 351.058594 396.222656 C 374.957031 405.765625 403.4375 413.210938 429.242188 408.292969 C 468.527344 400.800781 489.699219 366.066406 505.628906 332.222656 C 505.078125 332.902344 504.539062 333.589844 503.957031 334.238281 C 487.492188 352.761719 464.300781 365.234375 441.003906 372.941406 C 416.789062 380.949219 390.851562 383.769531 366.160156 376.175781 C 321.609375 362.460938 287.386719 324.585938 267.5625 283.597656 C 267.285156 283.023438 267.519531 282.402344 268.136719 282.195312 C 274.789062 279.941406 279.488281 273.800781 283.730469 268.515625 C 288.214844 262.929688 292.851562 257.472656 297.292969 251.847656 C 306.847656 239.734375 318.011719 226.640625 322.605469 211.636719 C 326.082031 200.277344 325.253906 188.109375 323.386719 176.410156 C 322.882812 181.941406 321.875 187.417969 320.214844 192.824219 C 311.417969 221.390625 286.523438 245.984375 264.207031 264.867188 C 253.074219 274.289062 240.257812 282.078125 225.402344 277.007812 C 215.539062 273.636719 207.398438 263.601562 201.472656 255.554688 C 195.566406 247.539062 190.894531 238.644531 186.246094 229.871094 C 176.414062 211.328125 170.773438 190.53125 157.828125 173.699219 C 152.789062 167.152344 146.191406 162.125 138.859375 159.507812 C 147.1875 169.226562 153.035156 182.273438 157.316406 192.785156 Z M 157.316406 192.785156 " fill-opacity="0.5" fill-rule="nonzero"/><path fill="#bec0c2" d="M 362.238281 260.183594 C 352.957031 246.101562 346.613281 230.625 340.890625 214.875 C 343.101562 234.0625 346.785156 253.199219 356.078125 269.949219 C 363.082031 282.578125 373.453125 293.269531 386.902344 298.996094 C 399.8125 304.496094 414.605469 307.375 428.757812 306.84375 C 416.242188 301.640625 403.25 297.097656 391.824219 289.742188 C 379.988281 282.128906 369.972656 271.925781 362.238281 260.183594 Z M 362.238281 260.183594 " fill-opacity="0.5" fill-rule="nonzero"/><path fill="#bec0c2" d="M 405.988281 279.191406 C 416.90625 278.777344 427.613281 274.160156 436.613281 268.210938 C 446.933594 261.386719 456.453125 252.519531 461.507812 241.027344 C 467.550781 227.3125 469.707031 212.53125 470.523438 197.585938 C 458.707031 231.75 438.910156 264.726562 405.988281 279.191406 Z M 405.988281 279.191406 " fill-opacity="0.5" fill-rule="nonzero"/><path fill="#bec0c2" d="M 97.898438 501.03125 C 99.59375 504.855469 101.238281 508.699219 102.742188 512.613281 C 106.4375 522.226562 108.257812 532.363281 110.222656 542.449219 C 111.890625 536.78125 114.140625 531.324219 116.746094 526.019531 C 117.363281 521.191406 117.859375 516.363281 118.296875 511.582031 C 119.824219 494.792969 122.15625 477.59375 129.574219 462.3125 C 135.191406 450.761719 142.503906 440.019531 149.46875 429.214844 C 148.3125 434.773438 146.675781 440.21875 145.558594 445.792969 C 144.3125 452.003906 144.328125 458.488281 143.117188 464.769531 C 142.808594 466.335938 145.003906 465.195312 145.253906 464.28125 C 148.292969 453.234375 157.292969 445.734375 163.167969 436.238281 C 161.605469 451.960938 156.296875 467.433594 154.332031 483.148438 C 153.144531 492.691406 152.738281 502.390625 152.328125 511.996094 C 152.289062 512.929688 152.230469 513.886719 152.171875 514.847656 C 152.535156 518.042969 152.824219 521.246094 152.957031 524.46875 C 159.003906 515.234375 166.613281 507.316406 175.03125 500.207031 C 176.699219 498.042969 178.386719 495.878906 180.117188 493.722656 C 185.402344 487.121094 191.449219 481.527344 197.40625 475.582031 C 203.390625 469.609375 210.773438 465.253906 216.652344 459.402344 C 216.898438 459.152344 217.148438 458.921875 217.402344 458.675781 C 215.003906 468.335938 212 477.855469 208.097656 487.15625 C 205.039062 494.453125 201.984375 501.660156 198.699219 508.761719 C 206.34375 498.4375 213.601562 487.867188 220.765625 477.59375 C 227.496094 467.9375 234.011719 457.949219 238.972656 447.25 C 240.789062 443.328125 233.054688 437.667969 230.523438 434.675781 C 227.28125 430.84375 224.132812 426.917969 221.15625 422.863281 C 209.683594 407.246094 200.085938 390.414062 191.484375 373.074219 C 196.019531 389.648438 202.707031 406.019531 201.601562 423.398438 C 201.546875 424.285156 200.277344 424.792969 199.816406 423.878906 C 190.242188 404.851562 179.085938 386.664062 169.574219 367.601562 C 160.515625 349.449219 153.453125 330.398438 147.578125 310.992188 C 141.414062 290.640625 136.554688 269.917969 132.804688 248.992188 C 130.472656 235.984375 127.144531 222.871094 126.128906 209.644531 C 121.679688 251.996094 123.695312 295.386719 128.066406 337.519531 C 130.332031 359.367188 130.6875 380.308594 125.523438 401.769531 C 122.167969 415.703125 118.097656 433.492188 106.582031 443.171875 C 105.957031 443.695312 104.964844 443.375 104.949219 442.492188 C 104.21875 399.050781 102.226562 355.644531 101.324219 312.207031 C 96.257812 341.027344 92.027344 371.21875 68.378906 391.234375 C 67.609375 391.882812 66.636719 391.253906 66.78125 390.304688 C 69.03125 375.222656 73.351562 360.527344 75.363281 345.414062 C 68.269531 358.398438 64.351562 373.363281 53.097656 383.597656 C 52.453125 384.183594 51.125 383.621094 51.5 382.664062 C 70.921875 333.714844 67.105469 280.335938 73.800781 228.9375 C 65.1875 260.894531 61.691406 294.667969 55.320312 326.691406 C 51.265625 347.058594 45.734375 366.964844 38.148438 386.308594 C 30.402344 406.066406 21.355469 425.292969 13.753906 445.117188 C 13.582031 445.570312 13.675781 446.480469 14.390625 446.324219 C 22.007812 444.699219 28.050781 433.6875 32.546875 428.210938 C 40.753906 418.226562 48.253906 407.34375 56.703125 397.5625 C 57.28125 405.710938 52.226562 416.699219 49.445312 423.726562 C 49.332031 424.011719 49.261719 424.570312 49.582031 424.769531 C 54.882812 428.03125 66.144531 411.21875 71.488281 404.988281 C 70.0625 417.722656 71.929688 428.703125 76.6875 440.871094 C 82.460938 455.640625 89.03125 470.011719 93.921875 485.128906 C 95.644531 490.460938 96.941406 495.742188 97.898438 501.03125 Z M 97.898438 501.03125 " fill-opacity="0.5" fill-rule="nonzero"/><path fill="#bec0c2" d="M 388.265625 553.304688 C 363.757812 545.503906 342.804688 528.703125 325.210938 510.394531 C 306.828125 491.261719 290.347656 470.082031 274.410156 448.894531 C 262.511719 433.066406 251.128906 416.683594 241.820312 399.191406 C 248.554688 414.523438 255.925781 429.570312 263.71875 444.394531 C 277.25 470.136719 291.351562 495.835938 306.558594 520.628906 C 319.835938 542.285156 336.375 564.253906 358.78125 577.152344 C 386.132812 592.890625 419.234375 590.765625 445.761719 574.335938 C 456.542969 567.65625 466.125 559.546875 475.351562 551.007812 C 469.78125 552.664062 464.21875 553.957031 458.953125 555.003906 C 435.90625 559.570312 410.882812 560.507812 388.265625 553.304688 Z M 388.265625 553.304688 " fill-opacity="0.5" fill-rule="nonzero"/><path fill="#bec0c2" d="M 796.273438 494.96875 C 793.023438 486.1875 789.128906 478.34375 787.503906 468.972656 C 785.941406 459.988281 782.414062 452.582031 779.792969 443.945312 C 777.375 435.980469 771.019531 429.332031 767.167969 421.988281 C 763.59375 415.175781 758.496094 408.996094 757.074219 401.34375 C 761.945312 400.742188 766.703125 401.355469 771.609375 402.007812 C 776.75 402.6875 781.199219 404.976562 786.21875 405.714844 C 787.300781 405.875 789.171875 403.921875 788.085938 402.976562 C 781.503906 397.234375 773.070312 394.40625 766.464844 388.367188 C 757.925781 380.566406 750.226562 371.71875 743.105469 362.632812 C 729.511719 345.277344 720.203125 325.089844 711.164062 305.105469 C 701.125 282.90625 694.898438 258.679688 688.804688 235.144531 C 682.972656 212.609375 680.769531 189.257812 674.128906 166.953125 C 668.835938 149.15625 656.726562 139.007812 638.445312 136.164062 C 599.257812 130.066406 565.117188 177.445312 535.898438 196.128906 C 525.828125 202.566406 509.257812 207.96875 500.007812 197.730469 C 490 186.652344 491.828125 168.597656 493.703125 153.03125 C 491.820312 159.777344 490.210938 166.597656 489.175781 173.601562 C 487.480469 185.066406 486.304688 198.644531 491.785156 209.34375 C 494.230469 214.128906 497.878906 218.175781 502.75 220.578125 C 509.949219 224.125 517.285156 223.113281 524.695312 220.691406 C 532.734375 218.066406 542.199219 212.542969 550.933594 213.554688 C 558.496094 214.429688 561.488281 220.933594 562.492188 227.867188 C 563.769531 236.675781 563.0625 245.625 562.972656 254.488281 C 562.8125 269.976562 561.9375 285.453125 560.347656 300.859375 C 554.433594 358.320312 544.054688 416.191406 525.527344 471.015625 C 582.394531 404.644531 586.320312 310.933594 593.164062 227.863281 C 593.25 226.835938 594.773438 226.5 595.042969 227.609375 C 601.03125 252.308594 598.109375 280.117188 609.566406 303.300781 C 612.132812 279.300781 612.074219 255.03125 617.644531 231.425781 C 617.855469 230.539062 619.324219 230.480469 619.492188 231.425781 C 622.410156 248.042969 623.542969 264.875 625.710938 281.589844 C 628.054688 299.605469 632.21875 316.625 639.28125 333.390625 C 646.265625 349.972656 654.402344 366.101562 663.726562 381.503906 C 671.597656 394.503906 683.347656 404.566406 691.214844 417.5625 C 691.648438 418.277344 690.9375 419.210938 690.136719 418.972656 C 675.8125 414.679688 661.4375 410.101562 650.34375 399.960938 C 654.34375 409.230469 658.925781 418.230469 662.945312 427.492188 C 663.277344 428.269531 662.511719 429.433594 661.632812 428.804688 C 646.757812 418.113281 632.664062 405.988281 620.179688 392.441406 C 633.058594 419.015625 644.8125 446.15625 652.5625 474.6875 C 658.195312 495.453125 662.773438 516.992188 661.226562 538.601562 C 660.390625 550.253906 658.105469 562.257812 660.046875 573.894531 C 661.820312 584.5 665.472656 594.605469 668.386719 604.921875 C 668.601562 605.671875 667.6875 606.515625 666.980469 606.003906 C 643.8125 589.148438 617.1875 571.714844 598.925781 549.011719 C 602.652344 561.148438 606.945312 573.113281 610.203125 585.394531 C 614.175781 600.359375 615.90625 614.90625 613.777344 630.3125 C 611.398438 647.492188 607.667969 664.851562 611.847656 682.066406 C 612.101562 683.125 610.667969 683.742188 610.097656 682.804688 C 602.003906 669.503906 595.574219 655.066406 591.113281 640.078125 C 591.925781 646.832031 592.335938 653.636719 591.691406 660.707031 C 590.269531 676.292969 588.902344 691.882812 588.191406 707.527344 C 588.148438 708.570312 586.550781 708.878906 586.316406 707.78125 C 581.230469 684.195312 565.890625 666.738281 553.609375 646.707031 C 547.371094 636.535156 543.667969 625.765625 542.882812 613.800781 C 542.128906 602.335938 543.199219 590.910156 544.027344 579.488281 C 539.789062 585.800781 536.777344 592.726562 534.683594 600.085938 C 534.375 601.167969 532.875 600.886719 532.804688 599.835938 C 531.871094 586.71875 532.0625 573.828125 533.867188 561.054688 C 532.296875 562.765625 530.78125 564.5 529.324219 566.25 C 522.800781 574.082031 516.367188 582.828125 512.910156 592.515625 C 509.386719 602.40625 508.109375 612.730469 506.707031 623.082031 C 505.300781 633.414062 503.535156 643.664062 499.34375 653.285156 C 495.480469 662.15625 490.40625 670.375 484.863281 678.289062 C 473.605469 694.351562 461.171875 709.726562 454.460938 728.402344 C 454.152344 729.246094 452.855469 729.378906 452.613281 728.402344 C 444.988281 697.777344 448.527344 663.042969 459.484375 633.425781 C 451.367188 641.902344 444.925781 651.847656 437.40625 660.847656 C 436.777344 661.597656 435.539062 660.796875 435.808594 659.917969 C 439.6875 646.890625 443.984375 633.992188 449.492188 621.621094 C 442.71875 628.507812 436.640625 636.042969 431.835938 644.445312 C 421.941406 661.761719 420.121094 681.441406 412.902344 699.753906 C 407 714.734375 397.953125 727.152344 385.304688 737.121094 C 373.210938 746.652344 359.273438 753.609375 346.296875 761.820312 C 345.628906 762.242188 344.574219 761.535156 344.890625 760.734375 C 350.09375 747.507812 359.910156 736.84375 365.539062 723.824219 C 371.933594 709.042969 373.664062 693.140625 375.179688 677.269531 C 377.363281 654.332031 380.746094 630.082031 394.863281 611.269531 C 385.902344 616.25 377.667969 622.316406 370.53125 629.769531 C 362.328125 638.347656 355.832031 648.167969 348.304688 657.289062 C 332.0625 676.972656 309.421875 687.949219 287.464844 699.949219 C 286.875 700.277344 285.960938 699.882812 286.027344 699.125 C 288.328125 670.679688 289.5625 641.871094 293.925781 613.601562 C 284.695312 630.957031 275.300781 648.203125 263.1875 663.742188 C 252.382812 677.605469 239.625 688.269531 224.601562 697.304688 C 209.324219 706.492188 193.351562 714.636719 179.929688 726.535156 C 179.136719 727.234375 177.847656 726.34375 178.425781 725.375 C 183.851562 716.34375 184.574219 705.433594 185.238281 695.164062 C 185.832031 686.050781 186.4375 677.109375 188.660156 668.222656 C 193.460938 649.054688 199.9375 630.289062 208.308594 612.386719 C 188.480469 637.261719 161.101562 655.300781 134.664062 672.457031 C 133.925781 672.933594 133.066406 672.152344 133.253906 671.375 C 137.027344 655.765625 146.234375 642.300781 151.5625 627.285156 C 138.871094 642.828125 126.324219 658.488281 115.136719 675.167969 C 114.546875 676.046875 113.074219 675.511719 113.386719 674.429688 C 120.804688 648.660156 127.402344 622.589844 135.585938 597.054688 C 127.855469 607.597656 121.113281 618.78125 114.5625 630.085938 C 107.507812 642.273438 101.84375 655.257812 96.945312 668.4375 C 92.132812 681.394531 86.660156 694.378906 84.957031 708.195312 C 84.847656 709.085938 85.640625 709.265625 86.296875 708.878906 C 94.375 704.105469 99.765625 695.035156 106.59375 688.664062 C 115.96875 679.921875 110.667969 690.085938 110.507812 690.546875 C 109.492188 693.605469 108.476562 696.65625 107.457031 699.714844 C 106.179688 703.554688 104.921875 708.210938 104.320312 712.265625 C 104.105469 713.722656 105.726562 712.964844 106.234375 712.421875 C 109.429688 709.019531 112.1875 705.246094 115.46875 701.921875 C 116.390625 700.988281 117.425781 700.226562 118.339844 699.269531 C 117.65625 699.984375 126.378906 691.085938 125.804688 696.136719 C 125.492188 698.859375 123.816406 702.011719 125.125 704.769531 C 127.238281 709.207031 130.445312 712.945312 132.53125 717.441406 C 137.03125 727.15625 140.375 737.738281 144.140625 747.773438 C 146.300781 753.515625 148.792969 759.222656 150.011719 765.25 C 150.84375 769.371094 150.359375 773.617188 151.199219 777.726562 C 151.386719 778.613281 152.300781 778.28125 152.800781 777.871094 C 158.972656 772.792969 162.523438 765.902344 169.824219 761.796875 C 177.691406 757.378906 186.609375 754.300781 194.097656 749.371094 C 208.039062 740.203125 216.683594 727.042969 228.402344 715.355469 C 233.511719 710.257812 239.417969 706.113281 244.328125 700.765625 C 247.890625 696.871094 250.433594 692.386719 252.863281 687.785156 C 254.886719 685.597656 256.78125 683.328125 258.671875 681.011719 C 260.847656 678.339844 257.652344 685.527344 257.386719 686.207031 C 255.789062 690.230469 255.886719 694.476562 254.914062 698.59375 C 254.789062 699.121094 255.292969 699.503906 255.777344 699.289062 C 260.921875 696.980469 265.574219 693.375 270.601562 690.707031 C 267.929688 697.492188 265.605469 704.265625 265.179688 711.628906 C 264.890625 716.804688 264.796875 721.574219 263.429688 726.640625 C 262.617188 729.652344 261.253906 732.578125 261.335938 735.722656 C 261.34375 735.984375 261.535156 736.175781 261.761719 736.253906 C 263.890625 736.992188 268 732.855469 269.007812 732.164062 C 276.492188 727.03125 286.128906 726.523438 294.832031 725.050781 C 306.328125 723.105469 318.207031 720.347656 327.722656 713.191406 C 335.773438 707.128906 346.015625 697.214844 349.394531 687.449219 C 351.980469 679.957031 351.882812 672.285156 356.671875 665.546875 C 359.152344 662.054688 362.40625 659.289062 365.402344 656.292969 C 363.984375 659.300781 362.75 662.320312 362.058594 665.792969 C 360.472656 673.785156 359.417969 681.660156 356.753906 689.410156 C 351.851562 703.644531 344.398438 716.722656 338.253906 730.390625 C 332.886719 742.347656 330.039062 752.910156 330.355469 766.0625 C 330.707031 780.476562 325.175781 792.875 322.132812 806.675781 C 321.996094 807.273438 322.515625 807.511719 323.007812 807.378906 C 328.625 805.910156 331.925781 799.269531 336.746094 796.246094 C 344.679688 791.261719 353.460938 787.609375 361.691406 783.136719 C 377.050781 774.789062 392.019531 766 405.675781 755.0625 C 416.9375 746.039062 421.492188 738.554688 422.84375 724.175781 C 423.792969 714.128906 427.152344 706.203125 433.910156 698.613281 C 436.160156 696.082031 438.078125 693.246094 440.003906 690.417969 C 438.996094 693.289062 438.1875 696.246094 437.769531 699.382812 C 436.289062 710.425781 438.980469 721.90625 440.515625 732.808594 C 442.472656 746.753906 441.832031 759.917969 439.171875 773.726562 C 437.839844 780.628906 435.992188 786.796875 432.691406 793.007812 C 430.863281 796.453125 429.507812 800.351562 428.984375 804.207031 C 428.921875 804.667969 429.28125 805.011719 429.734375 804.816406 C 434.691406 802.734375 438.683594 797.296875 442.871094 793.9375 C 448.738281 789.226562 454.179688 784.21875 459.207031 778.621094 C 469.34375 767.335938 476.421875 751.464844 477.558594 736.351562 C 478.28125 726.636719 479.328125 718.148438 482.609375 708.871094 C 485.832031 699.773438 495.132812 693.988281 500.503906 685.976562 C 504.058594 680.667969 508.265625 674.949219 509.441406 668.5 C 511.347656 657.949219 510.230469 647.289062 513.542969 636.949219 C 516.316406 628.273438 521.636719 619.007812 527.292969 611.941406 C 528.214844 610.789062 528.820312 609.332031 529.007812 608.851562 C 528.898438 609.160156 528.640625 609.949219 528.195312 611.5 C 527.253906 614.792969 526.632812 618.097656 526.074219 621.476562 C 524.890625 628.632812 526.617188 636.882812 527.703125 644 C 529.226562 653.964844 535.917969 662.152344 534.6875 672.601562 C 533.660156 681.308594 530.246094 689.96875 528.40625 698.511719 C 526.25 708.554688 525.992188 718.769531 525.125 728.972656 C 524.273438 738.90625 521.582031 747.589844 517.5 756.621094 C 514.304688 763.683594 512.773438 770.597656 510.898438 778.007812 C 510.546875 779.375 511.835938 779.203125 512.507812 778.441406 C 520.308594 769.65625 527.875 758.664062 533.414062 748.273438 C 536.945312 741.660156 539.808594 735.324219 542.210938 728.179688 C 543.695312 723.746094 544.925781 719.21875 546.09375 714.691406 C 546.878906 711.648438 547.40625 707.804688 548.90625 704.789062 C 549.507812 708.128906 548.894531 712.316406 549.066406 715.492188 C 549.316406 720.160156 553.75 723.394531 553.507812 727.929688 C 553.410156 729.785156 555.597656 728.109375 555.808594 727.105469 C 557.5 719.023438 562.121094 711.15625 564.621094 703.234375 C 566.03125 698.757812 566.882812 694.003906 567.285156 689.261719 C 569.464844 695.28125 570.410156 702.320312 572.125 708.144531 C 574.882812 717.515625 577.367188 727.824219 582.570312 736.179688 C 587.644531 744.34375 595.5 750.269531 600.378906 758.566406 C 605.523438 767.308594 601.574219 776.261719 604.472656 785.027344 C 604.765625 785.90625 606.035156 784.960938 606.320312 784.621094 C 612.070312 777.632812 613.039062 766.121094 616.300781 757.773438 C 621.644531 744.089844 628.417969 731.632812 630.050781 716.839844 C 631.105469 707.300781 629.769531 697.546875 627.457031 688.121094 C 628.789062 689.894531 630.097656 691.683594 631.355469 693.53125 C 633.789062 697.085938 636.292969 700.816406 636.609375 705.25 C 636.726562 706.90625 636.507812 709 638.003906 710.042969 C 638.679688 710.515625 639.472656 709.4375 639.566406 708.875 C 640.492188 703.285156 639.183594 697.609375 638.152344 691.917969 C 639.410156 694.308594 641.152344 696.320312 643.921875 697.398438 C 646.84375 698.535156 649.835938 699.441406 652.785156 700.484375 C 656.835938 701.90625 657.9375 706.382812 659.992188 709.664062 C 661.625 712.265625 664.519531 713.925781 666.746094 715.980469 C 669.507812 718.53125 671.695312 721.066406 674.90625 723.117188 C 680.472656 726.667969 685.480469 729.652344 691.992188 731.289062 C 692.941406 731.53125 694.203125 730.003906 693.753906 729.125 C 688.835938 719.535156 687.945312 708.230469 684.746094 697.882812 C 683.210938 687.222656 681.21875 676.535156 678.015625 666.273438 C 673.753906 652.597656 667.199219 639.761719 660.296875 627.253906 C 660.289062 626.816406 660.308594 626.382812 660.308594 625.945312 C 660.40625 626.03125 660.496094 626.125 660.59375 626.207031 C 665.726562 630.695312 672.265625 633.453125 678.710938 635.425781 C 685.121094 637.382812 692.097656 641.050781 698.710938 641.800781 C 699.597656 641.902344 700.792969 640.789062 700.574219 639.84375 C 696.308594 621.617188 691.304688 603.800781 690.078125 585.039062 C 688.902344 567.078125 692.449219 549.714844 692.453125 531.875 C 692.457031 512.507812 694.527344 493.890625 690.921875 474.6875 C 689.269531 465.894531 688.203125 457.042969 686.597656 448.242188 C 685.992188 444.90625 685.03125 441.546875 684.023438 438.304688 C 683.566406 436.855469 682.941406 435.523438 682.308594 434.21875 C 684.425781 436.171875 686.148438 438.8125 688.367188 440.484375 C 693.09375 444.042969 697.753906 447.65625 702.722656 450.878906 C 710.859375 456.148438 721.210938 462.929688 724.863281 472.410156 C 725.308594 473.574219 727.347656 471.617188 726.949219 470.570312 C 722.871094 460.179688 719.746094 449.457031 715.671875 439.066406 C 713.820312 434.347656 712.574219 429.320312 711.054688 424.484375 C 709.621094 419.925781 706.792969 415.835938 704.84375 411.515625 C 711.1875 416.433594 716.441406 423.324219 722.371094 428.566406 C 730.933594 436.132812 739.601562 443.5625 747.761719 451.558594 C 763.683594 467.152344 783.382812 476.375 794.082031 496.902344 C 794.730469 498.160156 796.652344 496.003906 796.273438 494.96875 Z M 796.273438 494.96875 " fill-opacity="0.5" fill-rule="nonzero"/><path fill="#bec0c2" d="M 242.101562 694.953125 C 234.984375 699.816406 228.054688 704.941406 221.535156 710.585938 C 208.363281 721.976562 195.445312 735.238281 178.738281 741.296875 C 177.988281 741.566406 177.441406 740.769531 177.558594 740.117188 C 178.363281 735.679688 179.011719 731.21875 179.554688 726.738281 C 178.796875 726.972656 177.925781 726.207031 178.417969 725.378906 C 179.015625 724.382812 179.546875 723.367188 180.035156 722.328125 C 181.398438 709.097656 181.777344 695.757812 181.542969 682.460938 C 176.367188 706.28125 172.375 730.457031 160.972656 752.3125 C 160.558594 753.097656 159.476562 752.816406 159.222656 752.085938 C 153.996094 737.167969 144.917969 724.226562 138.859375 709.71875 C 133.679688 697.316406 132.6875 685.042969 136.886719 672.449219 C 128.742188 677.878906 121.871094 684.953125 114.019531 690.789062 C 113.367188 691.277344 112.652344 690.59375 112.578125 689.960938 C 112.441406 688.859375 112.246094 687.769531 112.019531 686.691406 C 111.65625 688.21875 110.570312 690.34375 110.5 690.546875 C 109.484375 693.605469 108.46875 696.65625 107.449219 699.714844 C 106.167969 703.554688 104.914062 708.210938 104.3125 712.265625 C 104.09375 713.722656 105.714844 712.964844 106.226562 712.421875 C 109.421875 709.019531 112.175781 705.246094 115.457031 701.921875 C 116.378906 700.988281 117.417969 700.226562 118.328125 699.269531 C 117.648438 699.984375 126.367188 691.085938 125.792969 696.136719 C 125.484375 698.859375 123.804688 702.011719 125.117188 704.769531 C 127.230469 709.207031 130.4375 712.945312 132.519531 717.441406 C 137.023438 727.15625 140.367188 737.738281 144.132812 747.773438 C 146.292969 753.515625 148.785156 759.222656 150 765.25 C 150.832031 769.371094 150.347656 773.617188 151.191406 777.726562 C 151.378906 778.613281 152.292969 778.28125 152.792969 777.871094 C 158.964844 772.792969 162.515625 765.902344 169.8125 761.796875 C 177.683594 757.378906 186.601562 754.300781 194.085938 749.371094 C 208.03125 740.203125 216.675781 727.042969 228.390625 715.355469 C 233.503906 710.257812 239.410156 706.113281 244.320312 700.765625 C 247.691406 697.078125 250.144531 692.863281 252.457031 688.523438 C 248.769531 690.429688 245.273438 692.789062 242.101562 694.953125 Z M 242.101562 694.953125 " fill-opacity="0.5" fill-rule="nonzero"/><path fill="#bec0c2" d="M 796.273438 494.96875 C 793.023438 486.1875 789.128906 478.34375 787.503906 468.972656 C 785.941406 459.988281 782.414062 452.582031 779.792969 443.945312 C 777.375 435.980469 771.019531 429.332031 767.167969 421.988281 C 763.59375 415.175781 758.496094 408.996094 757.074219 401.34375 C 761.945312 400.742188 766.703125 401.355469 771.609375 402.007812 C 776.75 402.6875 781.199219 404.976562 786.21875 405.714844 C 787.300781 405.875 789.171875 403.921875 788.085938 402.976562 C 781.503906 397.234375 773.070312 394.40625 766.464844 388.367188 C 757.925781 380.566406 750.226562 371.71875 743.105469 362.632812 C 729.511719 345.277344 720.203125 325.089844 711.164062 305.105469 C 701.125 282.90625 694.898438 258.679688 688.804688 235.144531 C 688.226562 232.914062 687.691406 230.679688 687.179688 228.4375 C 690.082031 249.027344 693.75 269.460938 699.871094 289.417969 C 708.34375 317.019531 722.175781 342.679688 734.65625 368.605469 C 746.878906 393.976562 758.410156 419.695312 766.1875 446.820312 C 766.472656 447.8125 765.289062 448.328125 764.589844 447.75 C 750.5625 436.230469 735.652344 426.164062 721.164062 415.296875 C 709.207031 406.328125 699.460938 394.769531 687.355469 385.996094 C 691.867188 403.632812 701.984375 419.257812 706.59375 436.890625 C 706.757812 437.523438 706.121094 438.359375 705.417969 438.070312 C 695.660156 434.027344 685.769531 430.324219 675.917969 426.539062 C 678.183594 435.382812 678.652344 444.8125 678.691406 453.777344 C 678.773438 471.84375 678.722656 489.917969 678.738281 507.988281 C 678.761719 529.074219 677.589844 550.695312 681.09375 571.570312 C 684.300781 590.664062 689.839844 609.417969 690.582031 628.859375 C 690.613281 629.59375 689.753906 630.039062 689.144531 629.683594 C 678.027344 623.234375 665.253906 620.617188 654.003906 614.480469 C 644.515625 609.300781 636.765625 601.230469 627.890625 595 C 644.292969 628.402344 661.058594 661.746094 669.921875 698.109375 C 670.164062 699.101562 669.046875 699.625 668.320312 699.039062 C 653.363281 686.917969 638.753906 674.40625 625.277344 660.652344 C 626.277344 663.9375 627.183594 667.25 627.902344 670.613281 C 628.09375 671.527344 627.003906 672.253906 626.300781 671.542969 C 622.585938 667.835938 618.859375 664.152344 614.945312 660.667969 C 619.621094 679.199219 619.957031 698.007812 615.832031 716.777344 C 614.167969 724.355469 611.289062 731.773438 610.617188 739.53125 C 610.125 745.230469 610.09375 750.957031 610.140625 756.671875 C 610.199219 763.449219 610.421875 770.238281 610.496094 777.042969 C 612.886719 770.796875 614.046875 763.535156 616.296875 757.777344 C 621.640625 744.09375 628.414062 731.636719 630.046875 716.84375 C 631.097656 707.304688 629.765625 697.550781 627.453125 688.125 C 628.78125 689.898438 630.09375 691.6875 631.351562 693.535156 C 633.78125 697.089844 636.289062 700.820312 636.605469 705.253906 C 636.722656 706.910156 636.5 709.003906 638 710.046875 C 638.675781 710.519531 639.464844 709.441406 639.5625 708.878906 C 640.488281 703.289062 639.179688 697.613281 638.148438 691.921875 C 639.40625 694.3125 641.148438 696.328125 643.917969 697.402344 C 646.839844 698.539062 649.832031 699.445312 652.78125 700.488281 C 656.832031 701.910156 657.933594 706.386719 659.988281 709.667969 C 661.621094 712.269531 664.515625 713.929688 666.742188 715.984375 C 669.503906 718.535156 671.6875 721.070312 674.902344 723.121094 C 680.46875 726.671875 685.476562 729.65625 691.988281 731.292969 C 692.933594 731.535156 694.199219 730.007812 693.75 729.128906 C 688.832031 719.539062 687.941406 708.234375 684.742188 697.886719 C 683.207031 687.226562 681.214844 676.539062 678.011719 666.277344 C 673.746094 652.601562 667.195312 639.765625 660.289062 627.257812 C 660.285156 626.820312 660.304688 626.386719 660.304688 625.949219 C 660.402344 626.035156 660.492188 626.128906 660.585938 626.210938 C 665.722656 630.699219 672.261719 633.457031 678.707031 635.429688 C 685.117188 637.386719 692.09375 641.054688 698.703125 641.804688 C 699.589844 641.90625 700.789062 640.792969 700.570312 639.847656 C 696.304688 621.621094 691.300781 603.804688 690.074219 585.042969 C 688.898438 567.082031 692.445312 549.71875 692.445312 531.878906 C 692.453125 512.515625 694.523438 493.894531 690.917969 474.691406 C 689.265625 465.898438 688.199219 457.046875 686.59375 448.246094 C 685.988281 444.910156 685.027344 441.550781 684.019531 438.308594 C 683.5625 436.859375 682.9375 435.527344 682.300781 434.222656 C 684.421875 436.175781 686.144531 438.816406 688.363281 440.488281 C 693.089844 444.046875 697.75 447.664062 702.71875 450.882812 C 710.855469 456.152344 721.203125 462.933594 724.859375 472.414062 C 725.304688 473.578125 727.34375 471.621094 726.945312 470.574219 C 722.867188 460.183594 719.742188 449.460938 715.667969 439.070312 C 713.816406 434.351562 712.570312 429.324219 711.050781 424.488281 C 709.617188 419.929688 706.789062 415.839844 704.835938 411.519531 C 711.183594 416.4375 716.4375 423.328125 722.367188 428.570312 C 730.925781 436.136719 739.597656 443.566406 747.757812 451.5625 C 763.679688 467.160156 783.378906 476.378906 794.078125 496.90625 C 794.730469 498.160156 796.652344 496.003906 796.273438 494.96875 Z M 796.273438 494.96875 " fill-opacity="0.5" fill-rule="nonzero"/><path fill="#a3a5a8" d="M 322.96875 442.144531 C 307.167969 427.660156 293.007812 411.824219 278.832031 395.78125 C 263.496094 378.425781 251.613281 358.203125 240.042969 338.214844 C 229.050781 319.234375 218.667969 300 209.460938 280.089844 C 200.375 260.4375 193.480469 239.804688 181.457031 221.71875 C 181.242188 221.398438 180.675781 221.988281 180.847656 222.261719 C 192.328125 240.789062 198.664062 261.953125 207.480469 281.839844 C 216.757812 302.765625 227.875 322.8125 239.382812 342.582031 C 250.117188 361.027344 261.191406 379.992188 275.492188 395.925781 C 290.328125 412.460938 304.910156 429.050781 322.023438 443.3125 C 322.5 443.714844 323.433594 442.566406 322.96875 442.144531 Z M 322.96875 442.144531 " fill-opacity="1" fill-rule="nonzero"/><path fill="#a3a5a8" d="M 169.496094 418.546875 C 162.199219 400.492188 154.140625 382.722656 147.925781 364.242188 C 141.390625 344.792969 137.515625 324.027344 134.089844 303.828125 C 130.730469 283.996094 128.953125 263.558594 127.429688 243.523438 C 126.730469 234.3125 127.0625 225.042969 126.496094 215.816406 C 125.910156 206.335938 126.59375 195.875 124.191406 186.648438 C 124.074219 186.195312 123.433594 186.746094 123.503906 187.070312 C 125.289062 195.59375 124.453125 205.160156 124.726562 213.863281 C 125.050781 224.128906 124.996094 234.4375 125.511719 244.695312 C 126.566406 265.703125 128.945312 287.253906 132.425781 308.007812 C 138.925781 346.8125 149.855469 384.652344 168.359375 419.554688 C 168.695312 420.195312 169.710938 419.089844 169.496094 418.546875 Z M 169.496094 418.546875 " fill-opacity="1" fill-rule="nonzero"/><path fill="#a3a5a8" d="M 506.792969 340.222656 C 493.28125 361.140625 480.21875 385.492188 457.761719 398.039062 C 446.464844 404.359375 433.527344 405.507812 420.855469 405.402344 C 406.941406 405.289062 392.601562 403.503906 379.226562 399.625 C 330.484375 385.484375 294.1875 349.441406 264.015625 310.285156 C 263.742188 309.933594 263.09375 310.613281 263.3125 310.902344 C 279.382812 332.167969 296.167969 353.019531 316.871094 370 C 336.703125 386.273438 360.363281 397.945312 385.148438 404.363281 C 408.902344 410.519531 438.449219 411.441406 460.277344 399.121094 C 481.875 386.925781 495.96875 361.273438 507.992188 340.539062 C 508.648438 339.402344 507.3125 339.414062 506.792969 340.222656 Z M 506.792969 340.222656 " fill-opacity="1" fill-rule="nonzero"/><path fill="#a3a5a8" d="M 590.84375 170.105469 C 584.515625 193.730469 583.464844 218.996094 580.59375 243.210938 C 577.347656 270.570312 573.910156 297.808594 567.820312 324.703125 C 555.929688 377.203125 543.15625 429.632812 518.191406 477.691406 C 517.539062 478.945312 518.996094 479.007812 519.511719 478.035156 C 543.871094 432.210938 556.339844 382.570312 568.140625 332.394531 C 574.40625 305.75 578.816406 278.753906 581.582031 251.515625 C 583.007812 237.476562 584.90625 223.492188 586.230469 209.445312 C 587.464844 196.371094 588.765625 182.753906 592.023438 170.003906 C 592.289062 168.972656 591.03125 169.421875 590.84375 170.105469 Z M 590.84375 170.105469 " fill-opacity="1" fill-rule="nonzero"/><path fill="#a3a5a8" d="M 490.234375 543.617188 C 485.515625 547.957031 480.253906 551.054688 474.644531 554.050781 C 468.453125 557.355469 462.769531 561.960938 456.359375 564.769531 C 450.351562 567.398438 443.882812 569.476562 437.753906 571.984375 C 431.316406 574.613281 424.140625 575.351562 417.40625 577.023438 C 410.644531 578.710938 405.308594 577.015625 398.660156 576.671875 C 393.203125 576.390625 384.433594 573.933594 379.695312 570.992188 C 368.351562 563.960938 357.132812 557.59375 346.332031 549.664062 C 323.425781 532.855469 308.097656 507.644531 293.046875 484.0625 C 285.054688 471.539062 276.980469 459.078125 269.476562 446.253906 C 261.71875 432.996094 255.328125 418.867188 248.6875 405.03125 C 248.527344 404.695312 247.9375 405.273438 248.078125 405.574219 C 254.945312 420.445312 261.628906 435.511719 269.761719 449.75 C 277.5625 463.414062 286.121094 476.636719 294.414062 490 C 302.316406 502.730469 310.722656 515.046875 319.382812 527.257812 C 327.636719 538.886719 339.871094 548.714844 351.363281 556.917969 C 369.589844 569.921875 393.515625 585.492188 417.058594 579.578125 C 431.289062 576.003906 444.914062 572.109375 458.332031 566.109375 C 464.0625 563.546875 469.375 559.082031 474.878906 555.96875 C 480.628906 552.710938 486.074219 549.546875 490.925781 545.003906 C 491.828125 544.171875 491.421875 542.53125 490.234375 543.617188 Z M 490.234375 543.617188 " fill-opacity="1" fill-rule="nonzero"/><path fill="#a3a5a8" d="M 714.363281 394.011719 C 700.597656 376.410156 686.695312 359.335938 675.332031 340.0625 C 664.324219 321.390625 655.199219 302.046875 647.472656 281.8125 C 639.476562 260.878906 633.257812 239.296875 628.527344 217.40625 C 626.117188 206.273438 624.472656 194.996094 622.34375 183.808594 C 621.402344 178.882812 620.722656 169.289062 615.792969 166.164062 C 615.539062 166.003906 615.269531 166.078125 615.023438 166.222656 C 609.953125 169.234375 610.523438 181.398438 610.152344 186.152344 C 609.097656 199.722656 610.0625 213.449219 611.4375 226.953125 C 611.519531 227.769531 612.746094 226.785156 612.6875 226.191406 C 611.398438 212.660156 610.828125 199.195312 611.65625 185.613281 C 611.820312 182.886719 612.183594 180.183594 612.566406 177.480469 C 612.511719 177.867188 614.472656 167.164062 616.152344 169.460938 C 619.136719 173.542969 619.527344 180.191406 620.445312 184.964844 C 625.292969 210.21875 629.558594 235.09375 637.175781 259.730469 C 644.933594 284.808594 654.957031 309.105469 667.652344 332.078125 C 674.070312 343.683594 680.753906 355.207031 688.886719 365.691406 C 696.710938 375.769531 704.863281 385.582031 713.089844 395.328125 C 713.539062 395.859375 714.765625 394.523438 714.363281 394.011719 Z M 714.363281 394.011719 " fill-opacity="1" fill-rule="nonzero"/><path fill="#464547" d="M 392.417969 94.359375 C 388.441406 83.136719 379.871094 67.203125 365.886719 67.898438 C 360.867188 68.148438 353.503906 74.128906 350.941406 78.179688 C 345.246094 87.1875 347.238281 101.742188 350.1875 111.339844 C 353.617188 122.5 362.679688 132.148438 374.933594 132.660156 C 394.367188 133.46875 397.277344 108.054688 392.417969 94.359375 Z M 392.417969 94.359375 " fill-opacity="1" fill-rule="nonzero"/><path fill="#464547" d="M 441.949219 122.621094 C 453.847656 119.636719 460.757812 108.347656 461.851562 96.726562 C 462.792969 86.730469 461.78125 72.070312 454.378906 64.410156 C 451.046875 60.960938 442.625 56.597656 437.660156 57.371094 C 423.824219 59.527344 418.667969 76.867188 417.050781 88.667969 C 415.074219 103.0625 423.085938 127.355469 441.949219 122.621094 Z M 441.949219 122.621094 " fill-opacity="1" fill-rule="nonzero"/><path fill="#231f20" d="M 390.828125 91.132812 C 388.449219 86.167969 385.03125 80.605469 379.484375 78.789062 C 373.722656 76.902344 366.519531 77.492188 362.21875 82.285156 C 355.335938 89.96875 356.257812 102.457031 359.238281 111.613281 C 361.675781 119.125 366.578125 129.464844 374.539062 132.628906 C 374.675781 132.632812 374.800781 132.652344 374.933594 132.660156 C 392.699219 133.398438 396.652344 112.226562 393.492188 98.128906 C 392.773438 95.726562 391.90625 93.378906 390.828125 91.132812 Z M 390.828125 91.132812 " fill-opacity="1" fill-rule="nonzero"/><path fill="#231f20" d="M 448.46875 119.890625 C 449.828125 113.855469 449.929688 106.816406 450.011719 103.804688 C 450.289062 93.363281 449.65625 76.90625 439.226562 71.316406 C 429.792969 66.261719 422.742188 71.886719 418.589844 80.703125 C 417.886719 83.472656 417.390625 86.191406 417.050781 88.671875 C 415.074219 103.0625 423.085938 127.359375 441.949219 122.621094 C 444.328125 122.027344 446.496094 121.085938 448.46875 119.890625 Z M 448.46875 119.890625 " fill-opacity="1" fill-rule="nonzero"/><path fill="#464547" d="M 459.453125 128.109375 C 456.933594 129.039062 454.621094 130.480469 452.425781 132.175781 C 453.402344 134.320312 454.113281 136.527344 454.042969 138.699219 C 453.902344 143.445312 450.6875 145.804688 447.871094 149.210938 C 442.613281 155.578125 440.203125 150.476562 437.660156 145.523438 C 432.085938 150.363281 424.804688 153.457031 417.824219 155.222656 C 413.992188 156.1875 410.734375 157.398438 406.660156 157.535156 C 402.460938 157.679688 398.117188 156.457031 393.914062 155.683594 C 391.949219 154.949219 390.015625 154.15625 388.125 153.339844 C 387.554688 153.183594 386.992188 153.023438 386.429688 152.859375 C 386.207031 156.847656 386.183594 160.847656 385.753906 164.828125 C 385.703125 165.304688 385.355469 165.839844 384.796875 165.785156 C 380.742188 165.394531 372.476562 164.519531 370.589844 160.074219 C 368.554688 155.28125 369.234375 149.800781 369.496094 144.640625 C 364.757812 142.453125 359.96875 141.421875 355.789062 144.480469 C 351.851562 147.359375 350.75 152.066406 351.023438 156.804688 C 351.777344 159.015625 352.632812 161.203125 353.609375 163.355469 C 357.253906 171.382812 363.734375 177.539062 371.15625 182.171875 C 371.730469 179.199219 372.265625 176.230469 372.671875 173.230469 C 372.722656 172.820312 373.210938 172.519531 373.59375 172.523438 C 376.707031 172.585938 383.597656 172.292969 385.449219 175.441406 C 385.808594 176.054688 385.523438 176.707031 385.601562 177.339844 C 385.851562 179.347656 386.480469 181.304688 386.730469 183.316406 C 386.992188 185.40625 387.171875 187.503906 387.375 189.597656 C 407.21875 195.617188 432.488281 192.675781 449.648438 180.851562 C 448.085938 177.003906 447.238281 172.882812 445.347656 169.128906 C 445.105469 168.636719 445.246094 168.132812 445.691406 167.820312 C 449.640625 165.070312 453.796875 162.675781 458.175781 160.6875 C 458.644531 160.476562 459.207031 160.546875 459.484375 161.035156 C 460.726562 163.222656 461.898438 165.445312 463.089844 167.660156 C 466.757812 162.746094 469.847656 157.242188 471.835938 151.558594 C 472.230469 149.761719 472.558594 147.957031 472.738281 146.144531 C 473.535156 138.007812 471.074219 123.828125 459.453125 128.109375 Z M 459.453125 128.109375 " fill-opacity="1" fill-rule="nonzero"/><path fill="#231f20" d="M 441.152344 175.242188 C 432.472656 173.480469 423.476562 172.953125 414.703125 174.394531 C 404.667969 176.042969 394.433594 180.410156 387.195312 187.730469 C 387.253906 188.355469 387.3125 188.976562 387.375 189.601562 C 407.21875 195.617188 432.488281 192.675781 449.648438 180.855469 C 449.246094 179.867188 448.890625 178.859375 448.554688 177.84375 C 446.175781 176.707031 443.730469 175.765625 441.152344 175.242188 Z M 441.152344 175.242188 " fill-opacity="1" fill-rule="nonzero"/></svg>